{"glyphs":{"0":{"ha":890,"x_min":83,"x_max":806,"o":"m 444 1013 q 724 878 643 1013 q 806 508 806 743 q 724 138 806 272 q 444 3 643 3 q 165 138 246 3 q 83 508 83 272 q 165 878 83 743 q 444 1013 246 1013 m 444 868 q 313 819 357 868 q 253 694 268 771 q 239 508 239 618 q 253 321 239 397 q 313 196 268 244 q 444 147 357 147 q 576 196 532 147 q 635 321 621 244 q 650 508 650 397 q 635 694 650 618 q 576 819 621 771 q 444 868 532 868 "},"1":{"ha":486,"x_min":63,"x_max":351,"o":"m 63 842 l 192 842 l 192 0 l 351 0 l 351 986 l 63 986 l 63 842 "},"2":{"ha":801,"x_min":69,"x_max":746,"o":"m 174 218 l 71 129 l 71 14 l 746 14 l 746 146 l 306 146 l 369 203 q 547 371 478 299 q 667 533 617 443 q 718 719 718 624 q 680 875 718 807 q 569 981 642 943 q 396 1018 497 1018 q 165 934 256 1018 q 69 692 74 850 l 222 692 q 270 831 225 779 q 397 883 315 883 q 522 838 482 883 q 561 713 561 792 q 510 558 561 636 q 383 406 460 479 q 174 218 307 332 "},"3":{"ha":825,"x_min":67,"x_max":742,"o":"m 81 763 l 235 763 q 286 860 243 821 q 407 900 329 900 q 529 860 486 900 q 572 754 572 821 q 513 640 572 676 q 342 603 454 604 l 304 603 l 304 472 l 340 472 q 530 431 468 472 q 592 293 592 390 q 546 173 592 219 q 415 126 500 126 q 276 173 328 126 q 219 293 225 219 l 67 293 q 170 72 74 149 q 417 -6 267 -6 q 593 31 519 -6 q 704 132 667 68 q 742 278 742 196 q 696 447 742 381 q 568 538 650 513 l 568 543 q 678 625 632 564 q 724 772 724 686 q 688 907 724 847 q 581 1001 651 967 q 413 1036 510 1036 q 180 964 271 1036 q 81 763 89 892 "},"4":{"ha":899,"x_min":64,"x_max":851,"o":"m 64 211 l 567 211 l 567 0 l 722 0 l 722 211 l 851 211 l 851 349 l 722 349 l 722 1000 l 531 1000 l 64 331 l 64 211 m 574 839 l 574 349 l 246 349 l 574 839 "},"5":{"ha":888,"x_min":103,"x_max":806,"o":"m 736 876 l 736 1015 l 125 1015 l 125 431 l 275 431 q 342 523 296 489 q 457 557 389 557 q 604 503 554 557 q 654 350 654 450 q 605 192 654 251 q 457 132 556 132 q 325 170 378 132 q 257 274 272 208 l 103 274 q 213 75 121 150 q 456 0 304 0 q 648 46 569 0 q 766 172 726 92 q 806 354 806 251 q 774 515 806 439 q 670 642 743 592 q 481 692 597 692 q 358 665 415 692 q 271 600 300 639 l 271 876 l 736 876 "},"6":{"ha":892,"x_min":103,"x_max":806,"o":"m 628 778 l 774 778 q 680 963 760 888 q 461 1038 600 1038 q 103 529 103 1038 q 135 242 103 357 q 249 63 168 126 q 474 0 331 0 q 654 44 579 0 q 767 164 729 88 q 806 338 806 240 q 766 517 806 442 q 656 631 726 592 q 494 671 586 671 q 344 638 414 671 q 239 543 275 604 q 296 822 242 738 q 460 906 350 906 q 572 874 532 906 q 628 778 613 842 m 460 538 q 605 481 556 538 q 654 331 654 425 q 603 186 654 240 q 465 132 553 132 q 312 188 367 132 q 257 340 257 244 q 316 487 257 436 q 460 538 375 538 "},"7":{"ha":778,"x_min":56,"x_max":725,"o":"m 725 890 l 725 1008 l 56 1008 l 56 876 l 569 876 l 165 0 l 339 0 l 725 890 "},"8":{"ha":886,"x_min":85,"x_max":803,"o":"m 254 543 q 131 447 176 514 q 85 286 85 381 q 131 122 85 192 q 258 13 176 51 q 443 -25 339 -25 q 629 13 547 -25 q 757 122 711 51 q 803 286 803 192 q 757 446 803 379 q 632 543 711 513 q 737 634 697 575 q 776 771 776 693 q 739 908 776 846 q 626 1008 701 971 q 443 1044 550 1044 q 260 1008 335 1044 q 147 908 185 971 q 110 771 110 846 q 254 543 110 615 m 443 913 q 576 871 528 913 q 625 751 625 829 q 574 638 625 682 q 443 593 522 593 q 313 637 364 593 q 263 750 263 681 q 311 871 263 829 q 443 913 360 913 m 443 474 q 592 426 536 474 q 647 292 647 379 q 592 158 647 210 q 443 107 538 107 q 292 158 347 107 q 236 292 236 208 q 294 428 236 382 q 443 474 351 474 "},"9":{"ha":882,"x_min":107,"x_max":792,"o":"m 281 275 l 135 275 q 225 79 144 157 q 454 1 306 1 q 658 60 585 1 q 762 232 732 118 q 792 525 792 346 q 712 910 792 785 q 443 1036 632 1036 q 197 945 286 1036 q 107 701 107 854 q 149 524 107 597 q 265 415 192 451 q 429 378 339 378 q 560 403 500 378 q 654 476 621 429 q 608 211 654 289 q 464 133 563 133 q 340 169 386 133 q 281 275 294 206 m 457 511 q 308 566 357 511 q 258 706 258 621 q 309 849 258 794 q 447 904 360 904 q 585 851 535 904 q 636 701 636 797 q 588 563 636 615 q 457 511 540 511 "},"\u0000":{"ha":0,"x_min":0,"x_max":0,"o":""},"\r":{"ha":417,"x_min":0,"x_max":0,"o":""}," ":{"ha":417,"x_min":0,"x_max":0,"o":""},"अ":{"ha":1154,"x_min":97,"x_max":1186,"o":"m 1186 1028 l 872 1028 l 872 549 l 588 549 q 515 576 554 568 l 515 579 q 636 656 594 600 q 678 792 678 713 q 601 972 678 904 q 399 1040 524 1040 q 247 1008 314 1040 q 144 915 181 975 q 107 776 107 856 l 242 776 q 287 878 242 840 q 399 917 332 917 q 505 877 463 917 q 547 772 547 838 q 505 674 547 715 q 386 633 463 633 l 329 633 l 329 515 l 386 515 q 543 436 499 515 l 543 429 l 546 429 q 561 358 561 399 q 518 244 561 288 q 401 201 475 201 q 280 247 326 201 q 233 361 233 292 l 97 361 q 137 213 97 278 q 248 113 176 149 q 411 76 319 76 q 617 150 539 76 q 694 344 694 224 q 681 429 694 389 l 872 428 l 872 0 l 1017 0 l 1017 906 l 1186 906 l 1186 1028 "},"आ":{"ha":1564,"x_min":97,"x_max":1606,"o":"m 1186 1028 l 872 1028 l 872 549 l 588 549 q 515 576 554 568 l 515 579 q 636 656 594 600 q 678 792 678 713 q 601 972 678 904 q 399 1040 524 1040 q 247 1008 314 1040 q 144 915 181 975 q 107 776 107 856 l 242 776 q 287 878 242 840 q 399 917 332 917 q 505 877 463 917 q 547 772 547 838 q 505 674 547 715 q 386 633 463 633 l 329 633 l 329 515 l 386 515 q 543 436 499 515 l 543 429 l 546 429 q 561 358 561 399 q 518 244 561 288 q 401 201 475 201 q 280 247 326 201 q 233 361 233 292 l 97 361 q 137 213 97 278 q 248 113 176 149 q 411 76 319 76 q 617 150 539 76 q 694 344 694 224 q 681 429 694 389 l 872 428 l 872 0 l 1017 0 l 1017 906 l 1186 906 l 1186 1028 m 1290 906 l 1290 0 l 1436 0 l 1436 906 l 1606 906 l 1606 1028 l 1121 1028 l 1121 906 l 1290 906 "},"इ":{"ha":806,"x_min":-44,"x_max":850,"o":"m 399 653 l 647 653 l 647 906 l 850 906 l 850 1028 l -44 1028 l -44 906 l 507 906 l 507 758 l 360 758 q 178 708 250 758 q 106 553 106 658 q 174 403 106 453 q 340 349 242 353 l 418 349 q 543 317 494 349 q 592 215 592 286 q 553 125 592 161 q 443 89 515 89 q 313 132 361 89 q 257 246 264 175 l 126 246 l 126 -110 l 264 -110 l 264 92 q 341 15 286 51 q 483 -21 396 -21 q 665 44 600 -21 q 731 211 731 110 q 649 396 731 339 q 444 453 567 453 l 383 453 q 288 476 325 453 q 251 551 251 500 q 294 631 251 608 q 399 653 336 653 "},"ई":{"ha":806,"x_min":-44,"x_max":993,"o":"m 399 653 l 647 653 l 647 906 l 850 906 l 850 1028 l -44 1028 l -44 906 l 507 906 l 507 758 l 360 758 q 178 708 250 758 q 106 553 106 658 q 174 403 106 453 q 340 349 242 353 l 418 349 q 543 317 494 349 q 592 215 592 286 q 553 125 592 161 q 443 89 515 89 q 313 132 361 89 q 257 246 264 175 l 126 246 l 126 -110 l 264 -110 l 264 92 q 341 15 286 51 q 483 -21 396 -21 q 665 44 600 -21 q 731 211 731 110 q 649 396 731 339 q 444 453 567 453 l 383 453 q 288 476 325 453 q 251 551 251 500 q 294 631 251 608 q 399 653 336 653 m 508 1126 l 508 1003 l 644 1003 l 644 1128 q 756 1282 644 1282 q 835 1247 806 1282 q 861 1156 864 1213 l 989 1156 q 931 1336 993 1268 q 753 1404 868 1404 q 567 1327 626 1404 q 508 1126 508 1250 "},"उ":{"ha":794,"x_min":-33,"x_max":828,"o":"m 672 779 l 672 906 l 828 906 l 828 1028 l -33 1028 l -33 906 l 532 906 l 532 788 q 490 671 532 714 q 368 628 447 628 l 318 628 l 318 500 l 388 500 q 528 445 481 500 q 575 315 575 390 q 526 185 575 235 q 397 135 478 135 q 260 188 315 135 q 206 319 206 240 l 67 319 q 110 155 67 226 q 230 44 153 83 q 404 4 307 4 q 569 42 500 4 q 676 149 639 81 q 713 304 713 217 q 662 474 713 401 q 526 567 611 547 l 526 569 q 632 638 592 582 q 672 779 672 694 "},"ऊ":{"ha":1196,"x_min":-33,"x_max":1228,"o":"m 672 779 l 672 906 l 1228 906 l 1228 1028 l -33 1028 l -33 906 l 532 906 l 532 788 q 490 671 532 714 q 368 628 447 628 l 318 628 l 318 500 l 388 500 q 528 445 481 500 q 575 315 575 390 q 526 185 575 235 q 397 135 478 135 q 260 188 315 135 q 206 319 206 240 l 67 319 q 110 155 67 226 q 230 44 153 83 q 404 4 307 4 q 568 42 499 4 q 674 146 638 79 q 711 297 711 213 q 672 450 711 383 l 804 450 q 935 413 885 450 q 985 299 985 376 q 943 186 985 222 q 833 150 901 150 q 788 151 803 150 l 788 40 q 857 35 835 35 q 1051 101 978 35 q 1125 293 1125 168 q 1037 499 1125 432 q 803 567 949 567 l 526 567 l 526 569 q 632 638 592 582 q 672 779 672 694 "},"ऋ":{"ha":1431,"x_min":-33,"x_max":1464,"o":"m 818 906 l 1464 906 l 1464 1028 l -33 1028 l -33 906 l 683 906 l 683 649 q 433 772 600 772 q 256 726 332 772 q 138 598 179 681 q 96 407 96 515 l 242 407 q 306 583 242 517 q 475 649 369 649 q 611 604 556 649 q 683 488 667 560 l 156 8 l 156 0 l 339 0 l 683 339 l 683 0 l 818 0 l 818 497 l 1032 497 q 1161 525 1103 497 l 1161 375 q 1021 296 1072 356 q 969 147 969 236 q 1047 -26 969 35 q 1243 -86 1124 -86 q 1342 -75 1292 -86 l 1342 42 q 1263 31 1300 31 q 1152 62 1194 31 q 1110 160 1110 93 q 1149 255 1110 218 q 1258 292 1188 292 l 1288 292 l 1288 782 l 1161 782 l 1161 710 q 1053 614 1161 614 l 818 614 l 818 906 "},"ॠ":{"ha":1383,"x_min":-33,"x_max":1465,"o":"m 818 906 l 1465 906 l 1465 1028 l -33 1028 l -33 906 l 683 906 l 683 649 q 433 772 600 772 q 256 726 332 772 q 138 598 179 681 q 96 407 96 515 l 242 407 q 306 583 242 517 q 475 649 369 649 q 611 604 556 649 q 683 488 667 560 l 156 8 l 156 0 l 339 0 l 683 339 l 683 0 l 818 0 l 818 497 l 1032 497 q 1161 525 1103 497 l 1161 371 q 1028 326 1083 367 q 972 203 972 285 q 1008 102 972 140 q 1101 50 1043 64 l 1101 46 q 1008 -9 1044 33 q 972 -114 972 -51 q 1046 -259 972 -211 q 1226 -307 1119 -307 q 1313 -299 1268 -307 q 1385 -281 1357 -292 l 1385 -171 q 1322 -186 1360 -179 q 1247 -193 1285 -193 q 1150 -171 1189 -193 q 1111 -100 1111 -149 q 1148 -26 1111 -49 q 1242 -4 1185 -4 l 1308 -4 l 1308 106 l 1239 106 q 1148 127 1183 106 q 1113 196 1113 149 q 1147 267 1113 246 q 1233 289 1181 289 l 1288 289 l 1288 782 l 1161 782 l 1161 710 q 1053 614 1161 614 l 818 614 l 818 906 "},"ऌ":{"ha":1253,"x_min":-33,"x_max":1285,"o":"m 954 906 l 1285 906 l 1285 1028 l -33 1028 l -33 906 l 813 906 l 813 744 q 694 677 739 726 q 631 561 650 628 l 626 561 q 544 697 603 643 q 388 751 485 751 q 234 713 301 751 q 128 602 167 675 q 90 428 90 529 q 178 178 90 272 q 429 85 267 85 q 476 86 458 85 l 476 214 l 438 211 q 290 268 343 211 q 238 426 238 325 q 282 568 238 514 q 407 622 326 622 q 528 560 488 622 q 568 394 568 497 l 568 365 l 690 365 l 690 394 q 733 560 690 499 q 858 622 775 622 q 976 568 935 622 q 1018 429 1018 514 q 1013 368 1018 394 q 878 292 931 353 q 825 149 825 232 q 902 -28 825 33 q 1103 -89 979 -89 q 1200 -78 1153 -89 l 1200 39 q 1119 28 1164 28 q 1008 59 1051 28 q 965 156 965 90 q 1007 252 965 215 q 1131 289 1049 289 l 1140 289 q 1163 428 1163 350 q 1106 636 1163 554 q 954 743 1050 718 l 954 906 "},"ॡ":{"ha":1265,"x_min":-33,"x_max":1293,"o":"m 954 906 l 1293 906 l 1293 1028 l -33 1028 l -33 906 l 813 906 l 813 744 q 694 677 739 726 q 631 561 650 628 l 626 561 q 544 697 603 643 q 388 751 485 751 q 234 713 301 751 q 128 602 167 675 q 90 428 90 529 q 178 178 90 272 q 429 85 267 85 q 476 86 458 85 l 476 214 l 438 211 q 290 268 343 211 q 238 426 238 325 q 282 568 238 514 q 407 622 326 622 q 528 560 488 622 q 568 394 568 497 l 568 365 l 690 365 l 690 394 q 733 560 690 499 q 858 622 775 622 q 976 568 935 622 q 1018 429 1018 514 q 1013 369 1018 396 q 883 323 936 364 q 831 203 831 282 q 866 102 831 140 q 960 50 901 64 l 960 46 q 867 -9 903 33 q 831 -112 831 -51 q 904 -259 831 -211 q 1085 -307 978 -307 q 1171 -299 1126 -307 q 1243 -281 1215 -292 l 1243 -171 q 1182 -186 1221 -179 q 1106 -193 1143 -193 q 1008 -171 1047 -193 q 969 -100 969 -149 q 1006 -26 969 -49 q 1100 -4 1043 -4 l 1167 -4 l 1167 106 l 1097 106 q 1006 127 1042 106 q 971 196 971 149 q 1005 267 971 246 q 1092 289 1039 289 l 1140 289 q 1163 428 1163 350 q 1106 636 1163 554 q 954 743 1050 718 l 954 906 "},"ए":{"ha":906,"x_min":-33,"x_max":939,"o":"m 494 607 l 494 476 q 556 472 528 472 q 738 544 682 472 q 793 760 793 615 l 793 906 l 939 906 l 939 1028 l -33 1028 l -33 906 l 133 906 l 135 378 q 221 121 135 215 q 475 26 307 26 q 712 110 625 26 q 799 343 799 194 l 656 343 q 607 202 656 253 q 472 151 558 151 q 329 210 379 151 q 279 374 279 268 l 279 906 l 651 906 l 651 764 q 621 644 651 682 q 524 606 590 606 q 494 607 504 606 "},"ऐ":{"ha":906,"x_min":-33,"x_max":939,"o":"m 494 607 l 494 476 q 556 472 528 472 q 738 544 682 472 q 793 760 793 615 l 793 906 l 939 906 l 939 1028 l -33 1028 l -33 906 l 133 906 l 135 378 q 221 121 135 215 q 475 26 307 26 q 712 110 625 26 q 799 343 799 194 l 656 343 q 607 202 656 253 q 472 151 558 151 q 329 210 379 151 q 279 374 279 268 l 279 906 l 651 906 l 651 764 q 621 644 651 682 q 524 606 590 606 q 494 607 504 606 m 650 1022 l 788 1022 q 633 1254 696 1182 q 508 1348 569 1326 q 339 1371 446 1369 l 279 1371 l 279 1251 l 342 1251 q 455 1237 414 1251 q 539 1176 496 1222 q 650 1022 582 1129 "},"ओ":{"ha":1572,"x_min":97,"x_max":1606,"o":"m 1293 1022 l 1431 1022 q 1276 1254 1339 1182 q 1151 1348 1213 1326 q 982 1371 1089 1369 l 922 1371 l 922 1251 l 985 1251 q 1098 1237 1057 1251 q 1182 1176 1139 1222 q 1293 1022 1225 1129 m 1186 1028 l 872 1028 l 872 549 l 588 549 q 515 576 554 568 l 515 579 q 636 656 594 600 q 678 792 678 713 q 601 972 678 904 q 399 1040 524 1040 q 247 1008 314 1040 q 144 915 181 975 q 107 776 107 856 l 242 776 q 287 878 242 840 q 399 917 332 917 q 505 877 463 917 q 547 772 547 838 q 505 674 547 715 q 386 633 463 633 l 329 633 l 329 515 l 386 515 q 543 436 499 515 l 543 429 l 546 429 q 561 358 561 399 q 518 244 561 288 q 401 201 475 201 q 280 247 326 201 q 233 361 233 292 l 97 361 q 137 213 97 278 q 248 113 176 149 q 411 76 319 76 q 617 150 539 76 q 694 344 694 224 q 681 429 694 389 l 872 428 l 872 0 l 1017 0 l 1017 906 l 1186 906 l 1186 1028 m 1290 906 l 1290 0 l 1436 0 l 1436 906 l 1606 906 l 1606 1028 l 1121 1028 l 1121 906 l 1290 906 "},"औ":{"ha":1572,"x_min":97,"x_max":1606,"o":"m 974 1458 l 910 1458 l 910 1364 l 976 1364 q 1085 1352 1044 1364 q 1171 1292 1125 1340 q 1275 1138 1217 1243 q 1171 1209 1213 1188 q 1089 1236 1129 1231 q 971 1242 1049 1242 l 910 1242 l 910 1149 l 974 1149 q 1094 1142 1054 1149 q 1177 1111 1135 1135 q 1304 1024 1219 1088 l 1429 1024 q 1257 1323 1321 1235 q 1137 1435 1193 1411 q 974 1458 1081 1458 m 1186 1028 l 872 1028 l 872 549 l 588 549 q 515 576 554 568 l 515 579 q 636 656 594 600 q 678 792 678 713 q 601 972 678 904 q 399 1040 524 1040 q 247 1008 314 1040 q 144 915 181 975 q 107 776 107 856 l 242 776 q 287 878 242 840 q 399 917 332 917 q 505 877 463 917 q 547 772 547 838 q 505 674 547 715 q 386 633 463 633 l 329 633 l 329 515 l 386 515 q 543 436 499 515 l 543 429 l 546 429 q 561 358 561 399 q 518 244 561 288 q 401 201 475 201 q 280 247 326 201 q 233 361 233 292 l 97 361 q 137 213 97 278 q 248 113 176 149 q 411 76 319 76 q 617 150 539 76 q 694 344 694 224 q 681 429 694 389 l 872 428 l 872 0 l 1017 0 l 1017 906 l 1186 906 l 1186 1028 m 1290 906 l 1290 0 l 1436 0 l 1436 906 l 1606 906 l 1606 1028 l 1121 1028 l 1121 906 l 1290 906 "},"ऍ":{"ha":906,"x_min":-33,"x_max":939,"o":"m 494 607 l 494 476 q 556 472 528 472 q 738 544 682 472 q 793 760 793 615 l 793 906 l 939 906 l 939 1028 l -33 1028 l -33 906 l 133 906 l 135 378 q 221 121 135 215 q 475 26 307 26 q 712 110 625 26 q 799 343 799 194 l 656 343 q 607 202 656 253 q 472 151 558 151 q 329 210 379 151 q 279 374 279 268 l 279 906 l 651 906 l 651 764 q 621 644 651 682 q 524 606 590 606 q 494 607 504 606 m 456 1156 q 677 1229 601 1156 q 753 1414 753 1303 l 628 1414 q 584 1308 628 1351 q 456 1265 540 1265 q 328 1308 371 1265 q 285 1414 285 1351 l 158 1414 q 233 1228 158 1301 q 456 1156 308 1156 "},"ॲ":{"ha":1157,"x_min":97,"x_max":1253,"o":"m 1186 1028 l 872 1028 l 872 549 l 588 549 q 515 576 554 568 l 515 579 q 636 656 594 600 q 678 792 678 713 q 601 972 678 904 q 399 1040 524 1040 q 247 1008 314 1040 q 144 915 181 975 q 107 776 107 856 l 242 776 q 287 878 242 840 q 399 917 332 917 q 505 877 463 917 q 547 772 547 838 q 505 674 547 715 q 386 633 463 633 l 329 633 l 329 515 l 386 515 q 543 436 499 515 l 543 429 l 546 429 q 561 358 561 399 q 518 244 561 288 q 401 201 475 201 q 280 247 326 201 q 233 361 233 292 l 97 361 q 137 213 97 278 q 248 113 176 149 q 411 76 319 76 q 617 150 539 76 q 694 344 694 224 q 681 429 694 389 l 872 428 l 872 0 l 1017 0 l 1017 906 l 1186 906 l 1186 1028 m 956 1160 q 1177 1233 1101 1160 q 1253 1418 1253 1307 l 1128 1418 q 1084 1313 1128 1356 q 956 1269 1040 1269 q 828 1313 871 1269 q 785 1418 785 1356 l 658 1418 q 733 1233 658 1306 q 956 1160 808 1160 "},"ऑ":{"ha":1572,"x_min":97,"x_max":1606,"o":"m 1186 1028 l 872 1028 l 872 549 l 588 549 q 515 576 554 568 l 515 579 q 636 656 594 600 q 678 792 678 713 q 601 972 678 904 q 399 1040 524 1040 q 247 1008 314 1040 q 144 915 181 975 q 107 776 107 856 l 242 776 q 287 878 242 840 q 399 917 332 917 q 505 877 463 917 q 547 772 547 838 q 505 674 547 715 q 386 633 463 633 l 329 633 l 329 515 l 386 515 q 543 436 499 515 l 543 429 l 546 429 q 561 358 561 399 q 518 244 561 288 q 401 201 475 201 q 280 247 326 201 q 233 361 233 292 l 97 361 q 137 213 97 278 q 248 113 176 149 q 411 76 319 76 q 617 150 539 76 q 694 344 694 224 q 681 429 694 389 l 872 428 l 872 0 l 1017 0 l 1017 906 l 1186 906 l 1186 1028 m 1290 906 l 1290 0 l 1436 0 l 1436 906 l 1606 906 l 1606 1028 l 1121 1028 l 1121 906 l 1290 906 m 1157 1156 q 1378 1229 1303 1156 q 1454 1414 1454 1303 l 1329 1414 q 1285 1308 1329 1351 q 1157 1265 1242 1265 q 1029 1308 1072 1265 q 986 1414 986 1351 l 860 1414 q 935 1228 860 1301 q 1157 1156 1010 1156 "},"ा":{"ha":418,"x_min":-33,"x_max":451,"o":"m 136 906 l 136 0 l 282 0 l 282 906 l 451 906 l 451 1028 l -33 1028 l -33 906 l 136 906 "},"ि":{"ha":418,"x_min":-33,"x_max":1231,"o":"m 683 1397 q 408 1356 531 1397 q 212 1233 285 1315 q 136 1028 139 1150 l -33 1028 l -33 906 l 136 906 l 136 0 l 282 0 l 282 906 l 451 906 l 451 1028 l 281 1028 q 401 1220 285 1163 q 683 1278 518 1278 q 876 1251 785 1278 q 1026 1165 968 1224 q 1085 1015 1085 1107 l 1085 994 l 1231 994 l 1231 1018 q 1158 1224 1231 1138 q 960 1353 1085 1310 q 683 1397 836 1397 "},"ी":{"ha":418,"x_min":-282,"x_max":451,"o":"m 451 1028 l 282 1028 l 282 1078 q 217 1311 282 1225 q 1 1397 151 1397 q -214 1310 -146 1397 q -282 1078 -282 1224 l -282 994 l -140 994 l -140 1085 q -108 1220 -140 1165 q 1 1275 -76 1275 q 110 1220 79 1275 q 140 1085 140 1165 l 140 1028 l -33 1028 l -33 906 l 136 906 l 136 0 l 282 0 l 282 906 l 451 906 l 451 1028 "},"ु":{"ha":0,"x_min":-614,"x_max":4,"o":"m -279 -432 q -72 -367 -147 -432 q 4 -187 4 -301 q -60 -18 4 -82 q -244 46 -125 46 l -282 46 l -282 -68 l -244 -68 q -153 -102 -186 -68 q -119 -186 -119 -136 q -163 -283 -119 -249 q -283 -318 -207 -318 q -430 -272 -375 -318 q -481 -132 -485 -225 l -610 -132 q -519 -358 -614 -283 q -279 -432 -424 -432 "},"ू":{"ha":0,"x_min":-490,"x_max":133,"o":"m -250 -418 q -197 -417 -215 -418 l -197 -310 q -242 -312 -231 -312 q -335 -281 -297 -312 q -372 -196 -372 -250 q -328 -102 -372 -136 q -214 -68 -285 -68 q -48 -140 -108 -68 q 13 -344 13 -212 l 13 -410 l 132 -410 q 133 -354 133 -392 q 47 -68 133 -178 q -214 42 -39 42 q -414 -22 -337 42 q -490 -194 -490 -86 q -422 -360 -490 -301 q -250 -418 -354 -418 "},"ृ":{"ha":0,"x_min":-467,"x_max":-62,"o":"m -190 -442 q -62 -422 -118 -442 l -62 -308 q -168 -324 -111 -324 q -282 -292 -237 -324 q -326 -193 -326 -261 q -288 -97 -326 -135 q -182 -58 -250 -58 l -136 -58 l -136 42 q -193 43 -147 43 q -394 -24 -321 43 q -467 -199 -467 -90 q -386 -382 -467 -322 q -190 -442 -306 -442 "},"ॄ":{"ha":0,"x_min":-439,"x_max":-26,"o":"m -185 -635 q -99 -628 -143 -635 q -26 -610 -54 -621 l -26 -500 q -86 -514 -47 -507 q -162 -521 -125 -521 q -260 -499 -222 -521 q -299 -428 -299 -478 q -262 -354 -299 -376 q -168 -332 -225 -332 l -103 -332 l -103 -224 l -172 -224 q -263 -201 -228 -224 q -299 -132 -299 -179 q -265 -60 -299 -82 q -176 -39 -231 -39 l -136 -39 l -136 43 l -231 43 q -376 2 -314 43 q -437 -125 -437 -39 q -403 -226 -437 -189 q -308 -278 -368 -264 l -308 -282 q -403 -337 -367 -294 q -439 -443 -439 -379 q -366 -587 -439 -540 q -185 -635 -293 -635 "},"ॢ":{"ha":0,"x_min":-604,"x_max":215,"o":"m 156 -557 q 76 -534 108 -557 q 43 -465 43 -511 q 74 -397 43 -424 q 167 -371 106 -371 l 175 -371 q 190 -269 190 -321 q 131 -94 190 -158 q -21 -29 71 -29 q -142 -69 -96 -29 q -206 -167 -187 -108 l -208 -167 q -269 -69 -226 -108 q -385 -29 -312 -29 q -542 -93 -481 -29 q -604 -269 -604 -157 q -538 -452 -604 -383 q -353 -521 -472 -521 q -318 -519 -331 -521 l -318 -419 q -347 -422 -326 -422 q -451 -382 -414 -422 q -489 -271 -489 -342 q -458 -169 -489 -207 q -368 -131 -426 -131 q -282 -175 -311 -131 q -253 -293 -253 -219 l -253 -314 l -157 -314 l -157 -293 q -127 -175 -157 -219 q -39 -131 -97 -131 q 45 -169 17 -131 q 74 -269 74 -207 q 71 -308 74 -296 q -28 -365 10 -321 q -67 -472 -67 -410 q -8 -603 -67 -557 q 143 -649 50 -649 q 215 -642 181 -649 l 215 -549 q 156 -557 193 -557 "},"ॣ":{"ha":0,"x_min":-604,"x_max":246,"o":"m 146 -721 q 76 -706 103 -721 q 49 -656 49 -690 q 144 -587 49 -587 l 190 -587 l 190 -501 l 142 -501 q 75 -485 100 -501 q 50 -436 50 -469 q 74 -386 50 -401 q 136 -371 99 -371 l 175 -371 q 190 -269 190 -321 q 131 -94 190 -158 q -21 -29 71 -29 q -142 -69 -96 -29 q -206 -167 -187 -108 l -208 -167 q -269 -69 -226 -108 q -385 -29 -312 -29 q -542 -93 -481 -29 q -604 -269 -604 -157 q -538 -452 -604 -383 q -353 -521 -472 -521 q -318 -519 -331 -521 l -318 -419 q -347 -422 -326 -422 q -451 -382 -414 -422 q -489 -271 -489 -342 q -458 -169 -489 -207 q -368 -131 -426 -131 q -282 -175 -311 -131 q -253 -293 -253 -219 l -253 -314 l -157 -314 l -157 -293 q -127 -175 -157 -219 q -39 -131 -97 -131 q 45 -169 17 -131 q 74 -269 74 -207 q 72 -306 74 -293 q -21 -341 17 -310 q -58 -431 -58 -372 q -33 -507 -58 -478 q 36 -546 -7 -536 l 36 -549 q -32 -588 -6 -557 q -58 -667 -58 -619 q -5 -774 -58 -739 q 129 -808 49 -808 q 194 -803 161 -808 q 246 -792 226 -799 l 246 -706 q 201 -716 229 -711 q 146 -721 174 -721 "},"े":{"ha":0,"x_min":-646,"x_max":-137,"o":"m -275 1022 l -137 1022 q -292 1254 -229 1182 q -417 1348 -356 1326 q -586 1371 -479 1369 l -646 1371 l -646 1251 l -583 1251 q -470 1237 -511 1251 q -386 1176 -429 1222 q -275 1022 -343 1129 "},"ै":{"ha":0,"x_min":-657,"x_max":-137,"o":"m -593 1458 l -657 1458 l -657 1364 l -590 1364 q -482 1352 -522 1364 q -396 1292 -442 1340 q -292 1138 -350 1243 q -396 1209 -354 1188 q -478 1236 -437 1231 q -596 1242 -518 1242 l -657 1242 l -657 1149 l -593 1149 q -472 1142 -512 1149 q -390 1111 -432 1135 q -262 1024 -347 1088 l -137 1024 q -310 1323 -246 1235 q -430 1435 -374 1411 q -593 1458 -486 1458 "},"ो":{"ha":419,"x_min":-226,"x_max":451,"o":"m 136 906 l 136 0 l 282 0 l 282 906 l 451 906 l 451 1028 l -33 1028 l -33 906 l 136 906 m 144 1022 l 282 1022 q 127 1254 190 1182 q 2 1348 64 1326 q -167 1371 -60 1369 l -226 1371 l -226 1251 l -164 1251 q -51 1237 -92 1251 q 33 1176 -10 1222 q 144 1022 76 1129 "},"ौ":{"ha":418,"x_min":-243,"x_max":451,"o":"m 136 906 l 136 0 l 282 0 l 282 906 l 451 906 l 451 1028 l -33 1028 l -33 906 l 136 906 m -179 1458 l -243 1458 l -243 1364 l -176 1364 q -68 1352 -108 1364 q 18 1292 -28 1340 q 122 1138 64 1243 q 18 1209 60 1188 q -64 1236 -24 1231 q -182 1242 -104 1242 l -243 1242 l -243 1149 l -179 1149 q -58 1142 -99 1149 q 24 1111 -18 1135 q 151 1024 67 1088 l 276 1024 q 104 1323 168 1235 q -16 1435 40 1411 q -179 1458 -72 1458 "},"ॅ":{"ha":0,"x_min":-514,"x_max":81,"o":"m -217 1133 q 5 1207 -71 1133 q 81 1392 81 1281 l -44 1392 q -88 1286 -44 1329 q -217 1243 -132 1243 q -344 1286 -301 1243 q -387 1392 -387 1329 l -514 1392 q -439 1206 -514 1279 q -217 1133 -364 1133 "},"ॉ":{"ha":419,"x_min":-87,"x_max":507,"o":"m 136 906 l 136 0 l 282 0 l 282 906 l 451 906 l 451 1028 l -33 1028 l -33 906 l 136 906 m 210 1133 q 431 1207 356 1133 q 507 1392 507 1281 l 382 1392 q 338 1286 382 1329 q 210 1243 294 1243 q 82 1286 125 1243 q 39 1392 39 1329 l -87 1392 q -12 1206 -87 1279 q 210 1133 63 1133 "},"क":{"ha":1369,"x_min":-33,"x_max":1401,"o":"m 764 906 l 1401 906 l 1401 1028 l -33 1028 l -33 906 l 624 906 l 624 638 q 532 731 592 696 q 389 765 472 765 q 233 726 301 765 q 128 614 165 686 q 90 446 90 542 q 127 276 90 349 q 231 163 164 203 q 383 122 297 122 q 531 158 469 122 q 624 254 592 194 l 624 0 l 764 0 l 764 433 q 810 579 764 518 q 949 640 857 640 q 1080 586 1028 640 q 1132 446 1132 532 q 1081 302 1132 354 q 953 250 1031 250 q 901 256 922 250 l 901 140 q 990 131 940 131 q 1139 169 1074 131 q 1242 278 1204 207 q 1279 449 1279 350 q 1243 612 1279 540 q 1142 724 1207 683 q 992 765 1076 765 q 852 730 910 765 q 764 635 794 694 l 764 906 m 431 244 q 292 299 346 244 q 238 444 238 353 q 293 587 238 533 q 431 640 349 640 q 574 581 524 640 q 624 443 624 522 q 602 349 624 394 q 537 274 581 303 q 431 244 493 244 "},"ख":{"ha":1307,"x_min":-33,"x_max":1340,"o":"m 1340 1028 l -33 1028 l -33 906 l 349 906 l 349 756 q 298 601 349 646 q 154 556 247 556 l 108 556 l 108 351 q 206 89 108 183 q 468 -6 303 -6 q 657 47 576 -6 q 781 183 738 99 q 831 179 806 179 q 948 206 899 179 q 1026 278 997 232 l 1026 0 l 1171 0 l 1171 906 l 1340 906 l 1340 1028 m 472 121 q 311 180 369 121 q 253 335 253 239 l 253 450 q 428 525 363 456 q 494 738 494 594 l 494 906 l 1026 906 l 1026 650 q 948 722 997 696 q 831 749 899 749 q 691 713 753 749 q 594 613 629 678 q 558 467 558 549 q 587 329 558 390 q 667 231 615 268 q 590 151 639 182 q 472 121 542 121 m 860 292 q 738 338 786 292 q 689 467 689 385 q 738 590 689 544 q 860 636 788 636 q 984 585 942 636 q 1026 464 1026 533 q 983 344 1026 396 q 860 292 940 292 "},"ग":{"ha":1064,"x_min":-33,"x_max":1096,"o":"m 1096 1028 l -33 1028 l -33 906 l 410 906 l 410 543 q 387 451 410 488 q 307 414 364 414 q 228 450 253 414 q 204 540 204 486 l 204 583 l 63 583 q 61 540 61 569 q 126 356 61 424 q 311 289 190 289 q 495 361 435 289 q 556 549 556 433 l 556 906 l 782 906 l 782 0 l 926 0 l 926 906 l 1096 906 l 1096 1028 "},"घ":{"ha":982,"x_min":-33,"x_max":1015,"o":"m 1015 906 l 1015 1028 l -33 1028 l -33 906 l 129 906 l 129 811 q 171 670 129 719 q 282 607 213 621 l 282 604 q 158 534 208 589 q 108 396 108 479 q 194 208 108 274 q 415 142 279 142 q 583 179 508 142 q 700 285 657 217 l 700 0 l 847 0 l 847 906 l 1015 906 m 700 906 l 700 499 q 667 375 700 429 q 576 291 633 321 q 449 261 518 261 q 309 299 363 261 q 256 410 256 338 q 300 510 256 472 q 435 549 344 549 l 508 549 l 508 667 l 446 667 q 315 705 356 667 q 275 818 275 743 l 275 906 l 700 906 "},"ङ":{"ha":933,"x_min":-33,"x_max":967,"o":"m 967 1028 l -33 1028 l -33 906 l 510 906 l 510 757 l 363 757 q 183 708 256 757 q 111 557 111 660 q 188 397 111 444 q 368 349 264 349 l 422 349 q 547 317 499 349 q 596 217 596 286 q 553 124 596 160 q 431 89 510 89 q 288 132 339 89 q 235 246 236 175 l 90 246 q 187 51 93 124 q 435 -22 281 -22 q 656 42 578 -22 q 733 215 733 107 q 651 396 733 339 q 449 453 569 453 l 386 453 q 293 476 329 453 q 257 553 257 500 q 299 631 257 608 q 403 653 340 653 l 651 653 l 651 906 l 967 906 l 967 1028 m 825 621 q 765 597 790 621 q 740 536 740 572 q 765 477 740 501 q 825 453 790 453 q 885 477 860 453 q 910 536 910 501 q 885 597 910 572 q 825 621 861 621 "},"च":{"ha":1028,"x_min":-33,"x_max":1061,"o":"m 1061 906 l 1061 1028 l -33 1028 l -33 906 l 746 906 l 746 493 q 685 322 746 390 q 528 253 625 254 q 388 300 444 253 q 332 429 332 347 q 385 560 332 510 q 525 611 439 611 l 576 611 l 576 726 l 69 726 l 69 611 l 300 611 q 222 525 249 578 q 194 406 194 472 q 233 259 194 321 q 338 165 272 197 q 486 132 404 132 q 638 167 571 132 q 746 265 706 203 l 746 0 l 892 0 l 892 906 l 1061 906 "},"छ":{"ha":1138,"x_min":-33,"x_max":1171,"o":"m 879 906 l 1171 906 l 1171 1028 l -33 1028 l -33 906 l 126 906 l 126 774 q 168 632 126 682 q 278 569 210 582 l 278 565 q 147 489 197 547 q 97 340 97 431 q 222 113 97 192 q 554 35 346 35 q 829 88 711 35 q 1011 238 947 140 q 1075 468 1075 336 q 1022 658 1075 585 q 879 753 968 732 l 879 906 m 744 906 l 744 753 q 610 678 661 736 q 560 521 560 621 q 583 383 560 447 l 704 383 q 682 506 682 450 q 720 615 682 578 q 811 651 758 651 q 906 604 867 651 q 946 474 946 557 q 840 243 946 326 q 556 160 733 160 q 326 210 407 160 q 244 354 244 260 q 292 466 244 422 q 436 510 340 510 l 463 510 l 463 628 l 433 628 q 310 666 349 628 q 271 779 271 704 l 271 906 l 744 906 "},"ज":{"ha":1175,"x_min":-33,"x_max":1208,"o":"m 1208 906 l 1208 1028 l -33 1028 l -33 906 l 893 906 l 893 689 l 518 689 l 518 461 q 481 342 518 386 q 378 297 443 297 q 278 342 314 297 q 242 461 242 386 l 242 689 l 94 689 l 94 458 q 169 249 94 328 q 376 169 243 169 q 583 249 507 169 q 660 458 660 329 l 660 564 l 893 564 l 893 0 l 1039 0 l 1039 906 l 1208 906 "},"झ":{"ha":1188,"x_min":-33,"x_max":1221,"o":"m 1221 906 l 1221 1028 l -33 1028 l -33 906 l 507 906 l 507 758 l 360 758 q 178 708 250 758 q 106 553 106 658 q 174 403 106 453 q 340 349 242 353 l 418 349 q 547 313 503 349 q 592 215 592 278 q 555 130 592 164 q 447 96 518 96 q 319 135 367 96 q 264 238 272 175 l 133 238 l 133 -110 l 271 -110 l 271 89 q 350 20 297 53 q 490 -12 403 -12 q 665 46 604 -12 q 726 197 726 104 q 675 343 726 285 l 908 342 l 908 0 l 1051 0 l 1051 906 l 1221 906 m 908 453 l 444 453 l 383 453 q 288 476 325 453 q 251 551 251 500 q 294 631 251 608 q 399 653 336 653 l 647 653 l 647 906 l 908 906 l 908 453 "},"ञ":{"ha":1135,"x_min":-33,"x_max":1168,"o":"m 1168 906 l 1168 1028 l -33 1028 l -33 906 l 853 906 l 853 507 l 715 507 q 613 695 696 624 q 401 767 531 767 q 185 697 267 767 q 90 517 103 626 l 228 517 q 287 606 242 569 q 403 643 332 643 q 540 584 492 643 q 589 439 589 525 q 540 292 589 351 q 403 233 492 233 q 288 269 333 233 q 228 360 243 306 l 90 360 q 138 232 99 289 q 245 142 178 175 q 401 110 313 110 q 617 185 535 110 q 717 383 700 260 l 853 383 l 853 0 l 999 0 l 999 906 l 1168 906 "},"ट":{"ha":901,"x_min":-33,"x_max":935,"o":"m 500 638 l 656 638 l 656 906 l 935 906 l 935 1028 l -33 1028 l -33 906 l 513 906 l 513 761 l 492 761 q 281 719 371 761 q 140 595 190 676 q 90 401 90 514 q 139 219 90 299 q 275 94 188 139 q 472 50 363 50 q 668 95 583 50 q 799 223 753 140 q 844 413 844 306 l 706 413 q 640 242 706 308 q 469 176 575 176 q 301 240 367 176 q 236 401 236 303 q 310 577 236 517 q 500 638 383 638 "},"ठ":{"ha":936,"x_min":-33,"x_max":969,"o":"m 539 906 l 969 906 l 969 1028 l -33 1028 l -33 906 l 394 906 l 394 754 q 176 641 261 732 q 90 410 90 550 q 140 226 90 306 q 275 102 189 146 q 468 58 361 58 q 662 102 575 58 q 798 226 749 146 q 847 410 847 306 q 760 642 847 551 q 539 754 674 733 l 539 906 m 703 410 q 638 245 703 310 q 468 181 572 181 q 348 210 401 181 q 265 292 294 239 q 235 410 235 344 q 300 573 235 510 q 468 636 365 636 q 638 573 572 636 q 703 410 703 510 "},"ड":{"ha":794,"x_min":-33,"x_max":826,"o":"m 403 653 l 644 653 l 644 906 l 826 906 l 826 1028 l -33 1028 l -33 906 l 504 906 l 504 757 l 363 757 q 183 708 256 757 q 111 557 111 660 q 188 397 111 444 q 368 349 264 349 l 422 349 q 547 317 499 349 q 596 217 596 286 q 553 124 596 160 q 431 89 510 89 q 288 132 339 89 q 235 246 236 175 l 90 246 q 187 51 93 124 q 435 -22 281 -22 q 656 42 578 -22 q 733 215 733 107 q 651 396 733 339 q 449 453 569 453 l 386 453 q 293 476 329 453 q 257 553 257 500 q 299 631 257 608 q 403 653 340 653 "},"ढ":{"ha":896,"x_min":-33,"x_max":929,"o":"m 542 665 l 682 665 l 682 906 l 929 906 l 929 1028 l -33 1028 l -33 906 l 544 906 l 544 768 l 497 768 q 288 725 379 768 q 143 597 196 682 q 90 389 90 511 q 146 185 90 272 q 299 51 201 97 q 517 4 396 4 q 769 78 676 4 q 861 279 861 153 q 796 445 861 382 q 621 508 731 508 q 461 457 524 508 q 399 317 399 406 q 403 271 399 294 l 510 271 q 506 297 506 282 q 538 374 506 344 q 615 403 569 403 q 702 368 668 403 q 736 279 736 333 q 675 157 736 203 q 519 111 614 111 q 365 146 431 111 q 265 243 300 181 q 231 385 231 306 q 317 593 231 521 q 542 665 403 665 "},"ण":{"ha":1204,"x_min":-33,"x_max":1238,"o":"m 1238 906 l 1238 1028 l -33 1028 l -33 906 l 122 906 l 122 525 q 194 319 122 399 q 399 239 267 239 q 604 318 532 239 q 676 525 676 397 l 676 906 l 922 906 l 922 0 l 1068 0 l 1068 906 l 1238 906 m 533 906 l 533 511 q 498 403 533 444 q 400 363 463 363 q 302 403 339 363 q 265 511 265 444 l 265 906 l 533 906 "},"त":{"ha":969,"x_min":-33,"x_max":1003,"o":"m 1003 906 l 1003 1028 l -33 1028 l -33 906 l 688 906 l 688 689 l 486 689 q 199 603 307 689 q 90 344 90 517 q 189 90 90 176 q 451 3 288 3 l 501 3 l 501 118 l 472 118 q 298 177 358 118 q 238 342 238 236 q 306 507 238 450 q 493 564 374 564 l 688 564 l 688 0 l 833 0 l 833 906 l 1003 906 "},"थ":{"ha":1075,"x_min":100,"x_max":1108,"o":"m 1108 1028 l 793 1028 l 793 542 q 754 387 793 453 q 649 287 715 321 q 503 253 583 253 q 310 317 376 253 q 240 489 243 382 l 292 489 q 555 563 458 489 q 651 775 651 636 q 618 913 651 853 q 525 1007 585 974 q 386 1040 465 1040 q 248 1009 310 1040 q 151 919 186 978 q 117 778 117 860 q 122 717 117 756 l 254 717 q 249 774 249 753 q 285 877 249 839 q 385 915 322 915 q 480 876 444 915 q 515 779 515 838 q 238 594 515 594 l 106 594 q 100 514 100 557 q 147 310 100 397 q 279 177 193 224 q 482 131 365 131 q 681 181 600 131 q 793 301 761 231 l 793 0 l 939 0 l 939 906 l 1108 906 l 1108 1028 "},"द":{"ha":847,"x_min":-33,"x_max":881,"o":"m 474 640 l 692 640 l 692 906 l 879 906 l 881 1028 l -33 1028 l -33 906 l 546 906 l 546 765 l 460 765 q 271 728 354 765 q 139 618 188 692 q 90 439 90 544 q 130 268 90 339 q 238 160 169 197 q 393 124 307 124 q 516 149 461 124 q 601 219 571 175 l 601 -29 l 744 -29 l 744 411 l 610 411 q 557 285 610 329 q 433 240 504 240 q 292 293 344 240 q 239 435 239 346 q 305 586 239 532 q 474 640 371 640 "},"ध":{"ha":997,"x_min":106,"x_max":1036,"o":"m 1036 906 l 1036 1028 l 724 1028 l 724 519 q 689 378 724 440 q 594 283 654 317 q 456 249 533 249 q 317 284 369 249 q 264 388 264 319 q 309 484 264 449 q 438 519 354 519 l 513 519 l 513 638 l 432 638 q 286 678 342 638 q 231 792 231 718 q 264 882 231 846 q 354 918 297 918 q 443 884 411 918 q 475 799 475 850 l 474 767 l 583 767 q 586 815 586 797 q 523 978 586 915 q 350 1040 460 1040 q 174 976 242 1040 q 106 807 106 911 q 156 654 106 713 q 282 578 207 596 l 282 574 q 165 510 215 563 q 115 372 115 457 q 201 192 115 256 q 421 128 288 128 q 602 169 524 128 q 724 282 681 210 l 724 0 l 869 0 l 869 906 l 1036 906 "},"न":{"ha":1110,"x_min":-33,"x_max":1143,"o":"m 1143 906 l 1143 1028 l -33 1028 l -33 906 l 828 906 l 828 697 l 385 697 q 230 665 299 697 q 122 569 161 632 q 82 419 82 507 q 120 274 82 336 q 225 177 158 211 q 372 143 292 143 q 513 174 450 143 q 613 263 576 204 q 649 401 649 322 q 586 575 649 503 l 828 575 l 828 0 l 974 0 l 974 906 l 1143 906 m 375 267 q 258 309 303 267 q 214 419 214 351 q 259 531 214 488 q 375 575 304 575 q 488 531 443 575 q 532 421 532 488 q 488 310 532 353 q 375 267 444 267 "},"प":{"ha":918,"x_min":-33,"x_max":951,"o":"m 951 906 l 951 1028 l -33 1028 l -33 906 l 111 906 l 111 607 q 188 353 111 447 q 413 258 265 258 q 546 286 489 258 q 638 364 603 314 l 638 0 l 782 0 l 782 906 l 951 906 m 638 906 l 638 582 q 588 440 638 497 q 449 382 538 382 q 304 442 351 382 q 257 607 257 501 l 257 906 l 638 906 "},"फ":{"ha":1368,"x_min":-33,"x_max":1401,"o":"m 757 906 l 1401 906 l 1401 1028 l -33 1028 l -33 906 l 111 906 l 111 600 q 185 351 111 443 q 400 258 260 258 q 524 285 471 258 q 611 361 578 313 l 611 0 l 757 0 l 757 418 q 806 576 757 511 q 949 640 854 640 q 1081 586 1029 640 q 1132 446 1132 532 q 1082 302 1132 356 q 954 249 1032 249 q 897 256 925 249 l 897 142 q 990 131 939 131 q 1140 169 1074 131 q 1242 280 1206 207 q 1279 453 1279 353 q 1243 614 1279 543 q 1142 725 1207 685 q 993 765 1076 765 q 849 730 910 765 q 757 635 789 694 l 757 906 m 611 906 l 611 575 q 565 438 611 493 q 435 382 518 382 q 301 440 346 382 q 257 600 257 497 l 257 906 l 611 906 "},"ब":{"ha":957,"x_min":-33,"x_max":989,"o":"m 989 1028 l -33 1028 l -33 906 l 681 906 l 681 650 q 576 744 642 708 q 425 779 511 779 q 254 738 331 779 q 134 621 178 696 q 90 447 90 546 q 135 273 90 349 q 256 156 179 197 q 428 114 333 114 q 581 149 515 114 q 681 243 646 185 l 681 0 l 821 0 l 821 906 l 989 906 l 989 1028 m 454 682 q 581 649 528 682 q 660 563 633 617 q 688 450 688 510 q 654 326 688 383 l 297 626 q 454 682 361 682 m 218 447 q 253 576 218 522 l 613 276 q 456 219 551 219 q 336 247 390 219 q 250 326 282 275 q 218 447 218 378 "},"भ":{"ha":1128,"x_min":97,"x_max":1161,"o":"m 1161 1028 l 844 1028 l 844 635 l 633 635 l 633 733 q 573 958 633 876 q 379 1040 513 1040 q 193 972 260 1040 q 126 792 126 904 q 132 736 126 769 l 278 736 q 272 786 272 760 q 303 881 272 846 q 385 915 335 915 q 469 874 442 915 q 497 758 497 832 l 497 635 l 379 635 q 176 568 256 635 q 97 381 97 501 q 172 194 97 265 q 368 124 246 124 q 565 201 496 124 q 633 419 633 278 l 633 515 l 844 515 l 844 0 l 990 0 l 990 906 l 1161 906 l 1161 1028 m 497 515 l 497 413 q 463 291 497 335 q 367 247 429 247 q 271 283 308 247 q 233 381 233 319 q 274 479 233 443 q 383 515 315 515 l 497 515 "},"म":{"ha":1115,"x_min":-33,"x_max":1147,"o":"m 1147 906 l 1147 1028 l -33 1028 l -33 906 l 464 906 l 464 635 l 344 635 q 142 568 221 635 q 64 381 64 501 q 138 194 64 265 q 333 124 211 124 q 531 201 463 124 q 600 419 600 278 l 600 515 l 832 515 l 832 0 l 978 0 l 978 906 l 1147 906 m 832 906 l 832 635 l 600 635 l 600 906 l 832 906 m 464 515 l 464 413 q 429 291 464 335 q 332 247 394 247 q 236 283 274 247 q 199 381 199 319 q 240 479 199 443 q 349 515 282 515 l 464 515 "},"य":{"ha":1032,"x_min":-33,"x_max":1065,"o":"m 1065 906 l 1065 1028 l -33 1028 l -33 906 l 349 906 l 349 819 q 290 656 349 707 q 113 606 232 606 l 94 606 q 90 535 90 571 q 187 249 90 354 q 460 143 283 143 q 635 180 561 143 q 750 278 708 217 l 750 0 l 896 0 l 896 906 l 1065 906 m 750 906 l 750 515 q 717 386 750 443 q 624 297 683 329 q 490 265 564 265 q 301 335 369 265 q 233 521 233 404 l 233 526 q 493 794 493 542 l 493 906 l 750 906 "},"र":{"ha":742,"x_min":-33,"x_max":775,"o":"m 250 454 l 303 454 q 544 542 467 454 q 622 790 622 629 l 622 906 l 775 906 l 775 1028 l -33 1028 l -33 906 l 478 906 l 478 790 q 251 574 478 574 l 107 574 l 107 288 q 180 70 107 153 q 390 -12 253 -12 q 591 65 518 -12 q 664 272 664 142 l 664 299 l 524 299 l 524 268 q 487 155 524 197 q 388 113 450 113 q 285 158 319 113 q 250 281 250 204 l 250 454 "},"ल":{"ha":1260,"x_min":-33,"x_max":1292,"o":"m 971 906 l 1292 906 l 1292 1028 l -33 1028 l -33 906 l 828 906 l 828 742 q 701 678 749 728 q 632 558 653 628 l 628 558 q 545 692 604 639 q 388 746 486 746 q 234 708 301 746 q 128 597 167 669 q 90 424 90 525 q 129 246 90 324 q 244 124 168 168 q 429 79 321 79 q 476 82 440 79 l 476 210 l 438 207 q 290 265 343 207 q 238 421 238 324 q 282 564 238 510 q 407 618 326 618 q 528 556 488 618 q 568 390 568 493 l 568 365 l 690 365 l 690 390 q 733 556 690 494 q 858 618 775 618 q 979 563 936 618 q 1022 421 1022 508 q 969 265 1022 324 q 822 207 917 207 l 783 210 l 783 82 q 831 79 819 79 q 1015 124 939 79 q 1131 246 1092 168 q 1169 424 1169 324 q 1116 625 1169 544 q 971 733 1063 706 l 971 906 "},"व":{"ha":933,"x_min":-33,"x_max":967,"o":"m 967 1028 l -33 1028 l -33 906 l 656 906 l 656 640 q 556 736 619 701 q 406 771 492 771 q 241 730 313 771 q 130 616 169 689 q 90 450 90 543 q 129 278 90 353 q 240 161 168 203 q 406 119 311 119 q 556 155 493 119 q 656 251 619 190 l 656 0 l 797 0 l 797 906 l 967 906 l 967 1028 m 443 236 q 292 293 351 236 q 233 446 233 350 q 293 596 233 539 q 443 653 353 653 q 560 623 513 653 q 632 545 608 593 q 656 444 656 497 l 656 443 q 632 344 656 392 q 560 267 608 297 q 443 236 513 236 "},"श":{"ha":1147,"x_min":115,"x_max":1181,"o":"m 263 431 l 367 431 q 623 510 524 431 q 722 742 722 590 q 641 962 722 883 q 425 1040 560 1040 q 267 1005 335 1040 q 164 905 200 969 q 128 756 128 840 q 133 694 128 736 l 278 694 q 275 751 275 733 q 315 870 275 826 q 425 914 356 914 q 535 870 494 914 q 575 751 575 826 q 502 603 575 651 q 315 554 429 554 l 115 554 l 115 304 q 196 74 115 160 q 422 -11 276 -11 q 631 66 554 -11 q 707 278 707 143 l 707 299 l 565 299 l 565 279 q 526 160 565 206 q 418 115 488 115 q 301 165 339 115 q 263 294 263 214 l 263 431 m 1181 1028 l 864 1028 l 864 0 l 1011 0 l 1011 906 l 1181 906 l 1181 1028 "},"ष":{"ha":931,"x_min":-33,"x_max":964,"o":"m 964 906 l 964 1028 l -33 1028 l -33 906 l 111 906 l 111 607 q 191 346 111 443 q 421 249 271 249 q 559 277 501 249 q 651 358 617 306 l 651 0 l 794 0 l 794 906 l 964 906 m 651 906 l 651 599 l 254 906 l 651 906 m 450 372 q 301 433 351 372 q 251 603 251 494 l 251 796 l 638 497 q 569 406 618 440 q 450 372 521 372 "},"स":{"ha":1142,"x_min":-33,"x_max":1175,"o":"m 1175 906 l 1175 1028 l -33 1028 l -33 906 l 454 906 l 454 789 q 398 629 454 688 q 228 571 342 571 l 107 571 l 107 289 q 181 71 107 154 q 393 -12 256 -12 q 597 61 522 -12 q 671 261 671 135 q 669 285 671 275 l 529 285 l 529 268 q 492 155 529 197 q 390 113 456 113 q 285 159 321 113 q 250 282 250 206 l 250 465 l 860 465 l 860 0 l 1004 0 l 1004 906 l 1175 906 m 860 906 l 860 585 l 532 585 q 599 789 599 665 l 599 906 l 860 906 "},"ह":{"ha":814,"x_min":-33,"x_max":846,"o":"m 406 657 l 656 657 l 656 906 l 846 906 l 846 1028 l -33 1028 l -33 906 l 517 906 l 517 763 l 356 763 q 192 717 253 763 q 131 586 131 671 q 160 486 131 528 q 239 419 189 444 q 134 315 171 381 q 97 164 97 249 q 136 3 97 74 q 249 -107 175 -67 q 425 -147 324 -147 q 581 -115 514 -147 q 689 -29 649 -83 q 739 92 729 25 l 600 92 q 540 8 586 43 q 425 -26 494 -26 q 290 26 339 -26 q 240 161 240 78 q 290 297 240 243 q 425 350 340 350 q 542 314 497 350 q 600 229 588 278 l 739 229 q 645 399 724 332 q 428 467 567 467 q 353 460 392 467 q 296 497 317 472 q 275 558 275 522 q 311 633 275 610 q 406 657 347 657 "},"ळ":{"ha":1371,"x_min":-33,"x_max":1403,"o":"m 1057 906 l 1403 906 l 1403 1028 l -33 1028 l -33 906 l 915 906 l 915 746 q 778 688 836 735 q 688 568 719 642 l 683 568 q 573 701 644 653 q 403 750 501 750 q 244 710 315 750 q 131 598 172 671 q 90 431 90 525 q 131 266 90 338 q 244 155 172 194 q 404 115 317 115 q 579 166 506 115 q 682 300 653 217 l 688 300 q 792 166 718 217 q 967 115 865 115 q 1126 155 1054 115 q 1240 266 1199 194 q 1281 431 1281 338 q 1219 629 1281 547 q 1057 739 1157 711 l 1057 906 m 424 240 q 286 292 340 240 q 232 429 232 344 q 285 571 232 517 q 424 625 339 625 q 561 571 508 625 q 614 431 614 517 q 561 293 614 346 q 424 240 508 240 m 1138 429 q 1084 292 1138 344 q 946 240 1031 240 q 809 293 861 240 q 757 431 757 346 q 810 571 757 517 q 947 625 863 625 q 1084 571 1031 625 q 1138 429 1138 517 "},"क़":{"ha":1369,"x_min":-33,"x_max":1401,"o":"m 764 906 l 1401 906 l 1401 1028 l -33 1028 l -33 906 l 624 906 l 624 638 q 532 731 592 696 q 389 765 472 765 q 233 726 301 765 q 128 614 165 686 q 90 446 90 542 q 127 276 90 349 q 231 163 164 203 q 383 122 297 122 q 531 158 469 122 q 624 254 592 194 l 624 0 l 764 0 l 764 433 q 810 579 764 518 q 949 640 857 640 q 1080 586 1028 640 q 1132 446 1132 532 q 1081 302 1132 354 q 953 250 1031 250 q 901 256 922 250 l 901 140 q 990 131 940 131 q 1139 169 1074 131 q 1242 278 1204 207 q 1279 449 1279 350 q 1243 612 1279 540 q 1142 724 1207 683 q 992 765 1076 765 q 852 730 910 765 q 764 635 794 694 l 764 906 m 431 244 q 292 299 346 244 q 238 444 238 353 q 293 587 238 533 q 431 640 349 640 q 574 581 524 640 q 624 443 624 522 q 602 349 624 394 q 537 274 581 303 q 431 244 493 244 m 361 -164 q 428 -138 401 -164 q 454 -74 454 -112 q 427 -8 454 -35 q 361 19 400 19 q 296 -8 322 19 q 269 -74 269 -35 q 296 -138 269 -112 q 361 -164 322 -164 "},"ख़":{"ha":1307,"x_min":-33,"x_max":1340,"o":"m 1340 1028 l -33 1028 l -33 906 l 349 906 l 349 756 q 298 601 349 646 q 154 556 247 556 l 108 556 l 108 351 q 206 89 108 183 q 468 -6 303 -6 q 657 47 576 -6 q 781 183 738 99 q 831 179 806 179 q 948 206 899 179 q 1026 278 997 232 l 1026 0 l 1171 0 l 1171 906 l 1340 906 l 1340 1028 m 472 121 q 311 180 369 121 q 253 335 253 239 l 253 450 q 428 525 363 456 q 494 738 494 594 l 494 906 l 1026 906 l 1026 650 q 948 722 997 696 q 831 749 899 749 q 691 713 753 749 q 594 613 629 678 q 558 467 558 549 q 587 329 558 390 q 667 231 615 268 q 590 151 639 182 q 472 121 542 121 m 860 292 q 738 338 786 292 q 689 467 689 385 q 738 590 689 544 q 860 636 788 636 q 984 585 942 636 q 1026 464 1026 533 q 983 344 1026 396 q 860 292 940 292 m 442 -287 q 508 -262 482 -287 q 535 -197 535 -236 q 508 -131 535 -158 q 442 -104 481 -104 q 376 -131 403 -104 q 350 -197 350 -158 q 376 -262 350 -236 q 442 -287 403 -287 "},"ग़":{"ha":1063,"x_min":-33,"x_max":1096,"o":"m 1096 1028 l -33 1028 l -33 906 l 410 906 l 410 543 q 387 451 410 488 q 307 414 364 414 q 228 450 253 414 q 204 540 204 486 l 204 583 l 63 583 q 61 540 61 569 q 126 356 61 424 q 311 289 190 289 q 495 361 435 289 q 556 549 556 433 l 556 906 l 782 906 l 782 0 l 926 0 l 926 906 l 1096 906 l 1096 1028 m 315 -1 q 382 24 356 -1 q 408 89 408 50 q 381 155 408 128 q 315 182 354 182 q 250 155 276 182 q 224 89 224 128 q 250 24 224 50 q 315 -1 276 -1 "},"ज़":{"ha":1175,"x_min":-33,"x_max":1208,"o":"m 1208 906 l 1208 1028 l -33 1028 l -33 906 l 893 906 l 893 689 l 518 689 l 518 461 q 481 342 518 386 q 378 297 443 297 q 278 342 314 297 q 242 461 242 386 l 242 689 l 94 689 l 94 458 q 169 249 94 328 q 376 169 243 169 q 583 249 507 169 q 660 458 660 329 l 660 564 l 893 564 l 893 0 l 1039 0 l 1039 906 l 1208 906 m 381 -115 q 447 -90 421 -115 q 474 -25 474 -64 q 447 41 474 14 q 381 68 419 68 q 315 41 342 68 q 289 -25 289 14 q 315 -90 289 -64 q 381 -115 342 -115 "},"ड़":{"ha":794,"x_min":-33,"x_max":826,"o":"m 403 653 l 644 653 l 644 906 l 826 906 l 826 1028 l -33 1028 l -33 906 l 504 906 l 504 757 l 363 757 q 183 708 256 757 q 111 557 111 660 q 188 397 111 444 q 368 349 264 349 l 422 349 q 547 317 499 349 q 596 217 596 286 q 553 124 596 160 q 431 89 510 89 q 288 132 339 89 q 235 246 236 175 l 90 246 q 187 51 93 124 q 435 -22 281 -22 q 656 42 578 -22 q 733 215 733 107 q 651 396 733 339 q 449 453 569 453 l 386 453 q 293 476 329 453 q 257 553 257 500 q 299 631 257 608 q 403 653 340 653 m 429 -307 q 496 -281 469 -307 q 522 -217 522 -256 q 495 -151 522 -178 q 429 -124 468 -124 q 364 -151 390 -124 q 338 -217 338 -178 q 364 -281 338 -256 q 429 -307 390 -307 "},"ढ़":{"ha":896,"x_min":-33,"x_max":929,"o":"m 542 665 l 682 665 l 682 906 l 929 906 l 929 1028 l -33 1028 l -33 906 l 544 906 l 544 768 l 497 768 q 288 725 379 768 q 143 597 196 682 q 90 389 90 511 q 146 185 90 272 q 299 51 201 97 q 517 4 396 4 q 769 78 676 4 q 861 279 861 153 q 796 445 861 382 q 621 508 731 508 q 461 457 524 508 q 399 317 399 406 q 403 271 399 294 l 510 271 q 506 297 506 282 q 538 374 506 344 q 615 403 569 403 q 702 368 668 403 q 736 279 736 333 q 675 157 736 203 q 519 111 614 111 q 365 146 431 111 q 265 243 300 181 q 231 385 231 306 q 317 593 231 521 q 542 665 403 665 m 485 -279 q 551 -253 525 -279 q 578 -189 578 -228 q 551 -123 578 -150 q 485 -96 524 -96 q 419 -123 446 -96 q 393 -189 393 -150 q 419 -253 393 -228 q 485 -279 446 -279 "},"फ़":{"ha":1368,"x_min":-33,"x_max":1401,"o":"m 757 906 l 1401 906 l 1401 1028 l -33 1028 l -33 906 l 111 906 l 111 600 q 185 351 111 443 q 400 258 260 258 q 524 285 471 258 q 611 361 578 313 l 611 0 l 757 0 l 757 418 q 806 576 757 511 q 949 640 854 640 q 1081 586 1029 640 q 1132 446 1132 532 q 1082 302 1132 356 q 954 249 1032 249 q 897 256 925 249 l 897 142 q 990 131 939 131 q 1140 169 1074 131 q 1242 280 1206 207 q 1279 453 1279 353 q 1243 614 1279 543 q 1142 725 1207 685 q 993 765 1076 765 q 849 730 910 765 q 757 635 789 694 l 757 906 m 611 906 l 611 575 q 565 438 611 493 q 435 382 518 382 q 301 440 346 382 q 257 600 257 497 l 257 906 l 611 906 m 347 -21 q 414 5 388 -21 q 440 69 440 31 q 413 135 440 108 q 347 163 386 163 q 282 135 308 163 q 256 69 256 108 q 282 5 256 31 q 347 -21 308 -21 "},"ऱ":{"ha":742,"x_min":-33,"x_max":775,"o":"m 250 454 l 303 454 q 544 542 467 454 q 622 790 622 629 l 622 906 l 775 906 l 775 1028 l -33 1028 l -33 906 l 478 906 l 478 790 q 251 574 478 574 l 107 574 l 107 288 q 180 70 107 153 q 390 -12 253 -12 q 591 65 518 -12 q 664 272 664 142 l 664 299 l 524 299 l 524 268 q 487 155 524 197 q 388 113 450 113 q 285 158 319 113 q 250 281 250 204 l 250 454 m 157 -243 q 224 -217 197 -243 q 250 -153 250 -192 q 223 -87 250 -114 q 157 -60 196 -60 q 92 -87 118 -60 q 65 -153 65 -114 q 92 -217 65 -192 q 157 -243 118 -243 "},"ं":{"ha":0,"x_min":-303,"x_max":-118,"o":"m -210 1151 q -144 1178 -171 1151 q -118 1243 -118 1204 q -144 1308 -118 1282 q -210 1335 -171 1335 q -276 1308 -249 1335 q -303 1243 -303 1282 q -276 1178 -303 1204 q -210 1151 -249 1151 "},"ँ":{"ha":0,"x_min":-514,"x_max":81,"o":"m -217 1365 q -170 1384 -189 1365 q -151 1431 -151 1403 q -170 1477 -151 1458 q -217 1496 -189 1496 q -263 1477 -244 1496 q -282 1431 -282 1458 q -263 1385 -282 1404 q -217 1365 -244 1365 m -217 1133 q 3 1206 -74 1133 q 81 1392 81 1278 l -37 1392 q -85 1284 -37 1329 q -217 1239 -132 1239 q -349 1284 -301 1239 q -396 1392 -396 1329 l -514 1392 q -437 1206 -514 1278 q -217 1133 -360 1133 "},"ः":{"ha":342,"x_min":78,"x_max":264,"o":"m 171 582 q 237 608 210 582 q 264 674 264 635 q 237 739 264 713 q 171 765 210 765 q 105 739 132 765 q 78 674 78 713 q 105 608 78 635 q 171 582 132 582 m 171 165 q 237 192 210 165 q 264 257 264 218 q 237 322 264 296 q 171 349 210 349 q 105 322 132 349 q 78 257 78 296 q 105 192 78 218 q 171 165 132 165 "},"ऽ":{"ha":808,"x_min":97,"x_max":689,"o":"m 97 203 l 97 79 l 458 79 q 617 129 560 79 q 674 260 674 179 q 645 372 674 319 q 576 464 617 424 q 471 557 535 504 q 363 656 397 618 q 329 736 329 694 q 357 794 329 778 q 432 810 385 810 l 689 810 l 689 933 l 397 933 q 240 890 300 933 q 181 757 181 846 q 210 643 181 696 q 280 550 239 590 q 386 456 321 510 q 493 358 460 396 q 526 281 526 321 q 499 224 526 246 q 422 203 472 203 l 97 203 "},"्":{"ha":0,"x_min":-278,"x_max":44,"o":"m -278 -82 l -106 -368 l 44 -368 l -132 -82 l -278 -82 "},"़":{"ha":0,"x_min":-560,"x_max":-375,"o":"m -468 -251 q -401 -226 -428 -251 q -375 -161 -375 -200 q -402 -95 -375 -122 q -468 -68 -429 -68 q -533 -95 -507 -68 q -560 -161 -560 -122 q -533 -226 -560 -200 q -468 -251 -507 -251 "},"०":{"ha":890,"x_min":83,"x_max":806,"o":"m 444 1013 q 724 878 643 1013 q 806 508 806 743 q 724 138 806 272 q 444 3 643 3 q 165 138 246 3 q 83 508 83 272 q 165 878 83 743 q 444 1013 246 1013 m 444 868 q 313 819 357 868 q 253 694 268 771 q 239 508 239 618 q 253 321 239 397 q 313 196 268 244 q 444 147 357 147 q 576 196 532 147 q 635 321 621 244 q 650 508 650 397 q 635 694 650 618 q 576 819 621 771 q 444 868 532 868 "},"१":{"ha":486,"x_min":63,"x_max":351,"o":"m 63 842 l 192 842 l 192 0 l 351 0 l 351 986 l 63 986 l 63 842 "},"२":{"ha":801,"x_min":69,"x_max":746,"o":"m 174 218 l 71 129 l 71 14 l 746 14 l 746 146 l 306 146 l 369 203 q 547 371 478 299 q 667 533 617 443 q 718 719 718 624 q 680 875 718 807 q 569 981 642 943 q 396 1018 497 1018 q 165 934 256 1018 q 69 692 74 850 l 222 692 q 270 831 225 779 q 397 883 315 883 q 522 838 482 883 q 561 713 561 792 q 510 558 561 636 q 383 406 460 479 q 174 218 307 332 "},"३":{"ha":825,"x_min":67,"x_max":742,"o":"m 81 763 l 235 763 q 286 860 243 821 q 407 900 329 900 q 529 860 486 900 q 572 754 572 821 q 513 640 572 676 q 342 603 454 604 l 304 603 l 304 472 l 340 472 q 530 431 468 472 q 592 293 592 390 q 546 173 592 219 q 415 126 500 126 q 276 173 328 126 q 219 293 225 219 l 67 293 q 170 72 74 149 q 417 -6 267 -6 q 593 31 519 -6 q 704 132 667 68 q 742 278 742 196 q 696 447 742 381 q 568 538 650 513 l 568 543 q 678 625 632 564 q 724 772 724 686 q 688 907 724 847 q 581 1001 651 967 q 413 1036 510 1036 q 180 964 271 1036 q 81 763 89 892 "},"४":{"ha":899,"x_min":64,"x_max":851,"o":"m 64 211 l 567 211 l 567 0 l 722 0 l 722 211 l 851 211 l 851 349 l 722 349 l 722 1000 l 531 1000 l 64 331 l 64 211 m 574 839 l 574 349 l 246 349 l 574 839 "},"५":{"ha":888,"x_min":103,"x_max":806,"o":"m 736 876 l 736 1015 l 125 1015 l 125 431 l 275 431 q 342 523 296 489 q 457 557 389 557 q 604 503 554 557 q 654 350 654 450 q 605 192 654 251 q 457 132 556 132 q 325 170 378 132 q 257 274 272 208 l 103 274 q 213 75 121 150 q 456 0 304 0 q 648 46 569 0 q 766 172 726 92 q 806 354 806 251 q 774 515 806 439 q 670 642 743 592 q 481 692 597 692 q 358 665 415 692 q 271 600 300 639 l 271 876 l 736 876 "},"६":{"ha":892,"x_min":103,"x_max":806,"o":"m 628 778 l 774 778 q 680 963 760 888 q 461 1038 600 1038 q 103 529 103 1038 q 135 242 103 357 q 249 63 168 126 q 474 0 331 0 q 654 44 579 0 q 767 164 729 88 q 806 338 806 240 q 766 517 806 442 q 656 631 726 592 q 494 671 586 671 q 344 638 414 671 q 239 543 275 604 q 296 822 242 738 q 460 906 350 906 q 572 874 532 906 q 628 778 613 842 m 460 538 q 605 481 556 538 q 654 331 654 425 q 603 186 654 240 q 465 132 553 132 q 312 188 367 132 q 257 340 257 244 q 316 487 257 436 q 460 538 375 538 "},"७":{"ha":778,"x_min":56,"x_max":725,"o":"m 725 890 l 725 1008 l 56 1008 l 56 876 l 569 876 l 165 0 l 339 0 l 725 890 "},"८":{"ha":886,"x_min":85,"x_max":803,"o":"m 254 543 q 131 447 176 514 q 85 286 85 381 q 131 122 85 192 q 258 13 176 51 q 443 -25 339 -25 q 629 13 547 -25 q 757 122 711 51 q 803 286 803 192 q 757 446 803 379 q 632 543 711 513 q 737 634 697 575 q 776 771 776 693 q 739 908 776 846 q 626 1008 701 971 q 443 1044 550 1044 q 260 1008 335 1044 q 147 908 185 971 q 110 771 110 846 q 254 543 110 615 m 443 913 q 576 871 528 913 q 625 751 625 829 q 574 638 625 682 q 443 593 522 593 q 313 637 364 593 q 263 750 263 681 q 311 871 263 829 q 443 913 360 913 m 443 474 q 592 426 536 474 q 647 292 647 379 q 592 158 647 210 q 443 107 538 107 q 292 158 347 107 q 236 292 236 208 q 294 428 236 382 q 443 474 351 474 "},"९":{"ha":882,"x_min":107,"x_max":792,"o":"m 281 275 l 135 275 q 225 79 144 157 q 454 1 306 1 q 658 60 585 1 q 762 232 732 118 q 792 525 792 346 q 712 910 792 785 q 443 1036 632 1036 q 197 945 286 1036 q 107 701 107 854 q 149 524 107 597 q 265 415 192 451 q 429 378 339 378 q 560 403 500 378 q 654 476 621 429 q 608 211 654 289 q 464 133 563 133 q 340 169 386 133 q 281 275 294 206 m 457 511 q 308 566 357 511 q 258 706 258 621 q 309 849 258 794 q 447 904 360 904 q 585 851 535 904 q 636 701 636 797 q 588 563 636 615 q 457 511 540 511 "},"ॐ":{"ha":1474,"x_min":106,"x_max":1360,"o":"m 794 1258 q 841 1277 822 1258 q 860 1324 860 1296 q 841 1371 860 1351 q 794 1390 822 1390 q 748 1371 767 1390 q 729 1324 729 1351 q 748 1277 729 1296 q 794 1258 767 1258 m 794 1026 q 1015 1098 938 1026 q 1092 1285 1092 1169 l 974 1285 q 926 1177 974 1222 q 794 1132 879 1132 q 661 1177 708 1132 q 614 1285 614 1222 l 497 1285 q 574 1098 497 1169 q 794 1026 650 1026 m 1079 951 q 872 878 935 951 q 808 669 808 806 q 771 549 808 583 q 656 515 733 515 l 574 515 q 526 531 560 522 l 526 535 q 648 614 606 556 q 690 756 690 672 q 612 941 690 871 q 407 1011 533 1011 q 256 978 322 1011 q 152 886 189 946 q 115 747 115 826 l 251 747 q 295 849 251 811 q 406 888 339 888 q 513 847 469 888 q 557 736 557 806 q 515 633 557 676 q 394 590 472 590 l 338 590 l 338 467 l 394 467 q 527 419 483 467 q 571 306 571 371 q 527 187 571 232 q 410 142 483 142 q 290 187 336 142 q 243 301 243 232 l 106 301 q 144 152 106 217 q 255 52 183 88 q 418 17 326 17 q 626 92 547 17 q 706 292 706 167 q 685 401 706 350 q 884 464 824 403 q 944 668 944 525 q 976 785 944 742 q 1079 828 1008 828 q 1186 776 1154 828 q 1218 626 1218 725 l 1218 429 q 1164 224 1218 292 q 975 156 1110 156 q 863 167 929 156 l 863 44 q 1000 31 946 31 q 1272 130 1183 31 q 1360 425 1360 229 l 1360 608 q 1294 865 1360 778 q 1079 951 1228 951 "},"॰":{"ha":678,"x_min":107,"x_max":572,"o":"m 342 706 q 173 642 239 706 q 107 479 107 579 q 137 363 107 414 q 220 282 167 311 q 342 253 274 253 q 508 316 443 253 q 572 478 572 379 q 508 642 572 579 q 342 706 444 706 m 342 617 q 440 578 401 617 q 479 478 479 539 q 441 380 479 418 q 342 342 403 342 q 238 381 279 342 q 197 479 197 419 q 238 578 197 539 q 342 617 279 617 "},"।":{"ha":417,"x_min":214,"x_max":358,"o":"m 358 0 l 358 1029 l 214 1029 l 214 0 l 358 0 "},"॥":{"ha":735,"x_min":214,"x_max":675,"o":"m 358 0 l 358 1029 l 214 1029 l 214 0 l 358 0 m 675 0 l 675 1029 l 531 1029 l 531 0 l 675 0 "},"₨":{"ha":1593,"x_min":104,"x_max":1469,"o":"m 779 678 q 741 824 779 758 q 626 927 703 889 q 438 965 549 965 l 104 965 l 104 0 l 263 0 l 263 392 l 360 392 l 601 0 l 794 0 l 539 401 q 720 503 661 425 q 779 678 779 581 m 263 515 l 263 842 l 438 842 q 572 799 528 842 q 617 678 617 756 q 572 558 617 601 q 438 515 528 515 l 263 515 m 1022 551 q 1058 624 1022 596 q 1158 653 1094 653 q 1258 621 1222 653 q 1297 532 1293 589 l 1460 532 q 1376 712 1454 646 q 1169 778 1297 778 q 1008 747 1076 778 q 903 663 939 715 q 867 546 867 610 q 903 433 867 475 q 992 373 940 392 q 1126 335 1043 354 q 1228 309 1190 321 q 1290 275 1265 297 q 1314 215 1314 253 q 1276 141 1314 169 q 1171 113 1238 113 q 1071 144 1108 113 q 1029 233 1033 176 l 865 233 q 956 51 874 115 q 1171 -12 1038 -12 q 1325 16 1257 -12 q 1431 96 1393 44 q 1469 213 1469 147 q 1432 331 1469 288 q 1342 394 1394 375 q 1206 433 1290 414 q 1106 459 1143 447 q 1046 493 1069 471 q 1022 551 1022 515 "},"₹":{"ha":864,"x_min":64,"x_max":819,"o":"m 658 747 l 658 851 l 819 851 l 819 967 l 64 967 l 64 851 l 510 851 l 510 747 l 510 728 l 64 728 l 64 614 l 503 614 q 456 519 492 549 q 349 481 421 490 q 122 472 276 472 l 122 282 q 197 64 122 142 q 411 -14 271 -14 q 626 58 551 -14 q 701 269 700 129 l 556 269 q 414 110 556 110 q 303 154 336 110 q 271 275 271 199 l 271 363 q 472 387 394 363 q 592 466 550 411 q 650 614 635 521 l 819 614 l 819 728 l 658 728 l 658 747 "},"‌":{"ha":0,"x_min":-32,"x_max":33,"o":"m -32 -319 l 33 -319 l 33 1126 l -32 1126 l -32 -319 "},"‍":{"ha":0,"x_min":-178,"x_max":178,"o":"m 132 778 l 178 824 l 44 956 l 178 1089 l 133 1133 l 0 1001 l -132 1133 l -178 1088 l -46 956 l -175 826 l -129 781 l -33 882 l -33 -319 l 32 -319 l 32 882 l 132 778 "},"◌":{"ha":904,"x_min":69,"x_max":835,"o":"m 478 692 q 461 734 478 718 q 418 750 444 750 q 375 734 392 750 q 358 692 358 718 q 375 649 358 665 q 418 633 392 633 q 461 649 444 633 q 478 692 478 665 m 646 671 q 629 713 646 697 q 586 729 613 729 q 543 713 560 729 q 526 671 526 697 q 543 628 526 644 q 586 613 560 613 q 629 628 613 613 q 646 671 646 644 m 315 633 q 299 676 315 660 q 256 692 282 692 q 213 676 229 692 q 196 633 196 660 q 213 591 196 607 q 256 575 229 575 q 299 591 282 575 q 315 633 315 607 m 774 568 q 757 610 774 594 q 714 626 740 626 q 671 610 688 626 q 654 568 654 594 q 671 526 654 542 q 714 510 688 510 q 757 526 740 510 q 774 568 774 542 m 210 496 q 193 538 210 522 q 150 554 176 554 q 107 538 124 554 q 90 496 90 522 q 107 453 90 469 q 150 438 124 438 q 193 453 176 438 q 210 496 210 469 m 835 410 q 818 452 835 436 q 775 468 801 468 q 732 452 749 468 q 715 410 715 436 q 732 367 715 383 q 775 351 749 351 q 818 367 801 351 q 835 410 835 383 m 189 328 q 172 370 189 354 q 129 386 156 386 q 86 370 103 386 q 69 328 69 354 q 86 285 69 301 q 129 269 103 269 q 172 285 156 269 q 189 328 189 301 m 821 243 q 804 285 821 269 q 761 301 788 301 q 718 285 735 301 q 701 243 701 269 q 718 201 701 217 q 761 185 735 185 q 804 201 788 185 q 821 243 821 217 m 251 171 q 235 213 251 197 q 192 229 218 229 q 149 213 165 229 q 132 171 132 197 q 149 128 132 144 q 192 113 165 113 q 235 128 218 113 q 251 171 251 144 m 719 110 q 703 152 719 136 q 660 168 686 168 q 617 152 633 168 q 600 110 600 136 q 617 67 600 83 q 660 51 633 51 q 703 67 686 51 q 719 110 719 83 m 388 65 q 371 108 388 92 q 328 124 354 124 q 285 108 301 124 q 268 65 268 92 q 285 23 268 39 q 328 7 301 7 q 371 23 354 7 q 388 65 388 39 m 560 46 q 543 88 560 72 q 500 104 526 104 q 457 88 474 104 q 440 46 440 72 q 457 3 440 19 q 500 -12 474 -12 q 543 3 526 -12 q 560 46 560 19 "},"!":{"ha":446,"x_min":122,"x_max":324,"o":"m 303 965 l 135 965 l 153 292 l 285 292 l 303 965 m 224 -10 q 294 19 265 -10 q 324 92 324 49 q 294 164 324 135 q 224 193 265 193 q 151 164 181 193 q 122 92 122 135 q 151 19 122 49 q 224 -10 181 -10 "},"\"":{"ha":449,"x_min":47,"x_max":400,"o":"m 190 1107 l 47 1107 l 65 822 l 174 822 l 190 1107 m 400 1107 l 257 1107 l 275 822 l 383 822 l 400 1107 "},"#":{"ha":1211,"x_min":43,"x_max":1128,"o":"m 914 636 l 1128 636 l 1128 775 l 943 775 l 997 1028 l 846 1028 l 792 775 l 519 775 l 574 1028 l 422 1028 l 368 775 l 125 775 l 125 636 l 339 636 l 288 396 l 43 396 l 43 257 l 258 257 l 203 0 l 354 0 l 410 257 l 682 257 l 626 0 l 778 0 l 833 257 l 1046 257 l 1046 396 l 863 396 l 914 636 m 763 636 l 711 396 l 439 396 l 490 636 l 763 636 "},"$":{"ha":903,"x_min":83,"x_max":756,"o":"m 756 275 q 714 420 756 367 q 614 497 672 474 q 460 543 556 521 l 460 843 q 541 797 510 832 q 576 718 572 763 l 746 718 q 660 901 736 835 q 460 976 585 967 l 460 1089 l 381 1089 l 381 976 q 165 890 247 965 q 83 697 83 815 q 125 552 83 606 q 226 474 167 499 q 381 426 285 450 l 381 121 q 289 166 321 131 q 253 257 257 201 l 83 257 q 165 72 83 142 q 381 -8 247 1 l 381 -121 l 460 -121 l 460 -8 q 619 41 551 0 q 721 144 686 82 q 756 275 756 206 m 244 706 q 281 803 244 768 q 381 847 318 839 l 381 564 q 280 615 315 583 q 244 706 244 647 m 460 121 l 460 406 q 560 354 525 386 q 596 267 596 322 q 560 170 596 210 q 460 121 524 131 "},"%":{"ha":1003,"x_min":57,"x_max":946,"o":"m 57 768 q 116 612 57 669 q 268 554 175 554 q 420 612 361 554 q 479 768 479 669 q 420 924 479 867 q 268 981 361 981 q 116 924 175 981 q 57 768 57 867 m 856 967 l 700 967 l 146 0 l 301 0 l 856 967 m 268 885 q 333 856 310 885 q 356 768 356 828 q 333 679 356 708 q 268 650 310 650 q 181 768 181 650 q 268 885 181 885 m 525 200 q 584 44 525 101 q 736 -14 643 -14 q 887 44 828 -14 q 946 200 946 101 q 887 356 946 299 q 736 413 828 413 q 584 356 643 413 q 525 200 525 299 m 735 317 q 799 288 776 317 q 822 200 822 260 q 799 112 822 140 q 735 83 776 83 q 670 112 693 83 q 647 200 647 140 q 670 288 647 260 q 735 317 693 317 "},"&":{"ha":940,"x_min":50,"x_max":925,"o":"m 736 0 l 925 0 l 418 669 q 376 736 388 708 q 365 793 365 764 q 394 865 365 836 q 467 894 422 894 q 542 865 513 894 q 571 792 571 836 q 560 736 571 761 l 715 736 q 728 807 728 768 q 697 915 728 864 q 606 997 665 965 q 467 1028 547 1028 q 327 995 386 1028 q 238 910 268 963 q 207 796 207 857 q 230 694 207 744 q 300 581 253 643 l 308 569 q 178 528 238 565 q 85 426 119 490 q 50 282 50 361 q 89 131 50 199 q 194 26 128 64 q 342 -11 261 -11 q 507 40 433 -11 q 610 171 581 92 l 736 0 m 343 119 q 235 167 279 119 q 190 283 190 214 q 234 399 190 351 q 343 446 278 446 q 452 399 407 446 q 497 283 497 351 q 452 167 497 215 q 343 119 407 119 "},"'":{"ha":239,"x_min":47,"x_max":190,"o":"m 190 1107 l 47 1107 l 65 822 l 174 822 l 190 1107 "},"(":{"ha":747,"x_min":176,"x_max":710,"o":"m 546 -257 l 710 -257 l 710 -242 q 425 119 519 -89 q 331 560 331 326 q 425 999 331 792 q 710 1358 519 1207 l 710 1374 l 546 1374 q 353 1169 436 1293 q 223 888 269 1044 q 176 560 176 731 q 223 231 176 388 q 353 -51 269 74 q 546 -257 436 -175 "},")":{"ha":749,"x_min":38,"x_max":572,"o":"m 201 1374 l 38 1374 l 38 1358 q 324 999 229 1207 q 418 560 418 792 q 324 119 418 326 q 38 -242 229 -89 l 38 -257 l 201 -257 q 395 -51 311 -175 q 526 231 479 74 q 572 560 572 388 q 526 888 572 731 q 395 1169 479 1044 q 201 1374 311 1293 "},"*":{"ha":700,"x_min":88,"x_max":607,"o":"m 544 943 l 385 819 l 415 1022 l 286 1022 l 314 819 l 151 944 l 88 831 l 276 763 l 88 692 l 154 574 l 313 701 l 286 500 l 414 500 l 385 701 l 543 576 l 607 690 l 417 761 l 607 832 l 544 943 "},"+":{"ha":992,"x_min":142,"x_max":850,"o":"m 850 431 l 850 572 l 571 572 l 571 856 l 421 856 l 421 572 l 142 572 l 142 431 l 421 431 l 421 147 l 571 147 l 571 431 l 850 431 "},",":{"ha":313,"x_min":7,"x_max":278,"o":"m 278 190 l 106 190 l 7 -193 l 110 -193 l 278 190 "},"-":{"ha":813,"x_min":121,"x_max":692,"o":"m 692 569 l 121 569 l 121 436 l 692 436 l 692 569 "},".":{"ha":335,"x_min":67,"x_max":268,"o":"m 168 -10 q 239 19 210 -10 q 268 92 268 49 q 239 164 268 135 q 168 193 210 193 q 96 164 125 193 q 67 92 67 135 q 96 19 67 49 q 168 -10 125 -10 "},"/":{"ha":714,"x_min":85,"x_max":618,"o":"m 618 1311 l 461 1311 l 85 -243 l 240 -243 l 618 1311 "},":":{"ha":340,"x_min":67,"x_max":268,"o":"m 168 -10 q 239 19 210 -10 q 268 92 268 49 q 239 164 268 135 q 168 193 210 193 q 96 164 125 193 q 67 92 67 135 q 96 19 67 49 q 168 -10 125 -10 m 168 574 q 239 603 210 574 q 268 675 268 632 q 239 747 268 718 q 168 776 210 776 q 96 747 125 776 q 67 675 67 718 q 96 603 67 632 q 168 574 125 574 "},";":{"ha":422,"x_min":44,"x_max":315,"o":"m 199 574 q 269 603 240 574 q 299 675 299 632 q 269 747 299 718 q 199 776 240 776 q 126 747 156 776 q 97 675 97 718 q 126 603 97 632 q 199 574 156 574 m 315 190 l 143 190 l 44 -193 l 147 -193 l 315 190 "},"<":{"ha":850,"x_min":136,"x_max":656,"o":"m 456 186 l 656 186 l 335 501 l 656 817 l 456 817 l 136 501 l 456 186 "},"=":{"ha":1075,"x_min":168,"x_max":907,"o":"m 907 729 l 168 729 l 168 589 l 907 589 l 907 729 m 907 414 l 168 414 l 168 274 l 907 274 l 907 414 "},">":{"ha":819,"x_min":156,"x_max":675,"o":"m 156 817 l 476 501 l 156 186 l 356 186 l 675 501 l 356 817 l 156 817 "},"?":{"ha":747,"x_min":56,"x_max":676,"o":"m 364 979 q 201 943 271 979 q 93 842 131 907 q 56 693 56 776 l 204 693 q 247 806 204 765 q 365 846 290 846 q 483 804 440 846 q 525 689 525 763 q 453 551 525 588 q 247 515 382 515 l 201 515 l 208 297 l 346 297 l 351 407 q 588 478 499 407 q 676 689 676 549 q 591 901 676 824 q 364 979 506 979 m 275 -10 q 346 19 317 -10 q 375 92 375 49 q 346 164 375 135 q 275 193 317 193 q 203 164 232 193 q 174 92 174 135 q 203 19 174 49 q 275 -10 232 -10 "},"@":{"ha":1656,"x_min":68,"x_max":1588,"o":"m 929 1101 q 490 997 688 1101 q 181 709 293 893 q 68 296 68 525 q 157 -49 68 97 q 405 -273 246 -194 q 771 -356 564 -351 l 803 -228 q 498 -162 626 -224 q 300 17 369 -100 q 231 296 231 133 q 318 638 231 483 q 560 883 406 793 q 908 974 714 974 q 1185 915 1068 974 q 1363 749 1301 856 q 1424 500 1424 642 q 1390 306 1424 392 q 1305 172 1356 219 q 1207 124 1254 124 q 1168 138 1182 124 q 1154 181 1154 153 q 1156 199 1154 192 l 1186 406 q 1190 468 1190 438 q 1151 628 1190 558 q 1040 738 1111 699 q 875 776 968 776 q 676 728 769 776 q 519 590 582 679 q 439 388 456 501 q 435 321 435 353 q 474 147 435 224 q 583 29 514 71 q 736 -12 653 -12 q 1017 158 914 -12 q 1063 35 1019 82 q 1194 -12 1107 -12 q 1383 55 1292 -12 q 1531 240 1474 122 q 1588 499 1588 357 q 1505 817 1588 681 q 1274 1027 1422 953 q 929 1101 1125 1101 m 775 124 q 645 182 697 124 q 593 335 593 240 q 597 382 593 357 q 647 515 608 456 q 739 607 685 574 q 850 640 793 640 q 941 614 900 640 q 1006 540 982 588 q 1031 431 1031 492 q 1028 383 1031 400 q 978 249 1017 308 q 886 157 940 190 q 775 124 832 124 "},"A":{"ha":968,"x_min":47,"x_max":922,"o":"m 686 197 l 756 0 l 922 0 l 576 967 l 393 967 l 47 0 l 213 0 l 282 197 l 686 197 m 643 321 l 325 321 l 485 775 l 643 321 "},"B":{"ha":875,"x_min":104,"x_max":807,"o":"m 621 496 q 740 578 696 522 q 785 717 785 633 q 749 842 785 786 q 642 932 713 899 q 472 965 571 965 l 104 965 l 104 0 l 490 0 q 658 34 586 0 q 769 127 731 68 q 807 260 807 186 q 753 414 807 346 q 621 496 699 482 m 263 556 l 263 842 l 458 842 q 580 803 536 842 q 624 697 624 765 q 580 593 624 631 q 458 556 536 556 l 263 556 m 476 124 l 263 124 l 263 432 l 471 432 q 600 390 551 432 q 649 276 649 347 q 603 164 649 204 q 476 124 557 124 "},"C":{"ha":1074,"x_min":51,"x_max":993,"o":"m 51 485 q 117 231 51 343 q 296 55 183 118 q 544 -8 408 -8 q 819 67 699 -8 q 993 281 939 142 l 803 281 q 699 172 765 208 q 544 135 632 135 q 374 178 449 135 q 256 301 299 221 q 214 485 214 381 q 256 668 214 589 q 374 790 299 747 q 544 833 449 833 q 699 797 632 833 q 803 688 765 760 l 993 688 q 819 902 939 826 q 544 978 699 978 q 297 915 410 978 q 117 739 183 851 q 51 485 51 626 "},"D":{"ha":985,"x_min":104,"x_max":932,"o":"m 419 965 l 104 965 l 104 0 l 419 0 q 690 58 574 0 q 869 224 806 115 q 932 479 932 332 q 869 737 932 626 q 690 906 806 847 q 419 965 574 965 m 419 121 l 263 121 l 263 838 l 419 838 q 678 742 588 838 q 769 479 769 647 q 678 217 769 313 q 419 121 588 121 "},"E":{"ha":728,"x_min":104,"x_max":638,"o":"m 263 843 l 638 843 l 638 967 l 104 967 l 104 0 l 638 0 l 638 124 l 263 124 l 263 428 l 596 428 l 596 550 l 263 550 l 263 843 "},"F":{"ha":715,"x_min":104,"x_max":672,"o":"m 672 965 l 104 965 l 104 0 l 263 0 l 263 426 l 582 426 l 582 549 l 263 549 l 263 842 l 672 842 l 672 965 "},"G":{"ha":1074,"x_min":51,"x_max":1022,"o":"m 51 485 q 117 231 51 343 q 296 55 183 118 q 544 -8 408 -8 q 774 48 671 -8 q 942 199 878 104 q 1022 406 1007 293 l 1022 529 l 490 529 l 490 406 l 853 406 q 755 208 836 281 q 544 135 674 135 q 374 178 449 135 q 256 301 299 221 q 214 485 214 381 q 256 668 214 589 q 374 790 299 747 q 544 833 449 833 q 699 797 632 833 q 803 688 765 760 l 993 688 q 819 902 939 826 q 544 978 699 978 q 297 915 410 978 q 117 739 183 851 q 51 485 51 626 "},"H":{"ha":979,"x_min":104,"x_max":875,"o":"m 875 965 l 717 965 l 717 549 l 263 549 l 263 965 l 104 965 l 104 0 l 263 0 l 263 426 l 717 426 l 717 0 l 875 0 l 875 965 "},"I":{"ha":367,"x_min":104,"x_max":263,"o":"m 263 965 l 104 965 l 104 0 l 263 0 l 263 965 "},"J":{"ha":783,"x_min":61,"x_max":631,"o":"m 631 965 l 471 965 l 471 269 q 439 169 471 207 q 346 131 407 131 q 253 168 285 131 q 221 269 222 206 l 61 269 q 140 65 61 140 q 346 -10 218 -10 q 552 65 474 -10 q 631 269 631 140 l 631 965 "},"K":{"ha":879,"x_min":104,"x_max":843,"o":"m 636 0 l 843 0 l 417 482 l 836 965 l 638 965 l 263 525 l 263 965 l 104 965 l 104 0 l 263 0 l 263 432 l 636 0 "},"L":{"ha":617,"x_min":104,"x_max":589,"o":"m 263 121 l 263 965 l 104 965 l 104 0 l 589 0 l 589 121 l 263 121 "},"M":{"ha":1225,"x_min":104,"x_max":1121,"o":"m 1121 965 l 951 965 l 614 208 l 275 965 l 104 965 l 104 0 l 263 0 l 263 661 l 558 0 l 668 0 l 963 661 l 963 0 l 1121 0 l 1121 965 "},"N":{"ha":1001,"x_min":104,"x_max":897,"o":"m 897 0 l 897 967 l 739 967 l 739 247 l 263 967 l 104 967 l 104 0 l 263 0 l 263 721 l 739 0 l 897 0 "},"O":{"ha":1089,"x_min":51,"x_max":1038,"o":"m 544 -10 q 794 53 681 -10 q 972 230 907 117 q 1038 485 1038 343 q 972 739 1038 626 q 794 915 907 851 q 544 978 681 978 q 297 915 410 978 q 117 739 183 851 q 51 485 51 626 q 117 230 51 343 q 297 53 183 117 q 544 -10 410 -10 m 544 133 q 374 177 449 133 q 256 301 299 221 q 214 485 214 381 q 256 668 214 589 q 374 790 299 747 q 544 833 449 833 q 715 790 640 833 q 833 668 790 747 q 875 485 875 589 q 833 301 875 381 q 715 177 790 221 q 544 133 640 133 "},"P":{"ha":826,"x_min":104,"x_max":779,"o":"m 779 678 q 741 824 779 758 q 626 927 703 889 q 438 965 549 965 l 104 965 l 104 0 l 263 0 l 263 392 l 438 392 q 633 433 557 392 q 744 539 710 474 q 779 678 779 604 m 438 515 l 263 515 l 263 842 l 438 842 q 572 799 528 842 q 617 678 617 756 q 572 558 617 601 q 438 515 528 515 "},"Q":{"ha":1093,"x_min":51,"x_max":1053,"o":"m 851 -175 l 1053 -175 l 821 71 q 980 244 922 136 q 1038 485 1038 351 q 972 739 1038 626 q 794 915 907 851 q 544 978 681 978 q 297 915 410 978 q 117 739 183 851 q 51 485 51 626 q 117 230 51 343 q 297 53 183 117 q 544 -10 410 -10 q 682 8 619 -10 l 851 -175 m 214 485 q 256 668 214 589 q 374 790 299 747 q 544 833 449 833 q 715 790 640 833 q 833 668 790 747 q 875 485 875 589 q 833 301 875 381 q 715 177 790 221 q 544 133 640 133 q 374 177 449 133 q 256 301 299 221 q 214 485 214 381 "},"R":{"ha":878,"x_min":104,"x_max":794,"o":"m 606 0 l 794 0 l 556 400 q 724 505 669 428 q 779 676 779 582 q 741 822 779 757 q 626 926 703 888 q 438 965 549 965 l 104 965 l 104 0 l 263 0 l 263 386 l 383 386 l 606 0 m 263 511 l 263 842 l 438 842 q 572 798 528 842 q 617 676 617 754 q 572 556 617 600 q 438 511 526 511 l 263 511 "},"S":{"ha":839,"x_min":81,"x_max":756,"o":"m 422 -10 q 601 30 525 -10 q 716 135 676 69 q 756 274 756 200 q 713 420 756 365 q 610 501 671 475 q 454 554 550 528 q 340 590 382 574 q 272 635 299 607 q 244 708 244 664 q 287 813 244 778 q 399 849 329 849 q 520 810 475 849 q 569 715 565 772 l 744 715 q 645 908 735 838 q 415 978 556 978 q 242 944 317 978 q 125 849 167 911 q 83 703 83 786 q 125 558 83 613 q 226 478 167 504 q 379 428 285 453 q 497 392 454 408 q 567 344 539 375 q 596 265 596 314 q 550 159 596 200 q 422 118 504 118 q 299 160 343 118 q 250 267 256 201 l 81 267 q 125 121 81 183 q 247 24 169 58 q 422 -10 325 -10 "},"T":{"ha":783,"x_min":54,"x_max":728,"o":"m 728 965 l 54 965 l 54 842 l 313 842 l 313 0 l 471 0 l 471 842 l 728 842 l 728 965 "},"U":{"ha":958,"x_min":103,"x_max":857,"o":"m 261 965 l 103 965 l 103 353 q 153 153 103 235 q 288 31 203 71 q 478 -10 374 -10 q 668 31 582 -10 q 806 153 754 71 q 857 353 857 235 l 857 965 l 699 965 l 699 353 q 641 188 699 243 q 479 132 583 132 q 319 188 376 132 q 261 353 261 243 l 261 965 "},"V":{"ha":964,"x_min":26,"x_max":936,"o":"m 196 965 l 26 965 l 390 0 l 574 0 l 936 965 l 768 965 l 481 164 l 196 965 "},"W":{"ha":1388,"x_min":26,"x_max":1361,"o":"m 1361 965 l 1192 965 l 990 183 l 789 965 l 611 965 l 394 179 l 194 965 l 26 965 l 300 -1 l 478 0 l 693 731 l 896 0 l 1075 0 l 1361 965 "},"X":{"ha":917,"x_min":69,"x_max":849,"o":"m 547 482 l 849 965 l 671 965 l 465 614 l 247 965 l 69 965 l 369 482 l 69 0 l 247 0 l 451 350 l 669 0 l 847 0 l 547 482 "},"Y":{"ha":840,"x_min":21,"x_max":819,"o":"m 819 965 l 642 965 l 419 494 l 197 965 l 21 965 l 342 350 l 342 0 l 500 0 l 500 350 l 819 965 "},"Z":{"ha":775,"x_min":69,"x_max":706,"o":"m 257 138 l 706 842 l 706 965 l 69 965 l 69 828 l 517 828 l 69 124 l 69 0 l 706 0 l 706 138 l 257 138 "},"[":{"ha":674,"x_min":206,"x_max":494,"o":"m 494 1311 l 206 1311 l 206 -244 l 494 -244 l 494 -112 l 354 -112 l 354 1181 l 494 1181 l 494 1311 "},"\\":{"ha":996,"x_min":228,"x_max":800,"o":"m 644 -243 l 800 -243 l 383 1311 l 228 1311 l 644 -243 "},"]":{"ha":672,"x_min":178,"x_max":467,"o":"m 178 -244 l 467 -244 l 467 1311 l 178 1311 l 178 1181 l 319 1181 l 319 -112 l 178 -112 l 178 -244 "},"^":{"ha":908,"x_min":50,"x_max":860,"o":"m 214 233 l 456 775 l 694 233 l 860 233 l 529 967 l 379 967 l 50 233 l 214 233 "},"_":{"ha":1108,"x_min":175,"x_max":950,"o":"m 950 -56 l 175 -56 l 175 -203 l 950 -203 l 950 -56 "},"`":{"ha":353,"x_min":14,"x_max":321,"o":"m 321 936 l 14 1106 l 14 971 l 321 819 l 321 936 "},"a":{"ha":942,"x_min":51,"x_max":838,"o":"m 51 386 q 99 180 51 271 q 229 38 147 89 q 410 -12 311 -12 q 568 24 499 -12 q 678 114 638 60 l 678 0 l 838 0 l 838 765 l 678 765 l 678 654 q 570 742 638 707 q 413 778 503 778 q 230 728 313 778 q 99 590 147 679 q 51 386 51 501 m 678 383 q 645 245 678 304 q 560 156 613 186 q 446 125 507 125 q 333 156 386 125 q 247 247 279 188 q 214 386 214 307 q 247 523 214 465 q 332 610 279 581 q 446 640 385 640 q 560 610 507 640 q 645 521 613 579 q 678 383 678 463 "},"b":{"ha":942,"x_min":104,"x_max":889,"o":"m 263 651 l 263 1028 l 104 1028 l 104 0 l 263 0 l 263 111 q 372 22 303 57 q 529 -12 440 -12 q 712 38 629 -12 q 842 180 794 89 q 889 386 889 271 q 842 591 889 501 q 713 729 794 681 q 529 778 631 778 q 373 742 443 778 q 263 651 303 707 m 728 386 q 695 247 728 307 q 609 156 663 188 q 494 125 556 125 q 381 156 435 125 q 295 245 328 186 q 263 383 263 304 q 295 521 263 463 q 381 610 328 579 q 494 640 435 640 q 609 610 556 640 q 695 523 663 581 q 728 386 728 465 "},"c":{"ha":833,"x_min":51,"x_max":779,"o":"m 51 383 q 99 176 51 265 q 232 37 147 86 q 426 -12 317 -12 q 654 56 563 -12 q 779 242 746 125 l 608 242 q 426 121 564 121 q 272 190 329 121 q 214 383 214 260 q 272 576 214 507 q 426 644 329 644 q 542 613 496 644 q 608 524 588 581 l 779 524 q 656 712 747 646 q 426 778 565 778 q 232 729 317 778 q 99 591 147 681 q 51 383 51 501 "},"d":{"ha":942,"x_min":51,"x_max":838,"o":"m 51 386 q 99 180 51 271 q 230 38 147 89 q 413 -12 313 -12 q 570 24 501 -12 q 678 115 639 60 l 678 0 l 838 0 l 838 1028 l 678 1028 l 678 658 q 562 745 635 713 q 414 778 489 778 q 230 728 313 778 q 99 590 147 679 q 51 386 51 501 m 678 383 q 645 245 678 304 q 560 156 613 186 q 446 125 507 125 q 333 156 386 125 q 247 247 279 188 q 214 386 214 307 q 247 523 214 465 q 332 610 279 581 q 446 640 385 640 q 560 610 507 640 q 645 521 613 579 q 678 383 678 463 "},"e":{"ha":857,"x_min":51,"x_max":806,"o":"m 806 404 q 758 599 806 514 q 626 731 711 683 q 433 778 542 778 q 234 729 321 778 q 99 591 147 681 q 51 383 51 501 q 101 176 51 265 q 237 37 150 86 q 433 -12 324 -12 q 659 55 568 -12 q 785 228 750 122 l 614 228 q 433 121 561 121 q 282 177 343 121 q 214 329 221 233 l 800 329 q 806 404 806 364 m 640 443 l 215 443 q 284 590 225 536 q 426 644 343 644 q 578 590 518 644 q 640 443 639 536 "},"f":{"ha":461,"x_min":33,"x_max":425,"o":"m 425 636 l 425 765 l 283 765 l 283 819 q 313 913 283 886 q 414 940 342 940 l 414 1072 q 194 1012 264 1072 q 124 819 124 951 l 124 765 l 33 765 l 33 636 l 124 636 l 124 0 l 283 0 l 283 636 l 425 636 "},"g":{"ha":942,"x_min":51,"x_max":838,"o":"m 413 778 q 230 728 313 778 q 99 590 147 679 q 51 386 51 501 q 99 180 51 271 q 230 38 147 89 q 413 -12 313 -12 q 569 24 500 -12 q 678 115 638 61 l 678 -12 q 619 -182 678 -124 q 464 -240 560 -240 q 323 -203 382 -240 q 246 -107 264 -167 l 89 -107 q 206 -305 103 -232 q 464 -378 308 -378 q 665 -331 581 -378 q 793 -201 749 -283 q 838 -12 838 -118 l 838 765 l 678 765 l 678 654 q 570 742 639 707 q 413 778 501 778 m 678 383 q 645 245 678 304 q 560 156 613 186 q 446 125 507 125 q 333 156 386 125 q 247 247 279 188 q 214 386 214 307 q 247 523 214 465 q 332 610 279 581 q 446 640 385 640 q 560 610 507 640 q 645 521 613 579 q 678 383 678 463 "},"h":{"ha":901,"x_min":104,"x_max":804,"o":"m 500 778 q 365 751 426 778 q 263 676 303 725 l 263 1028 l 104 1028 l 104 0 l 263 0 l 263 428 q 315 585 263 531 q 456 640 367 640 q 596 585 544 640 q 647 428 647 531 l 647 0 l 804 0 l 804 451 q 765 629 804 556 q 656 740 725 703 q 500 778 588 778 "},"i":{"ha":367,"x_min":83,"x_max":285,"o":"m 185 867 q 256 896 226 867 q 285 968 285 925 q 256 1040 285 1011 q 185 1069 226 1069 q 113 1040 142 1069 q 83 968 83 1011 q 113 896 83 925 q 185 867 142 867 m 263 765 l 104 765 l 104 0 l 263 0 l 263 765 "},"j":{"ha":367,"x_min":-39,"x_max":285,"o":"m 185 867 q 256 896 226 867 q 285 968 285 925 q 256 1040 285 1011 q 185 1069 226 1069 q 113 1040 142 1069 q 83 968 83 1011 q 113 896 83 925 q 185 867 142 867 m 263 -150 l 263 765 l 104 765 l 104 -150 q 84 -212 104 -193 q 15 -231 64 -231 l -39 -231 l -39 -364 l 43 -364 q 206 -313 150 -364 q 263 -150 263 -262 "},"k":{"ha":769,"x_min":104,"x_max":760,"o":"m 407 382 l 760 765 l 540 765 l 263 431 l 263 1028 l 104 1028 l 104 0 l 263 0 l 263 329 l 546 0 l 760 0 l 407 382 "},"l":{"ha":367,"x_min":104,"x_max":263,"o":"m 263 1028 l 104 1028 l 104 0 l 263 0 l 263 1028 "},"m":{"ha":1443,"x_min":104,"x_max":1346,"o":"m 1031 778 q 872 737 946 778 q 764 626 799 696 q 653 739 725 700 q 489 778 581 778 q 361 751 421 778 q 263 678 301 725 l 263 765 l 104 765 l 104 0 l 263 0 l 263 428 q 315 585 263 531 q 456 640 367 640 q 596 585 544 640 q 647 428 647 531 l 647 0 l 804 0 l 804 428 q 856 585 804 531 q 997 640 908 640 q 1138 585 1086 640 q 1189 428 1189 531 l 1189 0 l 1346 0 l 1346 451 q 1305 629 1346 556 q 1192 740 1264 703 q 1031 778 1121 778 "},"n":{"ha":901,"x_min":104,"x_max":804,"o":"m 490 778 q 362 751 422 778 q 263 678 301 725 l 263 765 l 104 765 l 104 0 l 263 0 l 263 428 q 315 585 263 531 q 456 640 367 640 q 596 585 544 640 q 647 428 647 531 l 647 0 l 804 0 l 804 451 q 764 629 804 556 q 652 740 724 703 q 490 778 581 778 "},"o":{"ha":886,"x_min":53,"x_max":833,"o":"m 436 -12 q 637 37 546 -12 q 781 176 728 86 q 833 383 833 267 q 782 590 833 500 q 642 729 731 681 q 443 778 553 778 q 244 729 333 778 q 104 590 156 681 q 53 383 53 500 q 103 176 53 265 q 240 37 153 86 q 436 -12 328 -12 m 436 121 q 324 151 375 121 q 244 240 274 181 q 214 383 214 300 q 245 526 214 467 q 328 615 276 585 q 440 644 379 644 q 554 615 501 644 q 639 526 607 585 q 671 383 671 467 q 638 241 671 300 q 551 151 604 182 q 436 121 497 121 "},"p":{"ha":942,"x_min":104,"x_max":889,"o":"m 263 653 l 263 765 l 104 765 l 104 -364 l 263 -364 l 263 111 q 374 23 306 58 q 529 -12 442 -12 q 712 38 629 -12 q 842 180 794 89 q 889 386 889 271 q 842 590 889 501 q 712 728 794 679 q 529 778 629 778 q 372 742 442 778 q 263 653 303 706 m 728 386 q 695 247 728 307 q 609 156 663 188 q 494 125 556 125 q 381 156 435 125 q 295 245 328 186 q 263 383 263 304 q 295 521 263 463 q 381 610 328 579 q 494 640 435 640 q 609 610 556 640 q 695 523 663 581 q 728 386 728 465 "},"q":{"ha":942,"x_min":51,"x_max":838,"o":"m 51 386 q 99 180 51 271 q 228 38 147 89 q 408 -12 310 -12 q 569 24 499 -12 q 678 111 640 60 l 678 -364 l 838 -364 l 838 765 l 678 765 l 678 654 q 572 742 640 706 q 414 778 503 778 q 230 728 313 778 q 99 590 147 679 q 51 386 51 501 m 678 383 q 645 245 678 304 q 560 156 613 186 q 446 125 507 125 q 333 156 386 125 q 247 247 279 188 q 214 386 214 307 q 247 523 214 465 q 332 610 279 581 q 446 640 385 640 q 560 610 507 640 q 645 521 613 579 q 678 383 678 463 "},"r":{"ha":533,"x_min":104,"x_max":492,"o":"m 263 632 l 263 765 l 104 765 l 104 0 l 263 0 l 263 403 q 310 567 263 519 q 451 614 358 614 l 492 614 l 492 778 q 355 740 413 778 q 263 632 297 701 "},"s":{"ha":742,"x_min":63,"x_max":671,"o":"m 379 -12 q 535 17 469 -12 q 636 99 601 47 q 671 217 671 151 q 633 334 671 289 q 543 401 596 379 q 407 446 490 424 q 313 474 346 463 q 257 507 279 486 q 235 558 235 528 q 268 627 235 601 q 364 653 301 653 q 465 620 428 653 q 507 532 503 588 l 665 532 q 580 712 660 646 q 369 778 500 778 q 215 747 281 778 q 114 665 149 717 q 79 550 79 613 q 118 433 79 478 q 210 366 157 388 q 349 321 264 344 q 478 276 436 299 q 519 213 519 254 q 483 140 519 167 q 379 113 446 113 q 273 147 315 113 q 226 235 231 182 l 63 235 q 107 109 65 165 q 219 20 149 53 q 379 -12 290 -12 "},"t":{"ha":517,"x_min":39,"x_max":475,"o":"m 289 636 l 475 636 l 475 765 l 289 765 l 289 956 l 129 956 l 129 765 l 39 765 l 39 636 l 129 636 l 129 213 q 186 50 129 100 q 350 0 243 0 l 475 0 l 475 132 l 378 132 q 309 151 329 132 q 289 213 289 169 l 289 636 "},"u":{"ha":901,"x_min":97,"x_max":797,"o":"m 797 765 l 639 765 l 639 339 q 587 181 639 236 q 446 126 535 126 q 306 181 357 126 q 254 339 254 236 l 254 765 l 97 765 l 97 315 q 138 138 97 211 q 251 26 179 64 q 413 -11 322 -11 q 541 16 481 -11 q 639 90 601 43 l 639 0 l 797 0 l 797 765 "},"v":{"ha":800,"x_min":14,"x_max":788,"o":"m 400 142 l 183 765 l 14 765 l 304 0 l 496 0 l 788 765 l 617 765 l 400 142 "},"w":{"ha":1146,"x_min":14,"x_max":1132,"o":"m 1132 765 l 976 765 l 818 153 l 663 765 l 497 765 l 335 150 l 175 765 l 14 765 l 253 0 l 419 0 l 574 565 l 728 0 l 894 0 l 1132 765 "},"x":{"ha":693,"x_min":14,"x_max":679,"o":"m 432 388 l 679 765 l 514 765 l 358 506 l 193 765 l 14 765 l 261 376 l 14 0 l 179 0 l 335 260 l 500 0 l 679 0 l 432 388 "},"y":{"ha":808,"x_min":14,"x_max":793,"o":"m 190 765 l 14 765 l 315 13 l 160 -360 l 324 -360 l 793 765 l 629 765 l 406 182 l 190 765 "},"z":{"ha":654,"x_min":61,"x_max":592,"o":"m 244 129 l 592 636 l 592 765 l 61 765 l 61 636 l 410 636 l 61 129 l 61 0 l 592 0 l 592 129 l 244 129 "},"{":{"ha":754,"x_min":175,"x_max":625,"o":"m 321 515 l 321 518 q 430 581 394 533 q 465 699 465 628 q 461 768 465 732 q 456 817 457 804 q 443 965 443 894 q 492 1192 443 1103 q 625 1313 542 1282 l 625 1335 l 465 1335 q 289 989 289 1256 q 301 850 289 931 q 313 718 313 767 q 283 609 313 657 q 175 549 253 561 l 175 485 q 283 424 253 472 q 313 315 313 375 q 301 183 313 267 q 289 44 289 103 q 465 -301 289 -222 l 625 -301 l 625 -279 q 492 -159 542 -249 q 443 68 443 -69 q 456 217 443 139 q 461 265 457 229 q 465 335 465 301 q 321 515 465 486 "},"|":{"ha":450,"x_min":146,"x_max":304,"o":"m 304 -157 l 304 1113 l 146 1113 l 146 -157 l 304 -157 "},"}":{"ha":744,"x_min":131,"x_max":581,"o":"m 435 518 l 435 515 q 289 335 289 486 q 293 265 289 301 q 299 217 297 229 q 311 68 311 139 q 263 -159 311 -69 q 131 -279 214 -249 l 131 -301 l 290 -301 q 465 44 465 -224 q 453 183 465 103 q 442 315 442 267 q 472 424 442 375 q 581 485 501 472 l 581 549 q 472 609 501 561 q 442 718 442 657 q 453 850 442 767 q 465 989 465 931 q 290 1335 465 1257 l 131 1335 l 131 1313 q 263 1192 214 1282 q 311 965 311 1103 q 299 817 311 894 q 293 768 297 804 q 289 699 289 732 q 325 581 289 628 q 435 518 361 533 "},"~":{"ha":768,"x_min":50,"x_max":718,"o":"m 50 331 l 164 331 q 197 395 169 372 q 260 418 224 418 q 307 408 285 418 q 360 378 329 399 q 428 340 399 353 q 496 328 457 328 q 640 384 582 328 q 718 557 697 440 l 603 557 q 570 492 597 515 q 508 469 543 469 q 463 479 483 469 q 408 510 443 489 q 340 547 369 535 q 271 560 310 560 q 128 503 185 560 q 50 331 71 447 "}," ":{"ha":417,"x_min":0,"x_max":0,"o":""},"¡":{"ha":446,"x_min":122,"x_max":324,"o":"m 303 -187 l 135 -187 l 153 486 l 285 486 l 303 -187 m 224 788 q 294 758 265 788 q 324 686 324 729 q 294 614 324 643 q 224 585 265 585 q 151 614 181 585 q 122 686 122 643 q 151 758 122 729 q 224 788 181 788 "},"¢":{"ha":958,"x_min":92,"x_max":785,"o":"m 457 128 q 300 190 358 128 q 242 360 242 251 q 300 531 242 468 q 457 593 358 593 q 576 563 532 593 q 638 479 621 533 l 785 479 q 697 643 774 576 q 501 722 621 710 l 501 843 l 411 843 l 411 722 q 174 608 257 708 q 92 360 92 507 q 174 113 92 213 q 411 -1 257 13 l 411 -122 l 501 -122 l 501 -1 q 697 78 621 11 q 785 242 774 144 l 638 242 q 576 158 621 188 q 457 128 532 128 "},"£":{"ha":897,"x_min":58,"x_max":775,"o":"m 775 126 l 275 126 q 368 360 368 225 q 361 419 368 388 l 599 419 l 599 529 l 329 529 q 306 613 314 575 q 297 690 297 650 q 342 825 297 782 q 463 868 388 868 q 583 824 544 868 q 622 706 622 781 l 767 706 q 688 918 764 835 q 463 1001 611 1001 q 299 965 369 1001 q 188 860 228 928 q 147 699 147 792 q 176 529 147 617 l 58 529 l 58 419 l 211 419 q 218 361 218 389 q 190 208 218 269 q 104 83 163 146 l 132 -3 l 775 -3 l 775 126 "},"¤":{"ha":761,"x_min":83,"x_max":678,"o":"m 639 524 q 596 669 639 607 l 678 751 l 608 822 l 522 736 q 381 771 460 771 q 240 736 303 771 l 154 822 l 83 751 l 167 669 q 124 524 124 610 q 164 381 124 440 l 83 299 l 154 228 l 238 311 q 378 276 299 276 q 522 313 461 276 l 608 228 l 678 299 l 596 381 q 639 524 639 440 m 378 369 q 285 410 322 369 q 249 524 249 450 q 286 638 249 597 q 379 679 324 679 q 474 638 435 679 q 513 524 513 597 q 473 410 513 450 q 378 369 433 369 "},"¥":{"ha":840,"x_min":21,"x_max":819,"o":"m 603 549 l 819 965 l 642 965 l 419 494 l 197 965 l 21 965 l 238 549 l 64 549 l 64 435 l 299 432 l 342 350 l 342 308 l 64 308 l 64 194 l 342 194 l 342 0 l 500 0 l 500 194 l 778 194 l 778 308 l 500 308 l 500 350 l 543 432 l 778 435 l 778 549 l 603 549 "},"¦":{"ha":450,"x_min":146,"x_max":304,"o":"m 146 1113 l 146 574 l 304 574 l 304 1113 l 146 1113 m 304 -157 l 304 382 l 146 382 l 146 -157 l 304 -157 "},"§":{"ha":803,"x_min":57,"x_max":746,"o":"m 576 117 q 703 208 661 151 q 746 339 746 265 q 681 492 746 432 q 479 600 615 551 q 344 655 389 632 q 280 701 299 678 q 261 756 261 724 q 297 835 261 808 q 400 863 333 863 q 496 831 463 863 q 533 743 529 799 l 692 743 q 610 912 692 851 q 400 972 529 972 q 242 941 310 972 q 139 857 175 910 q 103 742 103 804 q 135 638 103 681 q 228 561 168 596 q 101 472 144 531 q 57 339 57 414 q 122 186 57 246 q 324 78 188 126 q 459 23 414 46 q 523 -23 504 0 q 542 -78 542 -46 q 506 -158 542 -131 q 403 -185 469 -185 q 307 -153 340 -185 q 269 -65 274 -121 l 111 -65 q 192 -234 111 -174 q 403 -294 274 -294 q 560 -263 493 -294 q 664 -179 628 -232 q 700 -64 700 -126 q 668 40 700 -3 q 576 117 636 82 m 219 339 q 269 442 219 400 q 400 483 318 483 q 533 442 482 483 q 583 339 583 400 q 535 236 583 278 q 404 194 486 194 q 270 237 321 194 q 219 339 219 279 "},"¨":{"ha":433,"x_min":14,"x_max":419,"o":"m 97 861 q 156 885 132 861 q 181 944 181 910 q 156 1003 181 979 q 97 1028 132 1028 q 38 1003 63 1028 q 14 944 14 979 q 38 885 14 910 q 97 861 63 861 m 336 861 q 395 885 371 861 q 419 944 419 910 q 395 1003 419 979 q 336 1028 371 1028 q 277 1003 301 1028 q 253 944 253 979 q 277 885 253 910 q 336 861 301 861 "},"©":{"ha":1096,"x_min":64,"x_max":1032,"o":"m 1032 483 q 971 227 1032 340 q 800 51 910 114 q 549 -12 690 -12 q 297 51 407 -12 q 125 227 186 114 q 64 483 64 340 q 125 739 64 626 q 297 915 186 851 q 549 978 407 978 q 800 915 690 978 q 971 739 910 851 q 1032 483 1032 626 m 133 483 q 184 256 133 354 q 328 104 235 158 q 549 50 422 50 q 767 104 674 50 q 912 256 861 158 q 963 483 963 354 q 912 711 963 614 q 768 862 861 808 q 549 915 675 915 q 328 862 422 915 q 184 711 235 808 q 133 483 133 614 m 242 485 q 282 317 242 390 q 391 205 322 244 q 544 165 460 165 q 726 222 650 165 q 829 369 803 278 l 685 369 q 633 301 667 325 q 544 278 600 278 q 426 331 471 278 q 382 485 382 385 q 426 638 382 585 q 544 690 471 690 q 634 667 597 690 q 685 599 671 643 l 829 599 q 728 749 803 696 q 544 803 653 803 q 390 763 460 803 q 281 651 321 724 q 242 485 242 579 "},"ª":{"ha":633,"x_min":43,"x_max":575,"o":"m 43 736 q 74 606 43 664 q 159 515 106 547 q 276 482 213 482 q 383 508 338 482 q 451 575 428 533 l 451 490 l 575 490 l 575 976 l 451 976 l 451 892 q 384 960 429 935 q 276 985 339 985 q 159 953 213 985 q 74 865 106 921 q 43 736 43 808 m 451 733 q 410 619 451 661 q 311 578 369 578 q 213 620 254 578 q 171 735 171 663 q 213 848 171 807 q 311 889 254 889 q 410 847 369 889 q 451 733 451 806 "},"«":{"ha":679,"x_min":63,"x_max":610,"o":"m 190 167 l 343 167 l 210 410 l 343 653 l 190 653 l 63 410 l 190 167 m 457 167 l 610 167 l 476 410 l 610 653 l 457 653 l 329 410 l 457 167 "},"¬":{"ha":1039,"x_min":57,"x_max":964,"o":"m 964 604 l 57 604 l 57 481 l 806 481 l 806 289 l 964 289 l 964 604 "},"­":{"ha":813,"x_min":121,"x_max":692,"o":"m 692 569 l 121 569 l 121 436 l 692 436 l 692 569 "},"®":{"ha":1096,"x_min":64,"x_max":1051,"o":"m 558 978 q 301 915 413 978 q 126 740 189 851 q 64 483 64 628 q 126 226 64 339 q 301 51 189 114 q 558 -12 413 -12 q 815 51 703 -12 q 989 226 926 114 q 1051 483 1051 339 q 990 739 1051 626 q 815 915 928 851 q 558 978 703 978 m 558 50 q 333 104 429 50 q 185 256 236 158 q 133 483 133 354 q 185 712 133 614 q 333 863 236 810 q 558 915 429 915 q 783 863 688 915 q 931 712 879 810 q 982 483 982 614 q 931 256 982 354 q 783 104 879 158 q 558 50 688 50 m 799 622 q 741 758 799 704 q 575 811 683 811 l 357 811 l 357 178 l 460 178 l 460 435 l 525 435 l 683 178 l 808 178 l 640 440 q 760 506 721 456 q 799 622 799 557 m 460 514 l 460 731 l 575 731 q 665 702 635 731 q 694 622 694 674 q 665 543 694 572 q 575 514 635 514 l 460 514 "},"¯":{"ha":536,"x_min":14,"x_max":522,"o":"m 522 1000 l 14 1000 l 14 882 l 522 882 l 522 1000 "},"°":{"ha":593,"x_min":39,"x_max":554,"o":"m 39 729 q 109 550 39 618 q 293 482 179 482 q 426 513 367 482 q 520 599 486 543 q 554 729 554 656 q 521 859 554 803 q 429 945 488 915 q 297 975 371 975 q 111 908 183 975 q 39 729 39 840 m 428 729 q 388 615 428 656 q 293 575 349 575 q 201 615 238 575 q 164 729 164 654 q 202 844 164 803 q 294 885 240 885 q 389 844 350 885 q 428 729 428 803 "},"±":{"ha":996,"x_min":144,"x_max":851,"o":"m 574 513 l 851 513 l 851 654 l 574 654 l 574 863 l 422 863 l 422 654 l 144 654 l 144 513 l 422 513 l 422 313 l 144 313 l 144 172 l 851 172 l 851 313 l 574 313 l 574 513 "},"²":{"ha":472,"x_min":38,"x_max":414,"o":"m 414 589 l 181 589 l 282 654 q 383 740 353 701 q 413 829 413 779 q 390 907 413 871 q 324 965 367 943 q 225 988 282 988 q 90 947 139 988 q 38 840 40 907 l 163 840 q 181 879 165 865 q 221 893 196 893 q 265 874 247 893 q 282 824 282 856 q 259 757 282 788 q 190 690 236 726 l 40 581 l 40 489 l 414 489 l 414 589 "},"³":{"ha":475,"x_min":25,"x_max":429,"o":"m 31 846 l 149 846 q 221 894 163 894 q 273 878 254 894 q 292 835 292 863 q 272 792 292 807 q 217 776 251 776 l 169 776 l 169 696 l 221 696 q 275 680 254 696 q 296 636 296 664 q 276 590 296 607 q 224 574 256 574 q 172 589 192 574 q 147 635 153 604 l 25 635 q 82 523 28 564 q 225 482 136 482 q 372 522 314 482 q 429 619 429 561 q 404 690 429 661 q 340 732 379 718 l 340 735 q 401 773 378 746 q 425 842 425 800 q 399 915 425 882 q 328 968 374 949 q 231 988 283 988 q 90 948 144 988 q 31 846 36 908 "},"´":{"ha":335,"x_min":14,"x_max":321,"o":"m 321 971 l 321 1106 l 14 936 l 14 819 l 321 971 "},"µ":{"ha":908,"x_min":104,"x_max":804,"o":"m 804 765 l 646 765 l 646 338 q 594 180 646 235 q 453 125 542 125 q 313 180 364 125 q 261 338 261 235 l 261 765 l 104 765 l 104 -364 l 261 -364 l 261 32 q 401 -11 318 -11 q 545 22 482 -11 q 646 121 608 56 l 646 0 l 804 0 l 804 765 "},"¶":{"ha":875,"x_min":49,"x_max":771,"o":"m 771 0 l 771 965 l 378 965 q 132 885 215 965 q 49 678 49 804 q 131 472 49 551 q 378 392 214 392 l 397 392 l 397 0 l 538 0 l 538 842 l 631 842 l 631 0 l 771 0 "},"·":{"ha":339,"x_min":72,"x_max":274,"o":"m 174 364 q 244 393 215 364 q 274 465 274 422 q 244 538 274 508 q 174 567 215 567 q 101 538 131 567 q 72 465 72 508 q 101 393 72 422 q 174 364 131 364 "},"¸":{"ha":388,"x_min":14,"x_max":374,"o":"m 193 -67 l 193 10 l 89 10 l 89 -161 l 165 -161 q 224 -172 204 -161 q 243 -212 243 -183 q 224 -253 243 -242 q 165 -264 204 -264 l 14 -264 l 14 -364 l 197 -364 q 324 -323 274 -364 q 374 -212 374 -282 q 324 -105 374 -143 q 193 -67 274 -67 "},"¹":{"ha":290,"x_min":28,"x_max":226,"o":"m 28 883 l 103 883 l 103 489 l 226 489 l 226 978 l 28 978 l 28 883 "},"º":{"ha":617,"x_min":43,"x_max":574,"o":"m 43 733 q 77 601 43 658 q 171 513 111 544 q 306 482 231 482 q 442 513 381 482 q 538 602 503 544 q 574 733 574 660 q 539 866 574 808 q 444 954 504 924 q 308 985 383 985 q 173 953 233 985 q 78 865 113 922 q 43 733 43 808 m 446 732 q 404 617 446 658 q 306 575 363 575 q 210 616 249 575 q 171 732 171 657 q 210 851 171 810 q 307 893 250 893 q 405 851 364 893 q 446 732 446 808 "},"»":{"ha":679,"x_min":69,"x_max":617,"o":"m 201 410 l 69 167 l 221 167 l 350 410 l 221 653 l 69 653 l 201 410 m 468 410 l 336 167 l 488 167 l 617 410 l 488 653 l 336 653 l 468 410 "},"¼":{"ha":947,"x_min":47,"x_max":893,"o":"m 47 883 l 122 883 l 122 489 l 246 489 l 246 978 l 47 978 l 47 883 m 768 967 l 619 967 l 88 0 l 238 0 l 768 967 m 893 93 l 893 171 l 831 171 l 831 490 l 658 490 l 449 163 l 449 93 l 707 93 l 707 0 l 831 0 l 831 93 l 893 93 m 710 396 l 710 171 l 572 171 l 710 396 "},"½":{"ha":974,"x_min":47,"x_max":913,"o":"m 122 883 l 122 489 l 246 489 l 246 978 l 47 978 l 47 883 l 122 883 m 753 967 l 603 967 l 88 0 l 238 0 l 753 967 m 913 99 l 679 99 l 781 164 q 881 250 851 211 q 911 339 911 289 q 888 417 911 381 q 823 475 865 453 q 724 497 781 497 q 588 457 638 497 q 536 350 539 417 l 661 350 q 679 389 664 375 q 719 403 694 403 q 763 384 746 403 q 781 333 781 365 q 758 267 781 297 q 689 200 735 236 l 539 90 l 539 -1 l 913 -1 l 913 99 "},"¾":{"ha":1031,"x_min":46,"x_max":994,"o":"m 51 846 l 169 846 q 242 894 183 894 q 294 878 275 894 q 313 835 313 863 q 292 792 313 807 q 238 776 272 776 l 190 776 l 190 696 l 242 696 q 296 680 275 696 q 317 636 317 664 q 297 590 317 607 q 244 574 276 574 q 193 589 213 574 q 168 635 174 604 l 46 635 q 103 523 49 564 q 246 482 157 482 q 392 522 335 482 q 450 619 450 561 q 425 690 450 661 q 361 732 400 718 l 361 735 q 422 773 399 746 q 446 842 446 800 q 420 915 446 882 q 349 968 394 949 q 251 988 304 988 q 111 948 165 988 q 51 846 57 908 m 900 967 l 751 967 l 193 0 l 342 0 l 900 967 m 994 93 l 994 171 l 932 171 l 932 490 l 760 490 l 550 163 l 550 93 l 808 93 l 808 0 l 932 0 l 932 93 l 994 93 m 811 396 l 811 171 l 674 171 l 811 396 "},"¿":{"ha":747,"x_min":71,"x_max":692,"o":"m 383 -210 q 547 -174 476 -210 q 654 -72 617 -137 q 692 76 692 -7 l 543 76 q 500 -36 543 4 q 382 -76 457 -76 q 265 -35 307 -76 q 222 81 222 7 q 294 218 222 182 q 500 254 365 254 l 546 254 l 539 472 l 401 472 l 396 363 q 160 292 249 363 q 71 81 71 221 q 156 -132 71 -54 q 383 -210 242 -210 m 472 779 q 401 750 431 779 q 372 678 372 721 q 401 606 372 635 q 472 576 431 576 q 544 606 515 576 q 574 678 574 635 q 544 750 574 721 q 472 779 515 779 "},"À":{"ha":968,"x_min":47,"x_max":922,"o":"m 686 197 l 756 0 l 922 0 l 576 967 l 393 967 l 47 0 l 213 0 l 282 197 l 686 197 m 643 321 l 325 321 l 485 775 l 643 321 m 628 1138 l 321 1307 l 321 1172 l 628 1021 l 628 1138 "},"Á":{"ha":968,"x_min":47,"x_max":922,"o":"m 686 197 l 756 0 l 922 0 l 576 967 l 393 967 l 47 0 l 213 0 l 282 197 l 686 197 m 643 321 l 325 321 l 485 775 l 643 321 m 628 1172 l 628 1307 l 321 1138 l 321 1021 l 628 1172 "},"Â":{"ha":968,"x_min":47,"x_max":922,"o":"m 686 197 l 756 0 l 922 0 l 576 967 l 393 967 l 47 0 l 213 0 l 282 197 l 686 197 m 643 321 l 325 321 l 485 775 l 643 321 m 485 1149 l 683 1029 l 683 1153 l 485 1268 l 286 1153 l 286 1029 l 485 1149 "},"Ã":{"ha":968,"x_min":47,"x_max":922,"o":"m 686 197 l 756 0 l 922 0 l 576 967 l 393 967 l 47 0 l 213 0 l 282 197 l 686 197 m 643 321 l 325 321 l 485 775 l 643 321 m 258 1046 l 347 1046 q 367 1090 351 1075 q 407 1106 383 1106 q 437 1099 424 1106 q 475 1078 450 1093 q 521 1052 500 1061 q 568 1043 542 1043 q 672 1084 631 1043 q 725 1206 714 1125 l 636 1206 q 616 1162 632 1176 q 576 1147 600 1147 q 544 1154 558 1147 q 508 1175 529 1161 q 461 1200 481 1192 q 415 1208 442 1208 q 311 1167 353 1208 q 258 1046 269 1126 "},"Ä":{"ha":968,"x_min":47,"x_max":922,"o":"m 686 197 l 756 0 l 922 0 l 576 967 l 393 967 l 47 0 l 213 0 l 282 197 l 686 197 m 643 321 l 325 321 l 485 775 l 643 321 m 365 1063 q 424 1087 400 1063 q 449 1146 449 1111 q 424 1205 449 1181 q 365 1229 400 1229 q 306 1205 331 1229 q 282 1146 282 1181 q 306 1087 282 1111 q 365 1063 331 1063 m 604 1063 q 663 1087 639 1063 q 688 1146 688 1111 q 663 1205 688 1181 q 604 1229 639 1229 q 545 1205 569 1229 q 521 1146 521 1181 q 545 1087 521 1111 q 604 1063 569 1063 "},"Å":{"ha":968,"x_min":47,"x_max":922,"o":"m 686 197 l 756 0 l 922 0 l 576 967 l 393 967 l 47 0 l 213 0 l 282 197 l 686 197 m 643 321 l 325 321 l 485 775 l 643 321 m 333 1193 q 377 1083 333 1125 q 485 1042 421 1042 q 593 1083 550 1042 q 636 1193 636 1125 q 593 1304 636 1263 q 485 1346 550 1346 q 377 1304 421 1346 q 333 1193 333 1263 m 557 1194 q 536 1144 557 1164 q 485 1124 515 1124 q 435 1144 456 1124 q 414 1194 414 1164 q 434 1246 414 1226 q 485 1265 454 1265 q 536 1246 515 1265 q 557 1194 557 1226 "},"Æ":{"ha":1279,"x_min":17,"x_max":1188,"o":"m 814 843 l 1188 843 l 1188 967 l 549 967 l 17 0 l 189 0 l 296 197 l 656 197 l 656 0 l 1188 0 l 1188 124 l 814 124 l 814 428 l 1146 428 l 1146 550 l 814 550 l 814 843 m 656 321 l 364 321 l 656 857 l 656 321 "},"Ç":{"ha":1074,"x_min":51,"x_max":993,"o":"m 51 485 q 117 231 51 343 q 296 55 183 118 q 544 -8 408 -8 q 819 67 699 -8 q 993 281 939 142 l 803 281 q 699 172 765 208 q 544 135 632 135 q 374 178 449 135 q 256 301 299 221 q 214 485 214 381 q 256 668 214 589 q 374 790 299 747 q 544 833 449 833 q 699 797 632 833 q 803 688 765 760 l 993 688 q 819 902 939 826 q 544 978 699 978 q 297 915 410 978 q 117 739 183 851 q 51 485 51 626 m 593 -67 l 593 10 l 489 10 l 489 -161 l 565 -161 q 624 -172 604 -161 q 643 -212 643 -183 q 624 -253 643 -242 q 565 -264 604 -264 l 414 -264 l 414 -364 l 597 -364 q 724 -323 674 -364 q 774 -212 774 -282 q 724 -105 774 -143 q 593 -67 674 -67 "},"È":{"ha":728,"x_min":104,"x_max":638,"o":"m 263 843 l 638 843 l 638 967 l 104 967 l 104 0 l 638 0 l 638 124 l 263 124 l 263 428 l 596 428 l 596 550 l 263 550 l 263 843 m 507 1138 l 200 1307 l 200 1172 l 507 1021 l 507 1138 "},"É":{"ha":728,"x_min":104,"x_max":638,"o":"m 263 843 l 638 843 l 638 967 l 104 967 l 104 0 l 638 0 l 638 124 l 263 124 l 263 428 l 596 428 l 596 550 l 263 550 l 263 843 m 507 1172 l 507 1307 l 200 1138 l 200 1021 l 507 1172 "},"Ê":{"ha":728,"x_min":104,"x_max":638,"o":"m 263 843 l 638 843 l 638 967 l 104 967 l 104 0 l 638 0 l 638 124 l 263 124 l 263 428 l 596 428 l 596 550 l 263 550 l 263 843 m 364 1149 l 563 1029 l 563 1153 l 364 1268 l 165 1153 l 165 1029 l 364 1149 "},"Ë":{"ha":728,"x_min":104,"x_max":638,"o":"m 263 843 l 638 843 l 638 967 l 104 967 l 104 0 l 638 0 l 638 124 l 263 124 l 263 428 l 596 428 l 596 550 l 263 550 l 263 843 m 244 1063 q 303 1087 279 1063 q 328 1146 328 1111 q 303 1205 328 1181 q 244 1229 279 1229 q 185 1205 210 1229 q 161 1146 161 1181 q 185 1087 161 1111 q 244 1063 210 1063 m 483 1063 q 542 1087 518 1063 q 567 1146 567 1111 q 542 1205 567 1181 q 483 1229 518 1229 q 424 1205 449 1229 q 400 1146 400 1181 q 424 1087 400 1111 q 483 1063 449 1063 "},"Ì":{"ha":367,"x_min":19,"x_max":326,"o":"m 263 965 l 104 965 l 104 0 l 263 0 l 263 965 m 326 1138 l 19 1307 l 19 1172 l 326 1021 l 326 1138 "},"Í":{"ha":367,"x_min":19,"x_max":326,"o":"m 263 965 l 104 965 l 104 0 l 263 0 l 263 965 m 326 1172 l 326 1307 l 19 1138 l 19 1021 l 326 1172 "},"Î":{"ha":367,"x_min":-15,"x_max":382,"o":"m 263 965 l 104 965 l 104 0 l 263 0 l 263 965 m 183 1149 l 382 1029 l 382 1153 l 183 1268 l -15 1153 l -15 1029 l 183 1149 "},"Ï":{"ha":367,"x_min":-19,"x_max":386,"o":"m 263 965 l 104 965 l 104 0 l 263 0 l 263 965 m 64 1063 q 123 1087 99 1063 q 147 1146 147 1111 q 123 1205 147 1181 q 64 1229 99 1229 q 5 1205 29 1229 q -19 1146 -19 1181 q 5 1087 -19 1111 q 64 1063 29 1063 m 303 1063 q 362 1087 338 1063 q 386 1146 386 1111 q 362 1205 386 1181 q 303 1229 338 1229 q 244 1205 268 1229 q 219 1146 219 1181 q 244 1087 219 1111 q 303 1063 268 1063 "},"Ð":{"ha":1000,"x_min":13,"x_max":947,"o":"m 436 965 l 119 965 l 119 553 l 13 553 l 13 407 l 119 407 l 119 0 l 436 0 q 706 58 590 0 q 884 224 821 115 q 947 479 947 332 q 884 737 947 626 q 706 906 821 847 q 436 965 590 965 m 436 121 l 279 121 l 279 407 l 526 407 l 526 553 l 279 553 l 279 838 l 436 838 q 694 742 604 838 q 785 479 785 647 q 694 217 785 313 q 436 121 604 121 "},"Ñ":{"ha":1001,"x_min":104,"x_max":897,"o":"m 897 0 l 897 967 l 739 967 l 739 247 l 263 967 l 104 967 l 104 0 l 263 0 l 263 721 l 739 0 l 897 0 m 275 1046 l 364 1046 q 384 1090 368 1075 q 424 1106 400 1106 q 453 1099 440 1106 q 492 1078 467 1093 q 538 1052 517 1061 q 585 1043 558 1043 q 689 1084 647 1043 q 742 1206 731 1125 l 653 1206 q 633 1162 649 1176 q 593 1147 617 1147 q 560 1154 575 1147 q 525 1175 546 1161 q 478 1200 497 1192 q 432 1208 458 1208 q 328 1167 369 1208 q 275 1046 286 1126 "},"Ò":{"ha":1089,"x_min":51,"x_max":1038,"o":"m 544 -10 q 794 53 681 -10 q 972 230 907 117 q 1038 485 1038 343 q 972 739 1038 626 q 794 915 907 851 q 544 978 681 978 q 297 915 410 978 q 117 739 183 851 q 51 485 51 626 q 117 230 51 343 q 297 53 183 117 q 544 -10 410 -10 m 544 133 q 374 177 449 133 q 256 301 299 221 q 214 485 214 381 q 256 668 214 589 q 374 790 299 747 q 544 833 449 833 q 715 790 640 833 q 833 668 790 747 q 875 485 875 589 q 833 301 875 381 q 715 177 790 221 q 544 133 640 133 m 688 1138 l 381 1307 l 381 1172 l 688 1021 l 688 1138 "},"Ó":{"ha":1089,"x_min":51,"x_max":1038,"o":"m 544 -10 q 794 53 681 -10 q 972 230 907 117 q 1038 485 1038 343 q 972 739 1038 626 q 794 915 907 851 q 544 978 681 978 q 297 915 410 978 q 117 739 183 851 q 51 485 51 626 q 117 230 51 343 q 297 53 183 117 q 544 -10 410 -10 m 544 133 q 374 177 449 133 q 256 301 299 221 q 214 485 214 381 q 256 668 214 589 q 374 790 299 747 q 544 833 449 833 q 715 790 640 833 q 833 668 790 747 q 875 485 875 589 q 833 301 875 381 q 715 177 790 221 q 544 133 640 133 m 688 1172 l 688 1307 l 381 1138 l 381 1021 l 688 1172 "},"Ô":{"ha":1089,"x_min":51,"x_max":1038,"o":"m 544 -10 q 794 53 681 -10 q 972 230 907 117 q 1038 485 1038 343 q 972 739 1038 626 q 794 915 907 851 q 544 978 681 978 q 297 915 410 978 q 117 739 183 851 q 51 485 51 626 q 117 230 51 343 q 297 53 183 117 q 544 -10 410 -10 m 544 133 q 374 177 449 133 q 256 301 299 221 q 214 485 214 381 q 256 668 214 589 q 374 790 299 747 q 544 833 449 833 q 715 790 640 833 q 833 668 790 747 q 875 485 875 589 q 833 301 875 381 q 715 177 790 221 q 544 133 640 133 m 544 1149 l 743 1029 l 743 1153 l 544 1268 l 346 1153 l 346 1029 l 544 1149 "},"Õ":{"ha":1089,"x_min":51,"x_max":1038,"o":"m 544 -10 q 794 53 681 -10 q 972 230 907 117 q 1038 485 1038 343 q 972 739 1038 626 q 794 915 907 851 q 544 978 681 978 q 297 915 410 978 q 117 739 183 851 q 51 485 51 626 q 117 230 51 343 q 297 53 183 117 q 544 -10 410 -10 m 544 133 q 374 177 449 133 q 256 301 299 221 q 214 485 214 381 q 256 668 214 589 q 374 790 299 747 q 544 833 449 833 q 715 790 640 833 q 833 668 790 747 q 875 485 875 589 q 833 301 875 381 q 715 177 790 221 q 544 133 640 133 m 318 1046 l 407 1046 q 427 1090 411 1075 q 467 1106 443 1106 q 497 1099 483 1106 q 535 1078 510 1093 q 581 1052 560 1061 q 628 1043 601 1043 q 732 1084 690 1043 q 785 1206 774 1125 l 696 1206 q 676 1162 692 1176 q 636 1147 660 1147 q 603 1154 618 1147 q 568 1175 589 1161 q 521 1200 540 1192 q 475 1208 501 1208 q 371 1167 413 1208 q 318 1046 329 1126 "},"Ö":{"ha":1089,"x_min":51,"x_max":1038,"o":"m 544 -10 q 794 53 681 -10 q 972 230 907 117 q 1038 485 1038 343 q 972 739 1038 626 q 794 915 907 851 q 544 978 681 978 q 297 915 410 978 q 117 739 183 851 q 51 485 51 626 q 117 230 51 343 q 297 53 183 117 q 544 -10 410 -10 m 544 133 q 374 177 449 133 q 256 301 299 221 q 214 485 214 381 q 256 668 214 589 q 374 790 299 747 q 544 833 449 833 q 715 790 640 833 q 833 668 790 747 q 875 485 875 589 q 833 301 875 381 q 715 177 790 221 q 544 133 640 133 m 425 1063 q 484 1087 460 1063 q 508 1146 508 1111 q 484 1205 508 1181 q 425 1229 460 1229 q 366 1205 390 1229 q 342 1146 342 1181 q 366 1087 342 1111 q 425 1063 390 1063 m 664 1063 q 723 1087 699 1063 q 747 1146 747 1111 q 723 1205 747 1181 q 664 1229 699 1229 q 605 1205 629 1229 q 581 1146 581 1181 q 605 1087 581 1111 q 664 1063 629 1063 "},"×":{"ha":971,"x_min":171,"x_max":799,"o":"m 697 192 l 799 293 l 589 504 l 796 711 l 692 815 l 485 608 l 278 815 l 176 714 l 383 507 l 171 296 l 275 192 l 486 403 l 697 192 "},"Ø":{"ha":1089,"x_min":36,"x_max":1053,"o":"m 915 818 l 1053 967 l 926 967 l 847 881 q 707 953 785 928 q 544 978 629 978 q 297 915 410 978 q 117 739 183 851 q 51 485 51 626 q 84 302 51 388 q 175 150 117 217 l 36 0 l 163 0 l 243 88 q 383 15 306 40 q 544 -10 460 -10 q 794 53 681 -10 q 972 230 907 117 q 1038 485 1038 343 q 1006 667 1038 582 q 915 818 974 753 m 214 485 q 256 668 214 589 q 374 790 299 747 q 544 833 449 833 q 746 771 661 833 l 279 264 q 214 485 214 356 m 875 485 q 833 301 875 381 q 715 177 790 221 q 544 133 640 133 q 344 197 428 133 l 811 704 q 875 485 875 611 "},"Ù":{"ha":958,"x_min":103,"x_max":857,"o":"m 261 965 l 103 965 l 103 353 q 153 153 103 235 q 288 31 203 71 q 478 -10 374 -10 q 668 31 582 -10 q 806 153 754 71 q 857 353 857 235 l 857 965 l 699 965 l 699 353 q 641 188 699 243 q 479 132 583 132 q 319 188 376 132 q 261 353 261 243 l 261 965 m 622 1138 l 315 1307 l 315 1172 l 622 1021 l 622 1138 "},"Ú":{"ha":958,"x_min":103,"x_max":857,"o":"m 261 965 l 103 965 l 103 353 q 153 153 103 235 q 288 31 203 71 q 478 -10 374 -10 q 668 31 582 -10 q 806 153 754 71 q 857 353 857 235 l 857 965 l 699 965 l 699 353 q 641 188 699 243 q 479 132 583 132 q 319 188 376 132 q 261 353 261 243 l 261 965 m 622 1172 l 622 1307 l 315 1138 l 315 1021 l 622 1172 "},"Û":{"ha":958,"x_min":103,"x_max":857,"o":"m 261 965 l 103 965 l 103 353 q 153 153 103 235 q 288 31 203 71 q 478 -10 374 -10 q 668 31 582 -10 q 806 153 754 71 q 857 353 857 235 l 857 965 l 699 965 l 699 353 q 641 188 699 243 q 479 132 583 132 q 319 188 376 132 q 261 353 261 243 l 261 965 m 479 1149 l 678 1029 l 678 1153 l 479 1268 l 281 1153 l 281 1029 l 479 1149 "},"Ü":{"ha":958,"x_min":103,"x_max":857,"o":"m 261 965 l 103 965 l 103 353 q 153 153 103 235 q 288 31 203 71 q 478 -10 374 -10 q 668 31 582 -10 q 806 153 754 71 q 857 353 857 235 l 857 965 l 699 965 l 699 353 q 641 188 699 243 q 479 132 583 132 q 319 188 376 132 q 261 353 261 243 l 261 965 m 360 1063 q 419 1087 394 1063 q 443 1146 443 1111 q 419 1205 443 1181 q 360 1229 394 1229 q 301 1205 325 1229 q 276 1146 276 1181 q 301 1087 276 1111 q 360 1063 325 1063 m 599 1063 q 658 1087 633 1063 q 682 1146 682 1111 q 658 1205 682 1181 q 599 1229 633 1229 q 540 1205 564 1229 q 515 1146 515 1181 q 540 1087 515 1111 q 599 1063 564 1063 "},"Ý":{"ha":840,"x_min":21,"x_max":819,"o":"m 819 965 l 642 965 l 419 494 l 197 965 l 21 965 l 342 350 l 342 0 l 500 0 l 500 350 l 819 965 m 564 1172 l 564 1307 l 257 1138 l 257 1021 l 564 1172 "},"Þ":{"ha":826,"x_min":104,"x_max":779,"o":"m 779 483 q 741 629 779 564 q 626 733 703 694 q 438 771 549 771 l 261 771 l 261 967 l 104 967 l 104 0 l 263 0 l 263 197 l 438 197 q 633 238 557 197 q 744 344 710 279 q 779 483 779 410 m 438 321 l 263 321 l 263 647 l 438 647 q 572 603 528 647 q 617 483 617 560 q 572 364 617 407 q 438 321 528 321 "},"ß":{"ha":947,"x_min":104,"x_max":910,"o":"m 724 535 l 614 601 q 682 692 658 639 q 706 800 706 746 q 673 918 706 863 q 574 1008 640 974 q 413 1042 508 1042 q 189 963 274 1042 q 104 751 104 885 l 104 0 l 263 0 l 263 754 q 303 863 263 822 q 406 904 344 904 q 503 865 464 904 q 543 769 543 826 q 524 692 543 724 q 464 638 504 660 l 424 615 l 424 538 l 640 404 q 722 332 697 369 q 747 249 747 294 q 713 161 747 197 q 619 125 678 125 q 531 156 563 125 q 497 239 500 186 l 346 239 q 381 107 346 164 q 477 19 415 50 q 619 -12 539 -12 q 770 22 704 -12 q 873 117 836 56 q 910 256 910 178 q 866 410 910 344 q 724 535 822 475 "},"à":{"ha":942,"x_min":51,"x_max":838,"o":"m 51 386 q 99 180 51 271 q 229 38 147 89 q 410 -12 311 -12 q 568 24 499 -12 q 678 114 638 60 l 678 0 l 838 0 l 838 765 l 678 765 l 678 654 q 570 742 638 707 q 413 778 503 778 q 230 728 313 778 q 99 590 147 679 q 51 386 51 501 m 678 383 q 645 245 678 304 q 560 156 613 186 q 446 125 507 125 q 333 156 386 125 q 247 247 279 188 q 214 386 214 307 q 247 523 214 465 q 332 610 279 581 q 446 640 385 640 q 560 610 507 640 q 645 521 613 579 q 678 383 678 463 m 614 936 l 307 1106 l 307 971 l 614 819 l 614 936 "},"á":{"ha":942,"x_min":51,"x_max":838,"o":"m 51 386 q 99 180 51 271 q 229 38 147 89 q 410 -12 311 -12 q 568 24 499 -12 q 678 114 638 60 l 678 0 l 838 0 l 838 765 l 678 765 l 678 654 q 570 742 638 707 q 413 778 503 778 q 230 728 313 778 q 99 590 147 679 q 51 386 51 501 m 678 383 q 645 245 678 304 q 560 156 613 186 q 446 125 507 125 q 333 156 386 125 q 247 247 279 188 q 214 386 214 307 q 247 523 214 465 q 332 610 279 581 q 446 640 385 640 q 560 610 507 640 q 645 521 613 579 q 678 383 678 463 m 614 971 l 614 1106 l 307 936 l 307 819 l 614 971 "},"â":{"ha":942,"x_min":51,"x_max":838,"o":"m 51 386 q 99 180 51 271 q 229 38 147 89 q 410 -12 311 -12 q 568 24 499 -12 q 678 114 638 60 l 678 0 l 838 0 l 838 765 l 678 765 l 678 654 q 570 742 638 707 q 413 778 503 778 q 230 728 313 778 q 99 590 147 679 q 51 386 51 501 m 678 383 q 645 245 678 304 q 560 156 613 186 q 446 125 507 125 q 333 156 386 125 q 247 247 279 188 q 214 386 214 307 q 247 523 214 465 q 332 610 279 581 q 446 640 385 640 q 560 610 507 640 q 645 521 613 579 q 678 383 678 463 m 471 947 l 669 828 l 669 951 l 471 1067 l 272 951 l 272 828 l 471 947 "},"ã":{"ha":942,"x_min":51,"x_max":838,"o":"m 51 386 q 99 180 51 271 q 229 38 147 89 q 410 -12 311 -12 q 568 24 499 -12 q 678 114 638 60 l 678 0 l 838 0 l 838 765 l 678 765 l 678 654 q 570 742 638 707 q 413 778 503 778 q 230 728 313 778 q 99 590 147 679 q 51 386 51 501 m 678 383 q 645 245 678 304 q 560 156 613 186 q 446 125 507 125 q 333 156 386 125 q 247 247 279 188 q 214 386 214 307 q 247 523 214 465 q 332 610 279 581 q 446 640 385 640 q 560 610 507 640 q 645 521 613 579 q 678 383 678 463 m 244 844 l 333 844 q 353 889 338 874 q 393 904 369 904 q 423 898 410 904 q 461 876 436 892 q 507 851 486 860 q 554 842 528 842 q 658 883 617 842 q 711 1004 700 924 l 622 1004 q 602 960 618 975 q 563 946 586 946 q 530 953 544 946 q 494 974 515 960 q 447 999 467 990 q 401 1007 428 1007 q 297 966 339 1007 q 244 844 256 925 "},"ä":{"ha":942,"x_min":51,"x_max":838,"o":"m 51 386 q 99 180 51 271 q 229 38 147 89 q 410 -12 311 -12 q 568 24 499 -12 q 678 114 638 60 l 678 0 l 838 0 l 838 765 l 678 765 l 678 654 q 570 742 638 707 q 413 778 503 778 q 230 728 313 778 q 99 590 147 679 q 51 386 51 501 m 678 383 q 645 245 678 304 q 560 156 613 186 q 446 125 507 125 q 333 156 386 125 q 247 247 279 188 q 214 386 214 307 q 247 523 214 465 q 332 610 279 581 q 446 640 385 640 q 560 610 507 640 q 645 521 613 579 q 678 383 678 463 m 351 861 q 410 885 386 861 q 435 944 435 910 q 410 1003 435 979 q 351 1028 386 1028 q 292 1003 317 1028 q 268 944 268 979 q 292 885 268 910 q 351 861 317 861 m 590 861 q 649 885 625 861 q 674 944 674 910 q 649 1003 674 979 q 590 1028 625 1028 q 531 1003 556 1028 q 507 944 507 979 q 531 885 507 910 q 590 861 556 861 "},"å":{"ha":942,"x_min":51,"x_max":838,"o":"m 51 386 q 99 180 51 271 q 229 38 147 89 q 410 -12 311 -12 q 568 24 499 -12 q 678 114 638 60 l 678 0 l 838 0 l 838 765 l 678 765 l 678 654 q 570 742 638 707 q 413 778 503 778 q 230 728 313 778 q 99 590 147 679 q 51 386 51 501 m 678 383 q 645 245 678 304 q 560 156 613 186 q 446 125 507 125 q 333 156 386 125 q 247 247 279 188 q 214 386 214 307 q 247 523 214 465 q 332 610 279 581 q 446 640 385 640 q 560 610 507 640 q 645 521 613 579 q 678 383 678 463 m 319 992 q 363 882 319 924 q 471 840 407 840 q 579 882 536 840 q 622 992 622 924 q 579 1103 622 1061 q 471 1144 536 1144 q 363 1103 407 1144 q 319 992 319 1061 m 543 993 q 522 942 543 963 q 471 922 501 922 q 421 942 442 922 q 400 993 400 963 q 420 1044 400 1025 q 471 1064 440 1064 q 522 1044 501 1064 q 543 993 543 1025 "},"æ":{"ha":1507,"x_min":51,"x_max":1456,"o":"m 1456 404 q 1410 597 1456 511 q 1282 730 1364 682 q 1096 778 1200 778 q 947 749 1013 778 q 828 657 882 721 l 828 765 l 679 765 l 679 657 q 421 778 588 778 q 232 729 317 778 q 99 591 147 681 q 51 386 51 501 q 99 180 51 271 q 230 38 147 89 q 413 -12 313 -12 q 565 23 496 -12 q 679 115 633 58 l 679 0 l 828 0 l 828 115 q 940 23 868 58 q 1096 -12 1013 -12 q 1312 55 1224 -12 q 1435 228 1400 122 l 1263 228 q 1194 150 1243 179 q 1068 121 1144 121 q 967 145 1017 121 q 883 217 918 169 q 840 329 849 264 l 1450 329 q 1456 404 1456 364 m 1292 443 l 840 443 q 919 589 854 533 q 1069 644 983 644 q 1227 589 1164 644 q 1292 443 1290 533 m 446 125 q 333 156 386 125 q 247 247 279 188 q 214 386 214 307 q 247 523 214 465 q 332 610 279 581 q 446 640 385 640 q 560 610 507 640 q 645 521 613 579 q 678 383 678 463 q 645 245 678 304 q 560 156 613 186 q 446 125 507 125 "},"ç":{"ha":833,"x_min":51,"x_max":779,"o":"m 51 383 q 99 176 51 265 q 232 37 147 86 q 426 -12 317 -12 q 654 56 563 -12 q 779 242 746 125 l 608 242 q 426 121 564 121 q 272 190 329 121 q 214 383 214 260 q 272 576 214 507 q 426 644 329 644 q 542 613 496 644 q 608 524 588 581 l 779 524 q 656 712 747 646 q 426 778 565 778 q 232 729 317 778 q 99 591 147 681 q 51 383 51 501 m 474 -67 l 474 10 l 369 10 l 369 -161 l 446 -161 q 504 -172 485 -161 q 524 -212 524 -183 q 504 -253 524 -242 q 446 -264 485 -264 l 294 -264 l 294 -364 l 478 -364 q 604 -323 554 -364 q 654 -212 654 -282 q 604 -105 654 -143 q 474 -67 554 -67 "},"è":{"ha":857,"x_min":51,"x_max":806,"o":"m 806 404 q 758 599 806 514 q 626 731 711 683 q 433 778 542 778 q 234 729 321 778 q 99 591 147 681 q 51 383 51 501 q 101 176 51 265 q 237 37 150 86 q 433 -12 324 -12 q 659 55 568 -12 q 785 228 750 122 l 614 228 q 433 121 561 121 q 282 177 343 121 q 214 329 221 233 l 800 329 q 806 404 806 364 m 640 443 l 215 443 q 284 590 225 536 q 426 644 343 644 q 578 590 518 644 q 640 443 639 536 m 572 936 l 265 1106 l 265 971 l 572 819 l 572 936 "},"é":{"ha":857,"x_min":51,"x_max":806,"o":"m 806 404 q 758 599 806 514 q 626 731 711 683 q 433 778 542 778 q 234 729 321 778 q 99 591 147 681 q 51 383 51 501 q 101 176 51 265 q 237 37 150 86 q 433 -12 324 -12 q 659 55 568 -12 q 785 228 750 122 l 614 228 q 433 121 561 121 q 282 177 343 121 q 214 329 221 233 l 800 329 q 806 404 806 364 m 640 443 l 215 443 q 284 590 225 536 q 426 644 343 644 q 578 590 518 644 q 640 443 639 536 m 572 971 l 572 1106 l 265 936 l 265 819 l 572 971 "},"ê":{"ha":857,"x_min":51,"x_max":806,"o":"m 806 404 q 758 599 806 514 q 626 731 711 683 q 433 778 542 778 q 234 729 321 778 q 99 591 147 681 q 51 383 51 501 q 101 176 51 265 q 237 37 150 86 q 433 -12 324 -12 q 659 55 568 -12 q 785 228 750 122 l 614 228 q 433 121 561 121 q 282 177 343 121 q 214 329 221 233 l 800 329 q 806 404 806 364 m 640 443 l 215 443 q 284 590 225 536 q 426 644 343 644 q 578 590 518 644 q 640 443 639 536 m 429 947 l 628 828 l 628 951 l 429 1067 l 231 951 l 231 828 l 429 947 "},"ë":{"ha":857,"x_min":51,"x_max":806,"o":"m 806 404 q 758 599 806 514 q 626 731 711 683 q 433 778 542 778 q 234 729 321 778 q 99 591 147 681 q 51 383 51 501 q 101 176 51 265 q 237 37 150 86 q 433 -12 324 -12 q 659 55 568 -12 q 785 228 750 122 l 614 228 q 433 121 561 121 q 282 177 343 121 q 214 329 221 233 l 800 329 q 806 404 806 364 m 640 443 l 215 443 q 284 590 225 536 q 426 644 343 644 q 578 590 518 644 q 640 443 639 536 m 310 861 q 369 885 344 861 q 393 944 393 910 q 369 1003 393 979 q 310 1028 344 1028 q 251 1003 275 1028 q 226 944 226 979 q 251 885 226 910 q 310 861 275 861 m 549 861 q 608 885 583 861 q 632 944 632 910 q 608 1003 632 979 q 549 1028 583 1028 q 490 1003 514 1028 q 465 944 465 979 q 490 885 465 910 q 549 861 514 861 "},"ì":{"ha":367,"x_min":19,"x_max":326,"o":"m 263 765 l 104 765 l 104 0 l 263 0 l 263 765 m 326 936 l 19 1106 l 19 971 l 326 819 l 326 936 "},"í":{"ha":367,"x_min":19,"x_max":326,"o":"m 263 765 l 104 765 l 104 0 l 263 0 l 263 765 m 326 971 l 326 1106 l 19 936 l 19 819 l 326 971 "},"î":{"ha":367,"x_min":-15,"x_max":382,"o":"m 263 765 l 104 765 l 104 0 l 263 0 l 263 765 m 183 947 l 382 828 l 382 951 l 183 1067 l -15 951 l -15 828 l 183 947 "},"ï":{"ha":367,"x_min":-19,"x_max":386,"o":"m 263 765 l 104 765 l 104 0 l 263 0 l 263 765 m 64 861 q 123 885 99 861 q 147 944 147 910 q 123 1003 147 979 q 64 1028 99 1028 q 5 1003 29 1028 q -19 944 -19 979 q 5 885 -19 910 q 64 861 29 861 m 303 861 q 362 885 338 861 q 386 944 386 910 q 362 1003 386 979 q 303 1028 338 1028 q 244 1003 268 1028 q 219 944 219 979 q 244 885 219 910 q 303 861 268 861 "},"ð":{"ha":883,"x_min":51,"x_max":832,"o":"m 653 910 l 765 947 l 765 1032 l 592 975 q 535 1028 564 1003 l 374 1028 q 476 938 429 982 l 367 901 l 367 817 l 538 872 q 647 699 608 789 q 547 758 600 739 q 426 778 494 778 q 237 729 322 778 q 101 590 151 681 q 51 383 51 500 q 101 176 51 265 q 239 37 151 86 q 436 -12 326 -12 q 640 39 550 -12 q 781 192 729 90 q 832 440 832 294 q 653 910 832 699 m 436 121 q 324 151 375 121 q 244 240 274 181 q 214 383 214 300 q 244 526 214 467 q 326 615 275 585 q 439 644 378 644 q 553 615 500 644 q 638 526 606 585 q 669 383 669 467 q 637 241 669 300 q 551 151 604 182 q 436 121 497 121 "},"ñ":{"ha":901,"x_min":104,"x_max":804,"o":"m 490 778 q 362 751 422 778 q 263 678 301 725 l 263 765 l 104 765 l 104 0 l 263 0 l 263 428 q 315 585 263 531 q 456 640 367 640 q 596 585 544 640 q 647 428 647 531 l 647 0 l 804 0 l 804 451 q 764 629 804 556 q 652 740 724 703 q 490 778 581 778 m 239 844 l 328 844 q 348 889 332 874 q 388 904 364 904 q 417 898 404 904 q 456 876 431 892 q 501 851 481 860 q 549 842 522 842 q 653 883 611 842 q 706 1004 694 924 l 617 1004 q 597 960 613 975 q 557 946 581 946 q 524 953 539 946 q 489 974 510 960 q 442 999 461 990 q 396 1007 422 1007 q 292 966 333 1007 q 239 844 250 925 "},"ò":{"ha":886,"x_min":53,"x_max":833,"o":"m 436 -12 q 637 37 546 -12 q 781 176 728 86 q 833 383 833 267 q 782 590 833 500 q 642 729 731 681 q 443 778 553 778 q 244 729 333 778 q 104 590 156 681 q 53 383 53 500 q 103 176 53 265 q 240 37 153 86 q 436 -12 328 -12 m 436 121 q 324 151 375 121 q 244 240 274 181 q 214 383 214 300 q 245 526 214 467 q 328 615 276 585 q 440 644 379 644 q 554 615 501 644 q 639 526 607 585 q 671 383 671 467 q 638 241 671 300 q 551 151 604 182 q 436 121 497 121 m 586 936 l 279 1106 l 279 971 l 586 819 l 586 936 "},"ó":{"ha":886,"x_min":53,"x_max":833,"o":"m 436 -12 q 637 37 546 -12 q 781 176 728 86 q 833 383 833 267 q 782 590 833 500 q 642 729 731 681 q 443 778 553 778 q 244 729 333 778 q 104 590 156 681 q 53 383 53 500 q 103 176 53 265 q 240 37 153 86 q 436 -12 328 -12 m 436 121 q 324 151 375 121 q 244 240 274 181 q 214 383 214 300 q 245 526 214 467 q 328 615 276 585 q 440 644 379 644 q 554 615 501 644 q 639 526 607 585 q 671 383 671 467 q 638 241 671 300 q 551 151 604 182 q 436 121 497 121 m 586 971 l 586 1106 l 279 936 l 279 819 l 586 971 "},"ô":{"ha":886,"x_min":53,"x_max":833,"o":"m 436 -12 q 637 37 546 -12 q 781 176 728 86 q 833 383 833 267 q 782 590 833 500 q 642 729 731 681 q 443 778 553 778 q 244 729 333 778 q 104 590 156 681 q 53 383 53 500 q 103 176 53 265 q 240 37 153 86 q 436 -12 328 -12 m 436 121 q 324 151 375 121 q 244 240 274 181 q 214 383 214 300 q 245 526 214 467 q 328 615 276 585 q 440 644 379 644 q 554 615 501 644 q 639 526 607 585 q 671 383 671 467 q 638 241 671 300 q 551 151 604 182 q 436 121 497 121 m 443 947 l 642 828 l 642 951 l 443 1067 l 244 951 l 244 828 l 443 947 "},"õ":{"ha":886,"x_min":53,"x_max":833,"o":"m 436 -12 q 637 37 546 -12 q 781 176 728 86 q 833 383 833 267 q 782 590 833 500 q 642 729 731 681 q 443 778 553 778 q 244 729 333 778 q 104 590 156 681 q 53 383 53 500 q 103 176 53 265 q 240 37 153 86 q 436 -12 328 -12 m 436 121 q 324 151 375 121 q 244 240 274 181 q 214 383 214 300 q 245 526 214 467 q 328 615 276 585 q 440 644 379 644 q 554 615 501 644 q 639 526 607 585 q 671 383 671 467 q 638 241 671 300 q 551 151 604 182 q 436 121 497 121 m 217 844 l 306 844 q 326 889 310 874 q 365 904 342 904 q 395 898 382 904 q 433 876 408 892 q 479 851 458 860 q 526 842 500 842 q 631 883 589 842 q 683 1004 672 924 l 594 1004 q 574 960 590 975 q 535 946 558 946 q 502 953 517 946 q 467 974 488 960 q 419 999 439 990 q 374 1007 400 1007 q 269 966 311 1007 q 217 844 228 925 "},"ö":{"ha":886,"x_min":53,"x_max":833,"o":"m 436 -12 q 637 37 546 -12 q 781 176 728 86 q 833 383 833 267 q 782 590 833 500 q 642 729 731 681 q 443 778 553 778 q 244 729 333 778 q 104 590 156 681 q 53 383 53 500 q 103 176 53 265 q 240 37 153 86 q 436 -12 328 -12 m 436 121 q 324 151 375 121 q 244 240 274 181 q 214 383 214 300 q 245 526 214 467 q 328 615 276 585 q 440 644 379 644 q 554 615 501 644 q 639 526 607 585 q 671 383 671 467 q 638 241 671 300 q 551 151 604 182 q 436 121 497 121 m 324 861 q 383 885 358 861 q 407 944 407 910 q 383 1003 407 979 q 324 1028 358 1028 q 265 1003 289 1028 q 240 944 240 979 q 265 885 240 910 q 324 861 289 861 m 563 861 q 622 885 597 861 q 646 944 646 910 q 622 1003 646 979 q 563 1028 597 1028 q 503 1003 528 1028 q 479 944 479 979 q 503 885 479 910 q 563 861 528 861 "},"÷":{"ha":943,"x_min":125,"x_max":833,"o":"m 569 889 l 390 889 l 390 706 l 569 706 l 569 889 m 833 572 l 125 572 l 125 432 l 833 432 l 833 572 m 569 299 l 390 299 l 390 114 l 569 114 l 569 299 "},"ø":{"ha":886,"x_min":39,"x_max":847,"o":"m 740 649 l 847 765 l 738 765 l 681 704 q 443 778 579 778 q 244 729 333 778 q 104 590 156 681 q 53 383 53 500 q 144 115 53 222 l 39 0 l 149 0 l 204 60 q 436 -12 303 -12 q 637 37 546 -12 q 781 176 728 86 q 833 383 833 267 q 740 649 833 542 m 214 383 q 245 526 214 467 q 328 615 276 585 q 440 644 379 644 q 582 594 521 644 l 249 231 q 214 383 214 293 m 671 383 q 638 241 671 300 q 551 151 604 182 q 436 121 497 121 q 301 167 358 121 l 635 532 q 671 383 671 469 "},"ù":{"ha":901,"x_min":97,"x_max":797,"o":"m 797 765 l 639 765 l 639 339 q 587 181 639 236 q 446 126 535 126 q 306 181 357 126 q 254 339 254 236 l 254 765 l 97 765 l 97 315 q 138 138 97 211 q 251 26 179 64 q 413 -11 322 -11 q 541 16 481 -11 q 639 90 601 43 l 639 0 l 797 0 l 797 765 m 594 936 l 288 1106 l 288 971 l 594 819 l 594 936 "},"ú":{"ha":901,"x_min":97,"x_max":797,"o":"m 797 765 l 639 765 l 639 339 q 587 181 639 236 q 446 126 535 126 q 306 181 357 126 q 254 339 254 236 l 254 765 l 97 765 l 97 315 q 138 138 97 211 q 251 26 179 64 q 413 -11 322 -11 q 541 16 481 -11 q 639 90 601 43 l 639 0 l 797 0 l 797 765 m 594 971 l 594 1106 l 288 936 l 288 819 l 594 971 "},"û":{"ha":901,"x_min":97,"x_max":797,"o":"m 797 765 l 639 765 l 639 339 q 587 181 639 236 q 446 126 535 126 q 306 181 357 126 q 254 339 254 236 l 254 765 l 97 765 l 97 315 q 138 138 97 211 q 251 26 179 64 q 413 -11 322 -11 q 541 16 481 -11 q 639 90 601 43 l 639 0 l 797 0 l 797 765 m 451 947 l 650 828 l 650 951 l 451 1067 l 253 951 l 253 828 l 451 947 "},"ü":{"ha":901,"x_min":97,"x_max":797,"o":"m 797 765 l 639 765 l 639 339 q 587 181 639 236 q 446 126 535 126 q 306 181 357 126 q 254 339 254 236 l 254 765 l 97 765 l 97 315 q 138 138 97 211 q 251 26 179 64 q 413 -11 322 -11 q 541 16 481 -11 q 639 90 601 43 l 639 0 l 797 0 l 797 765 m 332 861 q 391 885 367 861 q 415 944 415 910 q 391 1003 415 979 q 332 1028 367 1028 q 273 1003 297 1028 q 249 944 249 979 q 273 885 249 910 q 332 861 297 861 m 571 861 q 630 885 606 861 q 654 944 654 910 q 630 1003 654 979 q 571 1028 606 1028 q 512 1003 536 1028 q 488 944 488 979 q 512 885 488 910 q 571 861 536 861 "},"ý":{"ha":808,"x_min":14,"x_max":793,"o":"m 190 765 l 14 765 l 315 13 l 160 -360 l 324 -360 l 793 765 l 629 765 l 406 182 l 190 765 m 547 971 l 547 1106 l 240 936 l 240 819 l 547 971 "},"þ":{"ha":942,"x_min":104,"x_max":889,"o":"m 263 629 l 263 1028 l 104 1028 l 104 -364 l 263 -364 l 263 143 q 371 30 303 72 q 529 -12 439 -12 q 712 38 629 -12 q 842 180 794 89 q 889 386 889 271 q 842 590 889 501 q 712 728 794 679 q 529 778 629 778 q 370 737 439 778 q 263 629 301 696 m 728 386 q 695 247 728 307 q 609 156 663 188 q 494 125 556 125 q 381 156 435 125 q 295 245 328 186 q 263 383 263 304 q 295 521 263 463 q 381 610 328 579 q 494 640 435 640 q 609 610 556 640 q 695 523 663 581 q 728 386 728 465 "},"ÿ":{"ha":808,"x_min":14,"x_max":793,"o":"m 190 765 l 14 765 l 315 13 l 160 -360 l 324 -360 l 793 765 l 629 765 l 406 182 l 190 765 m 285 861 q 344 885 319 861 q 368 944 368 910 q 344 1003 368 979 q 285 1028 319 1028 q 226 1003 250 1028 q 201 944 201 979 q 226 885 201 910 q 285 861 250 861 m 524 861 q 583 885 558 861 q 607 944 607 910 q 583 1003 607 979 q 524 1028 558 1028 q 465 1003 489 1028 q 440 944 440 979 q 465 885 440 910 q 524 861 489 861 "},"Ā":{"ha":968,"x_min":47,"x_max":922,"o":"m 686 197 l 756 0 l 922 0 l 576 967 l 393 967 l 47 0 l 213 0 l 282 197 l 686 197 m 643 321 l 325 321 l 485 775 l 643 321 m 739 1201 l 231 1201 l 231 1083 l 739 1083 l 739 1201 "},"ā":{"ha":942,"x_min":51,"x_max":838,"o":"m 51 386 q 99 180 51 271 q 229 38 147 89 q 410 -12 311 -12 q 568 24 499 -12 q 678 114 638 60 l 678 0 l 838 0 l 838 765 l 678 765 l 678 654 q 570 742 638 707 q 413 778 503 778 q 230 728 313 778 q 99 590 147 679 q 51 386 51 501 m 678 383 q 645 245 678 304 q 560 156 613 186 q 446 125 507 125 q 333 156 386 125 q 247 247 279 188 q 214 386 214 307 q 247 523 214 465 q 332 610 279 581 q 446 640 385 640 q 560 610 507 640 q 645 521 613 579 q 678 383 678 463 m 725 1000 l 217 1000 l 217 882 l 725 882 l 725 1000 "},"Ă":{"ha":968,"x_min":47,"x_max":922,"o":"m 686 197 l 756 0 l 922 0 l 576 967 l 393 967 l 47 0 l 213 0 l 282 197 l 686 197 m 643 321 l 325 321 l 485 775 l 643 321 m 694 1239 l 694 1269 l 603 1269 q 576 1194 603 1219 q 485 1169 550 1169 q 393 1194 419 1169 q 367 1269 367 1219 l 276 1269 l 276 1240 q 332 1099 276 1153 q 485 1046 388 1046 q 638 1099 582 1046 q 694 1239 694 1151 "},"ă":{"ha":942,"x_min":51,"x_max":838,"o":"m 51 386 q 99 180 51 271 q 229 38 147 89 q 410 -12 311 -12 q 568 24 499 -12 q 678 114 638 60 l 678 0 l 838 0 l 838 765 l 678 765 l 678 654 q 570 742 638 707 q 413 778 503 778 q 230 728 313 778 q 99 590 147 679 q 51 386 51 501 m 678 383 q 645 245 678 304 q 560 156 613 186 q 446 125 507 125 q 333 156 386 125 q 247 247 279 188 q 214 386 214 307 q 247 523 214 465 q 332 610 279 581 q 446 640 385 640 q 560 610 507 640 q 645 521 613 579 q 678 383 678 463 m 681 1038 l 681 1068 l 589 1068 q 563 993 589 1018 q 471 968 536 968 q 379 993 406 968 q 353 1068 353 1018 l 263 1068 l 263 1039 q 318 898 263 951 q 471 844 374 844 q 624 897 568 844 q 681 1038 681 950 "},"Ą":{"ha":968,"x_min":47,"x_max":943,"o":"m 851 -190 q 796 -173 817 -190 q 775 -126 775 -156 q 793 -78 775 -100 q 854 -35 811 -57 l 922 0 l 576 967 l 393 967 l 47 0 l 213 0 l 282 197 l 686 197 l 750 15 q 646 -143 646 -51 q 701 -256 646 -219 q 831 -293 756 -293 q 943 -272 890 -293 l 943 -171 q 851 -190 893 -190 m 643 321 l 325 321 l 485 775 l 643 321 "},"ą":{"ha":942,"x_min":51,"x_max":858,"o":"m 51 386 q 99 180 51 271 q 229 38 147 89 q 410 -12 311 -12 q 568 24 499 -12 q 678 114 638 60 l 678 0 l 838 0 l 838 765 l 678 765 l 678 654 q 570 742 638 707 q 413 778 503 778 q 230 728 313 778 q 99 590 147 679 q 51 386 51 501 m 678 383 q 645 245 678 304 q 560 156 613 186 q 446 125 507 125 q 333 156 386 125 q 247 247 279 188 q 214 386 214 307 q 247 523 214 465 q 332 610 279 581 q 446 640 385 640 q 560 610 507 640 q 645 521 613 579 q 678 383 678 463 m 838 0 l 796 81 l 738 54 q 603 -38 644 11 q 561 -143 561 -87 q 616 -256 561 -219 q 746 -293 671 -293 q 858 -272 806 -293 l 858 -171 q 767 -190 808 -190 q 711 -173 732 -190 q 690 -126 690 -156 q 708 -78 690 -100 q 769 -35 726 -57 l 838 0 "},"Ć":{"ha":1074,"x_min":51,"x_max":993,"o":"m 51 485 q 117 231 51 343 q 296 55 183 118 q 544 -8 408 -8 q 819 67 699 -8 q 993 281 939 142 l 803 281 q 699 172 765 208 q 544 135 632 135 q 374 178 449 135 q 256 301 299 221 q 214 485 214 381 q 256 668 214 589 q 374 790 299 747 q 544 833 449 833 q 699 797 632 833 q 803 688 765 760 l 993 688 q 819 902 939 826 q 544 978 699 978 q 297 915 410 978 q 117 739 183 851 q 51 485 51 626 m 679 1172 l 679 1307 l 372 1138 l 372 1021 l 679 1172 "},"ć":{"ha":833,"x_min":51,"x_max":779,"o":"m 51 383 q 99 176 51 265 q 232 37 147 86 q 426 -12 317 -12 q 654 56 563 -12 q 779 242 746 125 l 608 242 q 426 121 564 121 q 272 190 329 121 q 214 383 214 260 q 272 576 214 507 q 426 644 329 644 q 542 613 496 644 q 608 524 588 581 l 779 524 q 656 712 747 646 q 426 778 565 778 q 232 729 317 778 q 99 591 147 681 q 51 383 51 501 m 560 971 l 560 1106 l 253 936 l 253 819 l 560 971 "},"Ċ":{"ha":1074,"x_min":51,"x_max":993,"o":"m 51 485 q 117 231 51 343 q 296 55 183 118 q 544 -8 408 -8 q 819 67 699 -8 q 993 281 939 142 l 803 281 q 699 172 765 208 q 544 135 632 135 q 374 178 449 135 q 256 301 299 221 q 214 485 214 381 q 256 668 214 589 q 374 790 299 747 q 544 833 449 833 q 699 797 632 833 q 803 688 765 760 l 993 688 q 819 902 939 826 q 544 978 699 978 q 297 915 410 978 q 117 739 183 851 q 51 485 51 626 m 536 1063 q 595 1087 571 1063 q 619 1146 619 1111 q 595 1205 619 1181 q 536 1229 571 1229 q 477 1205 501 1229 q 453 1146 453 1181 q 477 1087 453 1111 q 536 1063 501 1063 "},"ċ":{"ha":833,"x_min":51,"x_max":779,"o":"m 51 383 q 99 176 51 265 q 232 37 147 86 q 426 -12 317 -12 q 654 56 563 -12 q 779 242 746 125 l 608 242 q 426 121 564 121 q 272 190 329 121 q 214 383 214 260 q 272 576 214 507 q 426 644 329 644 q 542 613 496 644 q 608 524 588 581 l 779 524 q 656 712 747 646 q 426 778 565 778 q 232 729 317 778 q 99 591 147 681 q 51 383 51 501 m 417 861 q 476 885 451 861 q 500 944 500 910 q 476 1003 500 979 q 417 1028 451 1028 q 358 1003 382 1028 q 333 944 333 979 q 358 885 333 910 q 417 861 382 861 "},"Č":{"ha":1074,"x_min":51,"x_max":993,"o":"m 51 485 q 117 231 51 343 q 296 55 183 118 q 544 -8 408 -8 q 819 67 699 -8 q 993 281 939 142 l 803 281 q 699 172 765 208 q 544 135 632 135 q 374 178 449 135 q 256 301 299 221 q 214 485 214 381 q 256 668 214 589 q 374 790 299 747 q 544 833 449 833 q 699 797 632 833 q 803 688 765 760 l 993 688 q 819 902 939 826 q 544 978 699 978 q 297 915 410 978 q 117 739 183 851 q 51 485 51 626 m 735 1144 l 735 1268 l 536 1149 l 338 1268 l 338 1144 l 536 1029 l 735 1144 "},"č":{"ha":833,"x_min":51,"x_max":779,"o":"m 51 383 q 99 176 51 265 q 232 37 147 86 q 426 -12 317 -12 q 654 56 563 -12 q 779 242 746 125 l 608 242 q 426 121 564 121 q 272 190 329 121 q 214 383 214 260 q 272 576 214 507 q 426 644 329 644 q 542 613 496 644 q 608 524 588 581 l 779 524 q 656 712 747 646 q 426 778 565 778 q 232 729 317 778 q 99 591 147 681 q 51 383 51 501 m 615 943 l 615 1067 l 417 947 l 218 1067 l 218 943 l 417 828 l 615 943 "},"Ď":{"ha":985,"x_min":104,"x_max":932,"o":"m 419 965 l 104 965 l 104 0 l 419 0 q 690 58 574 0 q 869 224 806 115 q 932 479 932 332 q 869 737 932 626 q 690 906 806 847 q 419 965 574 965 m 419 121 l 263 121 l 263 838 l 419 838 q 678 742 588 838 q 769 479 769 647 q 678 217 769 313 q 419 121 588 121 m 692 1144 l 692 1268 l 493 1149 l 294 1268 l 294 1144 l 493 1029 l 692 1144 "},"ď":{"ha":1085,"x_min":51,"x_max":1071,"o":"m 51 386 q 99 180 51 271 q 230 38 147 89 q 413 -12 313 -12 q 570 24 501 -12 q 678 115 639 60 l 678 0 l 838 0 l 838 1028 l 678 1028 l 678 658 q 562 745 635 713 q 414 778 489 778 q 230 728 313 778 q 99 590 147 679 q 51 386 51 501 m 1051 1028 l 908 1028 l 908 893 l 982 893 l 982 864 q 914 786 982 786 l 914 717 q 1071 889 1071 717 q 1051 1028 1071 947 m 678 383 q 645 245 678 304 q 560 156 613 186 q 446 125 507 125 q 333 156 386 125 q 247 247 279 188 q 214 386 214 307 q 247 523 214 465 q 332 610 279 581 q 446 640 385 640 q 560 610 507 640 q 645 521 613 579 q 678 383 678 463 "},"Đ":{"ha":1000,"x_min":13,"x_max":947,"o":"m 436 965 l 119 965 l 119 553 l 13 553 l 13 407 l 119 407 l 119 0 l 436 0 q 706 58 590 0 q 884 224 821 115 q 947 479 947 332 q 884 737 947 626 q 706 906 821 847 q 436 965 590 965 m 436 121 l 279 121 l 279 407 l 526 407 l 526 553 l 279 553 l 279 838 l 436 838 q 694 742 604 838 q 785 479 785 647 q 694 217 785 313 q 436 121 604 121 "},"đ":{"ha":942,"x_min":51,"x_max":919,"o":"m 919 819 l 919 911 l 838 911 l 838 1028 l 678 1028 l 678 911 l 564 911 l 564 819 l 678 819 l 678 658 q 562 745 635 713 q 414 778 489 778 q 230 728 313 778 q 99 590 147 679 q 51 386 51 501 q 99 180 51 271 q 230 38 147 89 q 413 -12 313 -12 q 570 24 501 -12 q 678 115 639 60 l 678 0 l 838 0 l 838 819 l 919 819 m 446 125 q 333 156 386 125 q 247 247 279 188 q 214 386 214 307 q 247 523 214 465 q 332 610 279 581 q 446 640 385 640 q 560 610 507 640 q 645 521 613 579 q 678 383 678 463 q 645 245 678 304 q 560 156 613 186 q 446 125 507 125 "},"Ē":{"ha":728,"x_min":104,"x_max":638,"o":"m 263 843 l 638 843 l 638 967 l 104 967 l 104 0 l 638 0 l 638 124 l 263 124 l 263 428 l 596 428 l 596 550 l 263 550 l 263 843 m 618 1201 l 110 1201 l 110 1083 l 618 1083 l 618 1201 "},"ē":{"ha":857,"x_min":51,"x_max":806,"o":"m 806 404 q 758 599 806 514 q 626 731 711 683 q 433 778 542 778 q 234 729 321 778 q 99 591 147 681 q 51 383 51 501 q 101 176 51 265 q 237 37 150 86 q 433 -12 324 -12 q 659 55 568 -12 q 785 228 750 122 l 614 228 q 433 121 561 121 q 282 177 343 121 q 214 329 221 233 l 800 329 q 806 404 806 364 m 640 443 l 215 443 q 284 590 225 536 q 426 644 343 644 q 578 590 518 644 q 640 443 639 536 m 683 1000 l 175 1000 l 175 882 l 683 882 l 683 1000 "},"Ĕ":{"ha":728,"x_min":104,"x_max":638,"o":"m 263 843 l 638 843 l 638 967 l 104 967 l 104 0 l 638 0 l 638 124 l 263 124 l 263 428 l 596 428 l 596 550 l 263 550 l 263 843 m 574 1239 l 574 1269 l 482 1269 q 456 1194 482 1219 q 364 1169 429 1169 q 272 1194 299 1169 q 246 1269 246 1219 l 156 1269 l 156 1240 q 211 1099 156 1153 q 364 1046 267 1046 q 517 1099 461 1046 q 574 1239 574 1151 "},"ĕ":{"ha":857,"x_min":51,"x_max":806,"o":"m 806 404 q 758 599 806 514 q 626 731 711 683 q 433 778 542 778 q 234 729 321 778 q 99 591 147 681 q 51 383 51 501 q 101 176 51 265 q 237 37 150 86 q 433 -12 324 -12 q 659 55 568 -12 q 785 228 750 122 l 614 228 q 433 121 561 121 q 282 177 343 121 q 214 329 221 233 l 800 329 q 806 404 806 364 m 640 443 l 215 443 q 284 590 225 536 q 426 644 343 644 q 578 590 518 644 q 640 443 639 536 m 639 1038 l 639 1068 l 547 1068 q 521 993 547 1018 q 429 968 494 968 q 338 993 364 968 q 311 1068 311 1018 l 221 1068 l 221 1039 q 276 898 221 951 q 429 844 332 844 q 583 897 526 844 q 639 1038 639 950 "},"Ė":{"ha":728,"x_min":104,"x_max":638,"o":"m 263 843 l 638 843 l 638 967 l 104 967 l 104 0 l 638 0 l 638 124 l 263 124 l 263 428 l 596 428 l 596 550 l 263 550 l 263 843 m 364 1063 q 423 1087 399 1063 q 447 1146 447 1111 q 423 1205 447 1181 q 364 1229 399 1229 q 305 1205 329 1229 q 281 1146 281 1181 q 305 1087 281 1111 q 364 1063 329 1063 "},"ė":{"ha":857,"x_min":51,"x_max":806,"o":"m 806 404 q 758 599 806 514 q 626 731 711 683 q 433 778 542 778 q 234 729 321 778 q 99 591 147 681 q 51 383 51 501 q 101 176 51 265 q 237 37 150 86 q 433 -12 324 -12 q 659 55 568 -12 q 785 228 750 122 l 614 228 q 433 121 561 121 q 282 177 343 121 q 214 329 221 233 l 800 329 q 806 404 806 364 m 640 443 l 215 443 q 284 590 225 536 q 426 644 343 644 q 578 590 518 644 q 640 443 639 536 m 429 861 q 488 885 464 861 q 513 944 513 910 q 488 1003 513 979 q 429 1028 464 1028 q 370 1003 394 1028 q 346 944 346 979 q 370 885 346 910 q 429 861 394 861 "},"Ę":{"ha":728,"x_min":104,"x_max":658,"o":"m 263 843 l 638 843 l 638 967 l 104 967 l 104 0 l 638 0 l 638 124 l 263 124 l 263 428 l 596 428 l 596 550 l 263 550 l 263 843 m 638 0 l 596 81 l 538 54 q 403 -38 444 11 q 361 -143 361 -87 q 416 -256 361 -219 q 546 -293 471 -293 q 658 -272 606 -293 l 658 -171 q 567 -190 608 -190 q 511 -173 532 -190 q 490 -126 490 -156 q 508 -78 490 -100 q 569 -35 526 -57 l 638 0 "},"ę":{"ha":857,"x_min":51,"x_max":806,"o":"m 806 404 q 758 599 806 514 q 626 731 711 683 q 433 778 542 778 q 234 729 321 778 q 99 591 147 681 q 51 383 51 501 q 101 176 51 265 q 237 37 150 86 q 433 -12 324 -12 q 659 55 568 -12 q 785 228 750 122 l 614 228 q 433 121 561 121 q 282 177 343 121 q 214 329 221 233 l 800 329 q 806 404 806 364 m 640 443 l 215 443 q 284 590 225 536 q 426 644 343 644 q 578 590 518 644 q 640 443 639 536 m 581 19 l 539 100 l 481 74 q 346 -19 388 31 q 304 -124 304 -68 q 359 -237 304 -200 q 489 -274 414 -274 q 601 -253 549 -274 l 601 -151 q 510 -171 551 -171 q 454 -153 475 -171 q 433 -107 433 -136 q 451 -59 433 -81 q 513 -15 469 -37 l 581 19 "},"Ě":{"ha":728,"x_min":104,"x_max":638,"o":"m 263 843 l 638 843 l 638 967 l 104 967 l 104 0 l 638 0 l 638 124 l 263 124 l 263 428 l 596 428 l 596 550 l 263 550 l 263 843 m 563 1144 l 563 1268 l 364 1149 l 165 1268 l 165 1144 l 364 1029 l 563 1144 "},"ě":{"ha":857,"x_min":51,"x_max":806,"o":"m 806 404 q 758 599 806 514 q 626 731 711 683 q 433 778 542 778 q 234 729 321 778 q 99 591 147 681 q 51 383 51 501 q 101 176 51 265 q 237 37 150 86 q 433 -12 324 -12 q 659 55 568 -12 q 785 228 750 122 l 614 228 q 433 121 561 121 q 282 177 343 121 q 214 329 221 233 l 800 329 q 806 404 806 364 m 640 443 l 215 443 q 284 590 225 536 q 426 644 343 644 q 578 590 518 644 q 640 443 639 536 m 628 943 l 628 1067 l 429 947 l 231 1067 l 231 943 l 429 828 l 628 943 "},"Ğ":{"ha":1074,"x_min":51,"x_max":1022,"o":"m 51 485 q 117 231 51 343 q 296 55 183 118 q 544 -8 408 -8 q 774 48 671 -8 q 942 199 878 104 q 1022 406 1007 293 l 1022 529 l 490 529 l 490 406 l 853 406 q 755 208 836 281 q 544 135 674 135 q 374 178 449 135 q 256 301 299 221 q 214 485 214 381 q 256 668 214 589 q 374 790 299 747 q 544 833 449 833 q 699 797 632 833 q 803 688 765 760 l 993 688 q 819 902 939 826 q 544 978 699 978 q 297 915 410 978 q 117 739 183 851 q 51 485 51 626 m 746 1239 l 746 1269 l 654 1269 q 628 1194 654 1219 q 536 1169 601 1169 q 444 1194 471 1169 q 418 1269 418 1219 l 328 1269 l 328 1240 q 383 1099 328 1153 q 536 1046 439 1046 q 690 1099 633 1046 q 746 1239 746 1151 "},"ğ":{"ha":942,"x_min":51,"x_max":838,"o":"m 413 778 q 230 728 313 778 q 99 590 147 679 q 51 386 51 501 q 99 180 51 271 q 230 38 147 89 q 413 -12 313 -12 q 569 24 500 -12 q 678 115 638 61 l 678 -12 q 619 -182 678 -124 q 464 -240 560 -240 q 323 -203 382 -240 q 246 -107 264 -167 l 89 -107 q 206 -305 103 -232 q 464 -378 308 -378 q 665 -331 581 -378 q 793 -201 749 -283 q 838 -12 838 -118 l 838 765 l 678 765 l 678 654 q 570 742 639 707 q 413 778 501 778 m 678 383 q 645 245 678 304 q 560 156 613 186 q 446 125 507 125 q 333 156 386 125 q 247 247 279 188 q 214 386 214 307 q 247 523 214 465 q 332 610 279 581 q 446 640 385 640 q 560 610 507 640 q 645 521 613 579 q 678 383 678 463 m 681 1038 l 681 1068 l 589 1068 q 563 993 589 1018 q 471 968 536 968 q 379 993 406 968 q 353 1068 353 1018 l 263 1068 l 263 1039 q 318 898 263 951 q 471 844 374 844 q 624 897 568 844 q 681 1038 681 950 "},"Ġ":{"ha":1074,"x_min":51,"x_max":1022,"o":"m 51 485 q 117 231 51 343 q 296 55 183 118 q 544 -8 408 -8 q 774 48 671 -8 q 942 199 878 104 q 1022 406 1007 293 l 1022 529 l 490 529 l 490 406 l 853 406 q 755 208 836 281 q 544 135 674 135 q 374 178 449 135 q 256 301 299 221 q 214 485 214 381 q 256 668 214 589 q 374 790 299 747 q 544 833 449 833 q 699 797 632 833 q 803 688 765 760 l 993 688 q 819 902 939 826 q 544 978 699 978 q 297 915 410 978 q 117 739 183 851 q 51 485 51 626 m 536 1063 q 595 1087 571 1063 q 619 1146 619 1111 q 595 1205 619 1181 q 536 1229 571 1229 q 477 1205 501 1229 q 453 1146 453 1181 q 477 1087 453 1111 q 536 1063 501 1063 "},"ġ":{"ha":942,"x_min":51,"x_max":838,"o":"m 413 778 q 230 728 313 778 q 99 590 147 679 q 51 386 51 501 q 99 180 51 271 q 230 38 147 89 q 413 -12 313 -12 q 569 24 500 -12 q 678 115 638 61 l 678 -12 q 619 -182 678 -124 q 464 -240 560 -240 q 323 -203 382 -240 q 246 -107 264 -167 l 89 -107 q 206 -305 103 -232 q 464 -378 308 -378 q 665 -331 581 -378 q 793 -201 749 -283 q 838 -12 838 -118 l 838 765 l 678 765 l 678 654 q 570 742 639 707 q 413 778 501 778 m 678 383 q 645 245 678 304 q 560 156 613 186 q 446 125 507 125 q 333 156 386 125 q 247 247 279 188 q 214 386 214 307 q 247 523 214 465 q 332 610 279 581 q 446 640 385 640 q 560 610 507 640 q 645 521 613 579 q 678 383 678 463 m 471 861 q 530 885 506 861 q 554 944 554 910 q 530 1003 554 979 q 471 1028 506 1028 q 412 1003 436 1028 q 388 944 388 979 q 412 885 388 910 q 471 861 436 861 "},"Ģ":{"ha":1074,"x_min":51,"x_max":1022,"o":"m 51 485 q 117 231 51 343 q 296 55 183 118 q 544 -8 408 -8 q 774 48 671 -8 q 942 199 878 104 q 1022 406 1007 293 l 1022 529 l 490 529 l 490 406 l 853 406 q 755 208 836 281 q 544 135 674 135 q 374 178 449 135 q 256 301 299 221 q 214 485 214 381 q 256 668 214 589 q 374 790 299 747 q 544 833 449 833 q 699 797 632 833 q 803 688 765 760 l 993 688 q 819 902 939 826 q 544 978 699 978 q 297 915 410 978 q 117 739 183 851 q 51 485 51 626 m 604 -64 l 461 -64 l 461 -197 l 535 -197 l 535 -226 q 518 -286 535 -267 q 467 -306 501 -306 l 467 -375 q 584 -331 544 -375 q 624 -201 624 -287 q 604 -64 624 -144 "},"ģ":{"ha":942,"x_min":51,"x_max":838,"o":"m 403 829 l 546 829 l 546 964 l 474 964 l 474 993 q 540 1071 474 1071 l 540 1140 q 385 967 385 1140 q 403 829 385 903 m 413 778 q 230 728 313 778 q 99 590 147 679 q 51 386 51 501 q 99 180 51 271 q 230 38 147 89 q 413 -12 313 -12 q 569 24 500 -12 q 678 115 638 61 l 678 -12 q 619 -182 678 -124 q 464 -240 560 -240 q 323 -203 382 -240 q 246 -107 264 -167 l 89 -107 q 206 -305 103 -232 q 464 -378 308 -378 q 665 -331 581 -378 q 793 -201 749 -283 q 838 -12 838 -118 l 838 765 l 678 765 l 678 654 q 570 742 639 707 q 413 778 501 778 m 678 383 q 645 245 678 304 q 560 156 613 186 q 446 125 507 125 q 333 156 386 125 q 247 247 279 188 q 214 386 214 307 q 247 523 214 465 q 332 610 279 581 q 446 640 385 640 q 560 610 507 640 q 645 521 613 579 q 678 383 678 463 "},"Ĩ":{"ha":367,"x_min":-43,"x_max":424,"o":"m 263 965 l 104 965 l 104 0 l 263 0 l 263 965 m -43 1046 l 46 1046 q 66 1090 50 1075 q 106 1106 82 1106 q 135 1099 122 1106 q 174 1078 149 1093 q 219 1052 199 1061 q 267 1043 240 1043 q 371 1084 329 1043 q 424 1206 413 1125 l 335 1206 q 315 1162 331 1176 q 275 1147 299 1147 q 242 1154 257 1147 q 207 1175 228 1161 q 160 1200 179 1192 q 114 1208 140 1208 q 10 1167 51 1208 q -43 1046 -32 1126 "},"ĩ":{"ha":367,"x_min":-43,"x_max":424,"o":"m 263 765 l 104 765 l 104 0 l 263 0 l 263 765 m -43 844 l 46 844 q 66 889 50 874 q 106 904 82 904 q 135 898 122 904 q 174 876 149 892 q 219 851 199 860 q 267 842 240 842 q 371 883 329 842 q 424 1004 413 924 l 335 1004 q 315 960 331 975 q 275 946 299 946 q 242 953 257 946 q 207 974 228 960 q 160 999 179 990 q 114 1007 140 1007 q 10 966 51 1007 q -43 844 -32 925 "},"Ī":{"ha":367,"x_min":-71,"x_max":438,"o":"m 263 965 l 104 965 l 104 0 l 263 0 l 263 965 m 438 1201 l -71 1201 l -71 1083 l 438 1083 l 438 1201 "},"ī":{"ha":367,"x_min":-71,"x_max":438,"o":"m 263 765 l 104 765 l 104 0 l 263 0 l 263 765 m 438 1000 l -71 1000 l -71 882 l 438 882 l 438 1000 "},"Ĭ":{"ha":367,"x_min":-25,"x_max":393,"o":"m 263 965 l 104 965 l 104 0 l 263 0 l 263 965 m 393 1239 l 393 1269 l 301 1269 q 275 1194 301 1219 q 183 1169 249 1169 q 92 1194 118 1169 q 65 1269 65 1219 l -25 1269 l -25 1240 q 31 1099 -25 1153 q 183 1046 86 1046 q 337 1099 281 1046 q 393 1239 393 1151 "},"ĭ":{"ha":367,"x_min":-25,"x_max":393,"o":"m 263 765 l 104 765 l 104 0 l 263 0 l 263 765 m 393 1038 l 393 1068 l 301 1068 q 275 993 301 1018 q 183 968 249 968 q 92 993 118 968 q 65 1068 65 1018 l -25 1068 l -25 1039 q 31 898 -25 951 q 183 844 86 844 q 337 897 281 844 q 393 1038 393 950 "},"Į":{"ha":367,"x_min":-14,"x_max":283,"o":"m 263 965 l 104 965 l 104 0 l 263 0 l 263 965 m 263 1 l 221 82 l 163 56 q 28 -37 69 13 q -14 -142 -14 -86 q 41 -255 -14 -218 q 171 -292 96 -292 q 283 -271 231 -292 l 283 -169 q 192 -189 233 -189 q 136 -172 157 -189 q 115 -125 115 -154 q 133 -77 115 -99 q 194 -33 151 -56 l 263 1 "},"į":{"ha":367,"x_min":-14,"x_max":285,"o":"m 185 867 q 256 896 226 867 q 285 968 285 925 q 256 1040 285 1011 q 185 1069 226 1069 q 113 1040 142 1069 q 83 968 83 1011 q 113 896 83 925 q 185 867 142 867 m 263 765 l 104 765 l 104 0 l 263 0 l 263 765 m 263 1 l 221 82 l 163 56 q 28 -37 69 13 q -14 -142 -14 -86 q 41 -255 -14 -218 q 171 -292 96 -292 q 283 -271 231 -292 l 283 -169 q 192 -189 233 -189 q 136 -172 157 -189 q 115 -125 115 -154 q 133 -77 115 -99 q 194 -33 151 -56 l 263 1 "},"İ":{"ha":367,"x_min":100,"x_max":267,"o":"m 263 965 l 104 965 l 104 0 l 263 0 l 263 965 m 183 1063 q 242 1087 218 1063 q 267 1146 267 1111 q 242 1205 267 1181 q 183 1229 218 1229 q 124 1205 149 1229 q 100 1146 100 1181 q 124 1087 100 1111 q 183 1063 149 1063 "},"ı":{"ha":367,"x_min":104,"x_max":263,"o":"m 263 765 l 104 765 l 104 0 l 263 0 l 263 765 "},"Ķ":{"ha":879,"x_min":104,"x_max":843,"o":"m 843 0 l 417 482 l 836 965 l 638 965 l 263 525 l 263 965 l 104 965 l 104 0 l 263 0 l 263 432 l 636 0 l 843 0 m 507 -64 l 364 -64 l 364 -197 l 438 -197 l 438 -226 q 371 -306 438 -306 l 371 -375 q 526 -201 526 -375 q 507 -64 526 -136 "},"ķ":{"ha":769,"x_min":104,"x_max":760,"o":"m 407 382 l 760 765 l 540 765 l 263 431 l 263 1028 l 104 1028 l 104 0 l 263 0 l 263 329 l 546 0 l 760 0 l 407 382 m 453 -64 l 310 -64 l 310 -197 l 383 -197 l 383 -226 q 315 -306 383 -306 l 315 -375 q 471 -201 471 -375 q 453 -64 471 -137 "},"Ĺ":{"ha":617,"x_min":104,"x_max":589,"o":"m 263 121 l 263 965 l 104 965 l 104 0 l 589 0 l 589 121 l 263 121 m 451 1172 l 451 1307 l 144 1138 l 144 1021 l 451 1172 "},"ĺ":{"ha":367,"x_min":19,"x_max":326,"o":"m 263 1028 l 104 1028 l 104 0 l 263 0 l 263 1028 m 326 1233 l 326 1368 l 19 1199 l 19 1082 l 326 1233 "},"Ļ":{"ha":617,"x_min":104,"x_max":589,"o":"m 263 121 l 263 965 l 104 965 l 104 0 l 589 0 l 589 121 l 263 121 m 411 -64 l 268 -64 l 268 -197 l 342 -197 l 342 -226 q 325 -286 342 -267 q 274 -306 308 -306 l 274 -375 q 431 -201 431 -375 q 411 -64 431 -136 "},"ļ":{"ha":367,"x_min":104,"x_max":271,"o":"m 263 1028 l 104 1028 l 104 0 l 263 0 l 263 1028 m 251 -64 l 108 -64 l 108 -197 l 182 -197 l 182 -226 q 165 -286 182 -267 q 114 -306 149 -306 l 114 -375 q 231 -331 192 -375 q 271 -201 271 -287 q 251 -64 271 -144 "},"Ľ":{"ha":643,"x_min":104,"x_max":589,"o":"m 263 121 l 263 965 l 104 965 l 104 0 l 589 0 l 589 121 l 263 121 m 556 965 l 413 965 l 413 832 l 486 832 l 486 803 q 419 724 486 724 l 419 654 q 575 828 575 654 q 556 965 575 893 "},"ľ":{"ha":593,"x_min":104,"x_max":533,"o":"m 263 1028 l 104 1028 l 104 0 l 263 0 l 263 1028 m 514 1028 l 371 1028 l 371 893 l 444 893 l 444 864 q 378 786 444 786 l 378 717 q 533 889 533 717 q 514 1028 533 956 "},"Ŀ":{"ha":617,"x_min":104,"x_max":589,"o":"m 263 121 l 263 965 l 104 965 l 104 0 l 589 0 l 589 121 l 263 121 m 308 1063 q 367 1087 343 1063 q 392 1146 392 1111 q 367 1205 392 1181 q 308 1229 343 1229 q 249 1205 274 1229 q 225 1146 225 1181 q 249 1087 225 1111 q 308 1063 274 1063 "},"ŀ":{"ha":367,"x_min":100,"x_max":267,"o":"m 100 1146 q 124 1087 100 1111 q 183 1063 149 1063 q 242 1087 218 1063 q 267 1146 267 1111 q 242 1205 267 1181 q 183 1229 218 1229 q 124 1205 149 1229 q 100 1146 100 1181 m 263 1028 l 104 1028 l 104 0 l 263 0 l 263 1028 "},"Ł":{"ha":617,"x_min":13,"x_max":604,"o":"m 604 121 l 279 121 l 279 451 l 407 493 l 407 640 l 279 599 l 279 965 l 119 965 l 119 546 l 13 511 l 13 365 l 119 400 l 119 0 l 604 0 l 604 121 "},"ł":{"ha":367,"x_min":13,"x_max":356,"o":"m 356 478 l 356 624 l 263 592 l 263 1028 l 104 1028 l 104 538 l 13 507 l 13 360 l 104 392 l 104 0 l 263 0 l 263 446 l 356 478 "},"Ń":{"ha":1001,"x_min":104,"x_max":897,"o":"m 897 0 l 897 967 l 739 967 l 739 247 l 263 967 l 104 967 l 104 0 l 263 0 l 263 721 l 739 0 l 897 0 m 644 1172 l 644 1307 l 338 1138 l 338 1021 l 644 1172 "},"ń":{"ha":901,"x_min":104,"x_max":804,"o":"m 490 778 q 362 751 422 778 q 263 678 301 725 l 263 765 l 104 765 l 104 0 l 263 0 l 263 428 q 315 585 263 531 q 456 640 367 640 q 596 585 544 640 q 647 428 647 531 l 647 0 l 804 0 l 804 451 q 764 629 804 556 q 652 740 724 703 q 490 778 581 778 m 608 971 l 608 1106 l 301 936 l 301 819 l 608 971 "},"Ņ":{"ha":1001,"x_min":104,"x_max":897,"o":"m 897 0 l 897 967 l 739 967 l 739 247 l 263 967 l 104 967 l 104 0 l 263 0 l 263 721 l 739 0 l 897 0 m 568 -64 l 425 -64 l 425 -197 l 499 -197 l 499 -226 q 432 -306 499 -306 l 432 -375 q 588 -201 588 -375 q 568 -64 588 -136 "},"ņ":{"ha":901,"x_min":104,"x_max":804,"o":"m 490 778 q 362 751 422 778 q 263 678 301 725 l 263 765 l 104 765 l 104 0 l 263 0 l 263 428 q 315 585 263 531 q 456 640 367 640 q 596 585 544 640 q 647 428 647 531 l 647 0 l 804 0 l 804 451 q 764 629 804 556 q 652 740 724 703 q 490 778 581 778 m 518 -64 l 375 -64 l 375 -197 l 449 -197 l 449 -226 q 382 -306 449 -306 l 382 -375 q 538 -201 538 -375 q 518 -64 538 -136 "},"Ň":{"ha":1001,"x_min":104,"x_max":897,"o":"m 897 0 l 897 967 l 739 967 l 739 247 l 263 967 l 104 967 l 104 0 l 263 0 l 263 721 l 739 0 l 897 0 m 700 1144 l 700 1268 l 501 1149 l 303 1268 l 303 1144 l 501 1029 l 700 1144 "},"ň":{"ha":901,"x_min":104,"x_max":804,"o":"m 490 778 q 362 751 422 778 q 263 678 301 725 l 263 765 l 104 765 l 104 0 l 263 0 l 263 428 q 315 585 263 531 q 456 640 367 640 q 596 585 544 640 q 647 428 647 531 l 647 0 l 804 0 l 804 451 q 764 629 804 556 q 652 740 724 703 q 490 778 581 778 m 664 943 l 664 1067 l 465 947 l 267 1067 l 267 943 l 465 828 l 664 943 "},"Ō":{"ha":1089,"x_min":51,"x_max":1038,"o":"m 544 -10 q 794 53 681 -10 q 972 230 907 117 q 1038 485 1038 343 q 972 739 1038 626 q 794 915 907 851 q 544 978 681 978 q 297 915 410 978 q 117 739 183 851 q 51 485 51 626 q 117 230 51 343 q 297 53 183 117 q 544 -10 410 -10 m 544 133 q 374 177 449 133 q 256 301 299 221 q 214 485 214 381 q 256 668 214 589 q 374 790 299 747 q 544 833 449 833 q 715 790 640 833 q 833 668 790 747 q 875 485 875 589 q 833 301 875 381 q 715 177 790 221 q 544 133 640 133 m 799 1201 l 290 1201 l 290 1083 l 799 1083 l 799 1201 "},"ō":{"ha":886,"x_min":53,"x_max":833,"o":"m 436 -12 q 637 37 546 -12 q 781 176 728 86 q 833 383 833 267 q 782 590 833 500 q 642 729 731 681 q 443 778 553 778 q 244 729 333 778 q 104 590 156 681 q 53 383 53 500 q 103 176 53 265 q 240 37 153 86 q 436 -12 328 -12 m 436 121 q 324 151 375 121 q 244 240 274 181 q 214 383 214 300 q 245 526 214 467 q 328 615 276 585 q 440 644 379 644 q 554 615 501 644 q 639 526 607 585 q 671 383 671 467 q 638 241 671 300 q 551 151 604 182 q 436 121 497 121 m 697 1000 l 189 1000 l 189 882 l 697 882 l 697 1000 "},"Ŏ":{"ha":1089,"x_min":51,"x_max":1038,"o":"m 544 -10 q 794 53 681 -10 q 972 230 907 117 q 1038 485 1038 343 q 972 739 1038 626 q 794 915 907 851 q 544 978 681 978 q 297 915 410 978 q 117 739 183 851 q 51 485 51 626 q 117 230 51 343 q 297 53 183 117 q 544 -10 410 -10 m 544 133 q 374 177 449 133 q 256 301 299 221 q 214 485 214 381 q 256 668 214 589 q 374 790 299 747 q 544 833 449 833 q 715 790 640 833 q 833 668 790 747 q 875 485 875 589 q 833 301 875 381 q 715 177 790 221 q 544 133 640 133 m 754 1239 l 754 1269 l 663 1269 q 636 1194 663 1219 q 544 1169 610 1169 q 453 1194 479 1169 q 426 1269 426 1219 l 336 1269 l 336 1240 q 392 1099 336 1153 q 544 1046 447 1046 q 698 1099 642 1046 q 754 1239 754 1151 "},"ŏ":{"ha":886,"x_min":53,"x_max":833,"o":"m 436 -12 q 637 37 546 -12 q 781 176 728 86 q 833 383 833 267 q 782 590 833 500 q 642 729 731 681 q 443 778 553 778 q 244 729 333 778 q 104 590 156 681 q 53 383 53 500 q 103 176 53 265 q 240 37 153 86 q 436 -12 328 -12 m 436 121 q 324 151 375 121 q 244 240 274 181 q 214 383 214 300 q 245 526 214 467 q 328 615 276 585 q 440 644 379 644 q 554 615 501 644 q 639 526 607 585 q 671 383 671 467 q 638 241 671 300 q 551 151 604 182 q 436 121 497 121 m 653 1038 l 653 1068 l 561 1068 q 535 993 561 1018 q 443 968 508 968 q 351 993 378 968 q 325 1068 325 1018 l 235 1068 l 235 1039 q 290 898 235 951 q 443 844 346 844 q 597 897 540 844 q 653 1038 653 950 "},"Ő":{"ha":1089,"x_min":51,"x_max":1038,"o":"m 544 -10 q 794 53 681 -10 q 972 230 907 117 q 1038 485 1038 343 q 972 739 1038 626 q 794 915 907 851 q 544 978 681 978 q 297 915 410 978 q 117 739 183 851 q 51 485 51 626 q 117 230 51 343 q 297 53 183 117 q 544 -10 410 -10 m 544 133 q 374 177 449 133 q 256 301 299 221 q 214 485 214 381 q 256 668 214 589 q 374 790 299 747 q 544 833 449 833 q 715 790 640 833 q 833 668 790 747 q 875 485 875 589 q 833 301 875 381 q 715 177 790 221 q 544 133 640 133 m 469 1036 l 600 1272 l 463 1272 l 367 1036 l 469 1036 m 696 1036 l 846 1272 l 710 1272 l 593 1036 l 696 1036 "},"ő":{"ha":886,"x_min":53,"x_max":833,"o":"m 436 -12 q 637 37 546 -12 q 781 176 728 86 q 833 383 833 267 q 782 590 833 500 q 642 729 731 681 q 443 778 553 778 q 244 729 333 778 q 104 590 156 681 q 53 383 53 500 q 103 176 53 265 q 240 37 153 86 q 436 -12 328 -12 m 436 121 q 324 151 375 121 q 244 240 274 181 q 214 383 214 300 q 245 526 214 467 q 328 615 276 585 q 440 644 379 644 q 554 615 501 644 q 639 526 607 585 q 671 383 671 467 q 638 241 671 300 q 551 151 604 182 q 436 121 497 121 m 368 835 l 499 1071 l 361 1071 l 265 835 l 368 835 m 594 835 l 744 1071 l 608 1071 l 492 835 l 594 835 "},"Œ":{"ha":1499,"x_min":51,"x_max":1408,"o":"m 1033 549 l 1033 842 l 1408 842 l 1408 965 l 875 965 l 875 818 q 728 938 815 897 q 531 978 640 978 q 292 915 403 978 q 117 739 182 851 q 51 485 51 626 q 117 230 51 343 q 292 53 182 117 q 532 -10 403 -10 q 728 31 642 -10 q 875 154 815 72 l 875 0 l 1408 0 l 1408 124 l 1033 124 l 1033 426 l 1367 426 l 1367 549 l 1033 549 m 214 485 q 256 668 214 589 q 374 790 299 747 q 544 833 449 833 q 715 790 640 833 q 833 668 790 747 q 875 485 875 589 q 833 301 875 381 q 715 177 790 221 q 544 133 640 133 q 374 177 449 133 q 256 301 299 221 q 214 485 214 381 "},"œ":{"ha":1475,"x_min":51,"x_max":1424,"o":"m 1424 404 q 1376 599 1424 514 q 1244 731 1329 683 q 1051 778 1160 778 q 875 736 953 778 q 749 619 797 694 q 617 736 697 694 q 443 778 538 778 q 244 729 333 778 q 103 590 156 681 q 51 383 51 500 q 101 176 51 265 q 239 37 151 86 q 436 -12 326 -12 q 614 30 532 -12 q 747 149 696 72 q 872 29 796 71 q 1044 -12 949 -12 q 1271 55 1179 -12 q 1397 228 1363 122 l 1226 228 q 1044 121 1174 121 q 897 177 956 121 q 833 329 839 233 l 1418 329 q 1424 404 1424 364 m 436 121 q 324 151 375 121 q 244 240 274 181 q 214 383 214 300 q 244 526 214 467 q 326 615 275 585 q 439 644 378 644 q 553 615 500 644 q 638 526 606 585 q 669 383 669 467 q 637 241 669 300 q 551 151 604 182 q 436 121 497 121 m 1258 438 l 835 438 q 901 589 843 533 q 1044 644 960 644 q 1196 588 1135 644 q 1258 438 1257 532 "},"Ŕ":{"ha":878,"x_min":104,"x_max":794,"o":"m 606 0 l 794 0 l 556 400 q 724 505 669 428 q 779 676 779 582 q 741 822 779 757 q 626 926 703 888 q 438 965 549 965 l 104 965 l 104 0 l 263 0 l 263 386 l 383 386 l 606 0 m 263 511 l 263 842 l 438 842 q 572 798 528 842 q 617 676 617 754 q 572 556 617 600 q 438 511 526 511 l 263 511 m 582 1172 l 582 1307 l 275 1138 l 275 1021 l 582 1172 "},"ŕ":{"ha":533,"x_min":104,"x_max":492,"o":"m 263 632 l 263 765 l 104 765 l 104 0 l 263 0 l 263 403 q 310 567 263 519 q 451 614 358 614 l 492 614 l 492 778 q 355 740 413 778 q 263 632 297 701 m 478 971 l 478 1106 l 171 936 l 171 819 l 478 971 "},"Ŗ":{"ha":878,"x_min":104,"x_max":794,"o":"m 794 0 l 556 400 q 724 505 669 428 q 779 676 779 582 q 741 822 779 757 q 626 926 703 888 q 438 965 549 965 l 104 965 l 104 0 l 263 0 l 263 386 l 383 386 l 606 0 l 794 0 m 263 511 l 263 842 l 438 842 q 572 798 528 842 q 617 676 617 754 q 572 556 617 600 q 438 511 526 511 l 263 511 m 507 -64 l 364 -64 l 364 -197 l 436 -197 l 436 -226 q 369 -306 436 -306 l 369 -375 q 525 -201 525 -375 q 507 -64 525 -137 "},"ŗ":{"ha":533,"x_min":104,"x_max":492,"o":"m 263 632 l 263 765 l 104 765 l 104 0 l 263 0 l 263 403 q 310 567 263 519 q 451 614 358 614 l 492 614 l 492 778 q 355 740 413 778 q 263 632 297 701 m 250 -64 l 107 -64 l 107 -197 l 181 -197 l 181 -226 q 114 -306 181 -306 l 114 -375 q 269 -201 269 -375 q 250 -64 269 -136 "},"Ř":{"ha":878,"x_min":104,"x_max":794,"o":"m 606 0 l 794 0 l 556 400 q 724 505 669 428 q 779 676 779 582 q 741 822 779 757 q 626 926 703 888 q 438 965 549 965 l 104 965 l 104 0 l 263 0 l 263 386 l 383 386 l 606 0 m 263 511 l 263 842 l 438 842 q 572 798 528 842 q 617 676 617 754 q 572 556 617 600 q 438 511 526 511 l 263 511 m 638 1144 l 638 1268 l 439 1149 l 240 1268 l 240 1144 l 439 1029 l 638 1144 "},"ř":{"ha":533,"x_min":104,"x_max":533,"o":"m 263 632 l 263 765 l 104 765 l 104 0 l 263 0 l 263 403 q 310 567 263 519 q 451 614 358 614 l 492 614 l 492 778 q 355 740 413 778 q 263 632 297 701 m 533 943 l 533 1067 l 335 947 l 136 1067 l 136 943 l 335 828 l 533 943 "},"Ś":{"ha":839,"x_min":81,"x_max":756,"o":"m 422 -10 q 601 30 525 -10 q 716 135 676 69 q 756 274 756 200 q 713 420 756 365 q 610 501 671 475 q 454 554 550 528 q 340 590 382 574 q 272 635 299 607 q 244 708 244 664 q 287 813 244 778 q 399 849 329 849 q 520 810 475 849 q 569 715 565 772 l 744 715 q 645 908 735 838 q 415 978 556 978 q 242 944 317 978 q 125 849 167 911 q 83 703 83 786 q 125 558 83 613 q 226 478 167 504 q 379 428 285 453 q 497 392 454 408 q 567 344 539 375 q 596 265 596 314 q 550 159 596 200 q 422 118 504 118 q 299 160 343 118 q 250 267 256 201 l 81 267 q 125 121 81 183 q 247 24 169 58 q 422 -10 325 -10 m 564 1172 l 564 1307 l 257 1138 l 257 1021 l 564 1172 "},"ś":{"ha":742,"x_min":63,"x_max":671,"o":"m 379 -12 q 535 17 469 -12 q 636 99 601 47 q 671 217 671 151 q 633 334 671 289 q 543 401 596 379 q 407 446 490 424 q 313 474 346 463 q 257 507 279 486 q 235 558 235 528 q 268 627 235 601 q 364 653 301 653 q 465 620 428 653 q 507 532 503 588 l 665 532 q 580 712 660 646 q 369 778 500 778 q 215 747 281 778 q 114 665 149 717 q 79 550 79 613 q 118 433 79 478 q 210 366 157 388 q 349 321 264 344 q 478 276 436 299 q 519 213 519 254 q 483 140 519 167 q 379 113 446 113 q 273 147 315 113 q 226 235 231 182 l 63 235 q 107 109 65 165 q 219 20 149 53 q 379 -12 290 -12 m 514 971 l 514 1106 l 207 936 l 207 819 l 514 971 "},"Ş":{"ha":839,"x_min":81,"x_max":756,"o":"m 422 -10 q 601 30 525 -10 q 716 135 676 69 q 756 274 756 200 q 713 420 756 365 q 610 501 671 475 q 454 554 550 528 q 340 590 382 574 q 272 635 299 607 q 244 708 244 664 q 287 813 244 778 q 399 849 329 849 q 520 810 475 849 q 569 715 565 772 l 744 715 q 645 908 735 838 q 415 978 556 978 q 242 944 317 978 q 125 849 167 911 q 83 703 83 786 q 125 558 83 613 q 226 478 167 504 q 379 428 285 453 q 497 392 454 408 q 567 344 539 375 q 596 265 596 314 q 550 159 596 200 q 422 118 504 118 q 299 160 343 118 q 250 267 256 201 l 81 267 q 125 121 81 183 q 247 24 169 58 q 422 -10 325 -10 m 478 -67 l 478 10 l 374 10 l 374 -161 l 450 -161 q 508 -172 489 -161 q 528 -212 528 -183 q 508 -253 528 -242 q 450 -264 489 -264 l 299 -264 l 299 -364 l 482 -364 q 608 -323 558 -364 q 658 -212 658 -282 q 608 -105 658 -143 q 478 -67 558 -67 "},"ş":{"ha":742,"x_min":63,"x_max":671,"o":"m 379 -12 q 535 17 469 -12 q 636 99 601 47 q 671 217 671 151 q 633 334 671 289 q 543 401 596 379 q 407 446 490 424 q 313 474 346 463 q 257 507 279 486 q 235 558 235 528 q 268 627 235 601 q 364 653 301 653 q 465 620 428 653 q 507 532 503 588 l 665 532 q 580 712 660 646 q 369 778 500 778 q 215 747 281 778 q 114 665 149 717 q 79 550 79 613 q 118 433 79 478 q 210 366 157 388 q 349 321 264 344 q 478 276 436 299 q 519 213 519 254 q 483 140 519 167 q 379 113 446 113 q 273 147 315 113 q 226 235 231 182 l 63 235 q 107 109 65 165 q 219 20 149 53 q 379 -12 290 -12 m 428 -67 l 428 10 l 324 10 l 324 -161 l 400 -161 q 458 -172 439 -161 q 478 -212 478 -183 q 458 -253 478 -242 q 400 -264 439 -264 l 249 -264 l 249 -364 l 432 -364 q 558 -323 508 -364 q 608 -212 608 -282 q 558 -105 608 -143 q 428 -67 508 -67 "},"Š":{"ha":839,"x_min":81,"x_max":756,"o":"m 422 -10 q 601 30 525 -10 q 716 135 676 69 q 756 274 756 200 q 713 420 756 365 q 610 501 671 475 q 454 554 550 528 q 340 590 382 574 q 272 635 299 607 q 244 708 244 664 q 287 813 244 778 q 399 849 329 849 q 520 810 475 849 q 569 715 565 772 l 744 715 q 645 908 735 838 q 415 978 556 978 q 242 944 317 978 q 125 849 167 911 q 83 703 83 786 q 125 558 83 613 q 226 478 167 504 q 379 428 285 453 q 497 392 454 408 q 567 344 539 375 q 596 265 596 314 q 550 159 596 200 q 422 118 504 118 q 299 160 343 118 q 250 267 256 201 l 81 267 q 125 121 81 183 q 247 24 169 58 q 422 -10 325 -10 m 619 1144 l 619 1268 l 421 1149 l 222 1268 l 222 1144 l 421 1029 l 619 1144 "},"š":{"ha":742,"x_min":63,"x_max":671,"o":"m 379 -12 q 535 17 469 -12 q 636 99 601 47 q 671 217 671 151 q 633 334 671 289 q 543 401 596 379 q 407 446 490 424 q 313 474 346 463 q 257 507 279 486 q 235 558 235 528 q 268 627 235 601 q 364 653 301 653 q 465 620 428 653 q 507 532 503 588 l 665 532 q 580 712 660 646 q 369 778 500 778 q 215 747 281 778 q 114 665 149 717 q 79 550 79 613 q 118 433 79 478 q 210 366 157 388 q 349 321 264 344 q 478 276 436 299 q 519 213 519 254 q 483 140 519 167 q 379 113 446 113 q 273 147 315 113 q 226 235 231 182 l 63 235 q 107 109 65 165 q 219 20 149 53 q 379 -12 290 -12 m 569 943 l 569 1067 l 371 947 l 172 1067 l 172 943 l 371 828 l 569 943 "},"Ţ":{"ha":783,"x_min":54,"x_max":728,"o":"m 728 965 l 54 965 l 54 842 l 313 842 l 313 0 l 471 0 l 471 842 l 728 842 l 728 965 m 446 -67 l 446 10 l 342 10 l 342 -161 l 418 -161 q 476 -172 457 -161 q 496 -212 496 -183 q 476 -253 496 -242 q 418 -264 457 -264 l 267 -264 l 267 -364 l 450 -364 q 576 -323 526 -364 q 626 -212 626 -282 q 576 -105 626 -143 q 446 -67 526 -67 "},"ţ":{"ha":517,"x_min":39,"x_max":497,"o":"m 317 -67 l 317 1 q 350 0 328 0 l 475 0 l 475 132 l 378 132 q 309 151 329 132 q 289 213 289 169 l 289 636 l 475 636 l 475 765 l 289 765 l 289 956 l 129 956 l 129 765 l 39 765 l 39 636 l 129 636 l 129 213 q 213 31 129 81 l 213 -161 l 289 -161 q 347 -172 328 -161 q 367 -212 367 -183 q 347 -253 367 -242 q 289 -264 328 -264 l 138 -264 l 138 -364 l 321 -364 q 447 -323 397 -364 q 497 -212 497 -282 q 447 -105 497 -143 q 317 -67 397 -67 "},"Ť":{"ha":783,"x_min":54,"x_max":728,"o":"m 728 965 l 54 965 l 54 842 l 313 842 l 313 0 l 471 0 l 471 842 l 728 842 l 728 965 m 590 1144 l 590 1268 l 392 1149 l 193 1268 l 193 1144 l 392 1029 l 590 1144 "},"ť":{"ha":524,"x_min":39,"x_max":553,"o":"m 533 1089 l 390 1089 l 390 954 l 464 954 l 464 933 q 447 899 464 910 q 396 889 431 889 l 396 819 q 553 964 553 819 q 549 1019 553 993 q 533 1089 544 1044 m 289 765 l 289 956 l 129 956 l 129 765 l 39 765 l 39 636 l 129 636 l 129 213 q 186 50 129 100 q 350 0 243 0 l 475 0 l 475 132 l 378 132 q 309 151 329 132 q 289 213 289 169 l 289 636 l 475 636 l 475 765 l 289 765 "},"Ũ":{"ha":958,"x_min":103,"x_max":857,"o":"m 261 965 l 103 965 l 103 353 q 153 153 103 235 q 288 31 203 71 q 478 -10 374 -10 q 668 31 582 -10 q 806 153 754 71 q 857 353 857 235 l 857 965 l 699 965 l 699 353 q 641 188 699 243 q 479 132 583 132 q 319 188 376 132 q 261 353 261 243 l 261 965 m 253 1046 l 342 1046 q 362 1090 346 1075 q 401 1106 378 1106 q 431 1099 418 1106 q 469 1078 444 1093 q 515 1052 494 1061 q 563 1043 536 1043 q 667 1084 625 1043 q 719 1206 708 1125 l 631 1206 q 610 1162 626 1176 q 571 1147 594 1147 q 538 1154 553 1147 q 503 1175 524 1161 q 456 1200 475 1192 q 410 1208 436 1208 q 306 1167 347 1208 q 253 1046 264 1126 "},"ũ":{"ha":901,"x_min":97,"x_max":797,"o":"m 797 765 l 639 765 l 639 339 q 587 181 639 236 q 446 126 535 126 q 306 181 357 126 q 254 339 254 236 l 254 765 l 97 765 l 97 315 q 138 138 97 211 q 251 26 179 64 q 413 -11 322 -11 q 541 16 481 -11 q 639 90 601 43 l 639 0 l 797 0 l 797 765 m 225 844 l 314 844 q 334 889 318 874 q 374 904 350 904 q 403 898 390 904 q 442 876 417 892 q 488 851 467 860 q 535 842 508 842 q 639 883 597 842 q 692 1004 681 924 l 603 1004 q 583 960 599 975 q 543 946 567 946 q 510 953 525 946 q 475 974 496 960 q 428 999 447 990 q 382 1007 408 1007 q 278 966 319 1007 q 225 844 236 925 "},"Ū":{"ha":958,"x_min":103,"x_max":857,"o":"m 261 965 l 103 965 l 103 353 q 153 153 103 235 q 288 31 203 71 q 478 -10 374 -10 q 668 31 582 -10 q 806 153 754 71 q 857 353 857 235 l 857 965 l 699 965 l 699 353 q 641 188 699 243 q 479 132 583 132 q 319 188 376 132 q 261 353 261 243 l 261 965 m 733 1201 l 225 1201 l 225 1083 l 733 1083 l 733 1201 "},"ū":{"ha":901,"x_min":97,"x_max":797,"o":"m 797 765 l 639 765 l 639 339 q 587 181 639 236 q 446 126 535 126 q 306 181 357 126 q 254 339 254 236 l 254 765 l 97 765 l 97 315 q 138 138 97 211 q 251 26 179 64 q 413 -11 322 -11 q 541 16 481 -11 q 639 90 601 43 l 639 0 l 797 0 l 797 765 m 706 1000 l 197 1000 l 197 882 l 706 882 l 706 1000 "},"Ŭ":{"ha":958,"x_min":103,"x_max":857,"o":"m 261 965 l 103 965 l 103 353 q 153 153 103 235 q 288 31 203 71 q 478 -10 374 -10 q 668 31 582 -10 q 806 153 754 71 q 857 353 857 235 l 857 965 l 699 965 l 699 353 q 641 188 699 243 q 479 132 583 132 q 319 188 376 132 q 261 353 261 243 l 261 965 m 689 1239 l 689 1269 l 597 1269 q 571 1194 597 1219 q 479 1169 544 1169 q 388 1194 414 1169 q 361 1269 361 1219 l 271 1269 l 271 1240 q 326 1099 271 1153 q 479 1046 382 1046 q 633 1099 576 1046 q 689 1239 689 1151 "},"ŭ":{"ha":901,"x_min":97,"x_max":797,"o":"m 797 765 l 639 765 l 639 339 q 587 181 639 236 q 446 126 535 126 q 306 181 357 126 q 254 339 254 236 l 254 765 l 97 765 l 97 315 q 138 138 97 211 q 251 26 179 64 q 413 -11 322 -11 q 541 16 481 -11 q 639 90 601 43 l 639 0 l 797 0 l 797 765 m 661 1038 l 661 1068 l 569 1068 q 543 993 569 1018 q 451 968 517 968 q 360 993 386 968 q 333 1068 333 1018 l 243 1068 l 243 1039 q 299 898 243 951 q 451 844 354 844 q 605 897 549 844 q 661 1038 661 950 "},"Ů":{"ha":958,"x_min":103,"x_max":857,"o":"m 261 965 l 103 965 l 103 353 q 153 153 103 235 q 288 31 203 71 q 478 -10 374 -10 q 668 31 582 -10 q 806 153 754 71 q 857 353 857 235 l 857 965 l 699 965 l 699 353 q 641 188 699 243 q 479 132 583 132 q 319 188 376 132 q 261 353 261 243 l 261 965 m 328 1193 q 372 1083 328 1125 q 479 1042 415 1042 q 588 1083 544 1042 q 631 1193 631 1125 q 588 1304 631 1263 q 479 1346 544 1346 q 372 1304 415 1346 q 328 1193 328 1263 m 551 1194 q 531 1144 551 1164 q 479 1124 510 1124 q 429 1144 450 1124 q 408 1194 408 1164 q 428 1246 408 1226 q 479 1265 449 1265 q 531 1246 510 1265 q 551 1194 551 1226 "},"ů":{"ha":901,"x_min":97,"x_max":797,"o":"m 797 765 l 639 765 l 639 339 q 587 181 639 236 q 446 126 535 126 q 306 181 357 126 q 254 339 254 236 l 254 765 l 97 765 l 97 315 q 138 138 97 211 q 251 26 179 64 q 413 -11 322 -11 q 541 16 481 -11 q 639 90 601 43 l 639 0 l 797 0 l 797 765 m 300 992 q 344 882 300 924 q 451 840 388 840 q 560 882 517 840 q 603 992 603 924 q 560 1103 603 1061 q 451 1144 517 1144 q 344 1103 388 1144 q 300 992 300 1061 m 524 993 q 503 942 524 963 q 451 922 482 922 q 401 942 422 922 q 381 993 381 963 q 401 1044 381 1025 q 451 1064 421 1064 q 503 1044 482 1064 q 524 993 524 1025 "},"Ű":{"ha":958,"x_min":103,"x_max":857,"o":"m 261 965 l 103 965 l 103 353 q 153 153 103 235 q 288 31 203 71 q 478 -10 374 -10 q 668 31 582 -10 q 806 153 754 71 q 857 353 857 235 l 857 965 l 699 965 l 699 353 q 641 188 699 243 q 479 132 583 132 q 319 188 376 132 q 261 353 261 243 l 261 965 m 404 1036 l 535 1272 l 397 1272 l 301 1036 l 404 1036 m 631 1036 l 781 1272 l 644 1272 l 528 1036 l 631 1036 "},"ű":{"ha":901,"x_min":97,"x_max":797,"o":"m 797 765 l 639 765 l 639 339 q 587 181 639 236 q 446 126 535 126 q 306 181 357 126 q 254 339 254 236 l 254 765 l 97 765 l 97 315 q 138 138 97 211 q 251 26 179 64 q 413 -11 322 -11 q 541 16 481 -11 q 639 90 601 43 l 639 0 l 797 0 l 797 765 m 376 835 l 507 1071 l 369 1071 l 274 835 l 376 835 m 603 835 l 753 1071 l 617 1071 l 500 835 l 603 835 "},"Ų":{"ha":958,"x_min":103,"x_max":857,"o":"m 261 965 l 103 965 l 103 353 q 153 153 103 235 q 288 31 203 71 q 478 -10 374 -10 q 668 31 582 -10 q 806 153 754 71 q 857 353 857 235 l 857 965 l 699 965 l 699 353 q 641 188 699 243 q 479 132 583 132 q 319 188 376 132 q 261 353 261 243 l 261 965 m 581 0 l 539 81 l 481 54 q 346 -38 388 11 q 304 -143 304 -87 q 359 -256 304 -219 q 489 -293 414 -293 q 601 -272 549 -293 l 601 -171 q 510 -190 551 -190 q 454 -173 475 -190 q 433 -126 433 -156 q 451 -78 433 -100 q 513 -35 469 -57 l 581 0 "},"ų":{"ha":901,"x_min":97,"x_max":818,"o":"m 797 765 l 639 765 l 639 339 q 587 181 639 236 q 446 126 535 126 q 306 181 357 126 q 254 339 254 236 l 254 765 l 97 765 l 97 315 q 138 138 97 211 q 251 26 179 64 q 413 -11 322 -11 q 541 16 481 -11 q 639 90 601 43 l 639 0 l 797 0 l 797 765 m 797 -1 l 756 79 l 697 53 q 563 -40 604 10 q 521 -144 521 -89 q 576 -258 521 -221 q 706 -294 631 -294 q 818 -274 765 -294 l 818 -172 q 726 -192 768 -192 q 671 -174 692 -192 q 650 -128 650 -157 q 668 -80 650 -101 q 729 -36 686 -58 l 797 -1 "},"Ŵ":{"ha":1388,"x_min":26,"x_max":1361,"o":"m 1361 965 l 1192 965 l 990 183 l 789 965 l 611 965 l 394 179 l 194 965 l 26 965 l 300 -1 l 478 0 l 693 731 l 896 0 l 1075 0 l 1361 965 m 688 1156 l 886 1036 l 886 1160 l 688 1275 l 489 1160 l 489 1036 l 688 1156 "},"ŵ":{"ha":1146,"x_min":14,"x_max":1132,"o":"m 1132 765 l 976 765 l 818 153 l 663 765 l 497 765 l 335 150 l 175 765 l 14 765 l 253 0 l 419 0 l 574 565 l 728 0 l 894 0 l 1132 765 m 574 947 l 772 828 l 772 951 l 574 1067 l 375 951 l 375 828 l 574 947 "},"Ŷ":{"ha":840,"x_min":21,"x_max":819,"o":"m 819 965 l 642 965 l 419 494 l 197 965 l 21 965 l 342 350 l 342 0 l 500 0 l 500 350 l 819 965 m 421 1149 l 619 1029 l 619 1153 l 421 1268 l 222 1153 l 222 1029 l 421 1149 "},"ŷ":{"ha":808,"x_min":14,"x_max":793,"o":"m 190 765 l 14 765 l 315 13 l 160 -360 l 324 -360 l 793 765 l 629 765 l 406 182 l 190 765 m 404 947 l 603 828 l 603 951 l 404 1067 l 206 951 l 206 828 l 404 947 "},"Ÿ":{"ha":840,"x_min":21,"x_max":819,"o":"m 819 965 l 642 965 l 419 494 l 197 965 l 21 965 l 342 350 l 342 0 l 500 0 l 500 350 l 819 965 m 301 1063 q 360 1087 336 1063 q 385 1146 385 1111 q 360 1205 385 1181 q 301 1229 336 1229 q 242 1205 267 1229 q 218 1146 218 1181 q 242 1087 218 1111 q 301 1063 267 1063 m 540 1063 q 599 1087 575 1063 q 624 1146 624 1111 q 599 1205 624 1181 q 540 1229 575 1229 q 481 1205 506 1229 q 457 1146 457 1181 q 481 1087 457 1111 q 540 1063 506 1063 "},"Ź":{"ha":775,"x_min":69,"x_max":706,"o":"m 257 138 l 706 842 l 706 965 l 69 965 l 69 828 l 517 828 l 69 124 l 69 0 l 706 0 l 706 138 l 257 138 m 531 1172 l 531 1307 l 224 1138 l 224 1021 l 531 1172 "},"ź":{"ha":654,"x_min":61,"x_max":592,"o":"m 244 129 l 592 636 l 592 765 l 61 765 l 61 636 l 410 636 l 61 129 l 61 0 l 592 0 l 592 129 l 244 129 m 471 971 l 471 1106 l 164 936 l 164 819 l 471 971 "},"Ż":{"ha":775,"x_min":69,"x_max":706,"o":"m 257 138 l 706 842 l 706 965 l 69 965 l 69 828 l 517 828 l 69 124 l 69 0 l 706 0 l 706 138 l 257 138 m 388 1063 q 447 1087 422 1063 q 471 1146 471 1111 q 447 1205 471 1181 q 388 1229 422 1229 q 328 1205 353 1229 q 304 1146 304 1181 q 328 1087 304 1111 q 388 1063 353 1063 "},"ż":{"ha":654,"x_min":61,"x_max":592,"o":"m 244 129 l 592 636 l 592 765 l 61 765 l 61 636 l 410 636 l 61 129 l 61 0 l 592 0 l 592 129 l 244 129 m 328 861 q 387 885 363 861 q 411 944 411 910 q 387 1003 411 979 q 328 1028 363 1028 q 269 1003 293 1028 q 244 944 244 979 q 269 885 244 910 q 328 861 293 861 "},"Ž":{"ha":775,"x_min":69,"x_max":706,"o":"m 257 138 l 706 842 l 706 965 l 69 965 l 69 828 l 517 828 l 69 124 l 69 0 l 706 0 l 706 138 l 257 138 m 586 1144 l 586 1268 l 388 1149 l 189 1268 l 189 1144 l 388 1029 l 586 1144 "},"ž":{"ha":654,"x_min":61,"x_max":592,"o":"m 244 129 l 592 636 l 592 765 l 61 765 l 61 636 l 410 636 l 61 129 l 61 0 l 592 0 l 592 129 l 244 129 m 526 943 l 526 1067 l 328 947 l 129 1067 l 129 943 l 328 828 l 526 943 "},"ƒ":{"ha":461,"x_min":-78,"x_max":443,"o":"m 429 940 l 443 1072 q 217 1012 293 1072 q 126 819 140 951 l 121 765 l 29 765 l 17 636 l 107 636 l 31 -89 q 9 -151 26 -132 q -42 -171 -8 -171 l -64 -171 l -78 -301 l -47 -301 q 119 -252 60 -301 q 189 -89 178 -203 l 267 636 l 408 636 l 421 765 l 281 765 l 286 819 q 325 913 293 886 q 429 940 357 940 "},"Ǽ":{"ha":1279,"x_min":17,"x_max":1188,"o":"m 814 843 l 1188 843 l 1188 967 l 549 967 l 17 0 l 189 0 l 296 197 l 656 197 l 656 0 l 1188 0 l 1188 124 l 814 124 l 814 428 l 1146 428 l 1146 550 l 814 550 l 814 843 m 656 321 l 364 321 l 656 857 l 656 321 m 918 1175 l 918 1310 l 611 1140 l 611 1024 l 918 1175 "},"ǽ":{"ha":1511,"x_min":51,"x_max":1456,"o":"m 1456 404 q 1410 597 1456 511 q 1282 730 1364 682 q 1096 778 1200 778 q 947 749 1013 778 q 828 657 882 721 l 828 765 l 679 765 l 679 657 q 421 778 588 778 q 232 729 317 778 q 99 591 147 681 q 51 386 51 501 q 99 180 51 271 q 230 38 147 89 q 413 -12 313 -12 q 565 23 496 -12 q 679 115 633 58 l 679 0 l 828 0 l 828 115 q 940 23 868 58 q 1096 -12 1013 -12 q 1312 55 1224 -12 q 1435 228 1400 122 l 1263 228 q 1194 150 1243 179 q 1068 121 1144 121 q 967 145 1017 121 q 883 217 918 169 q 840 329 849 264 l 1450 329 q 1456 404 1456 364 m 1292 443 l 840 443 q 919 589 854 533 q 1069 644 983 644 q 1227 589 1164 644 q 1292 443 1290 533 m 446 125 q 333 156 386 125 q 247 247 279 188 q 214 386 214 307 q 247 523 214 465 q 332 610 279 581 q 446 640 385 640 q 560 610 507 640 q 645 521 613 579 q 678 383 678 463 q 645 245 678 304 q 560 156 613 186 q 446 125 507 125 m 988 971 l 988 1106 l 681 936 l 681 819 l 988 971 "},"Ș":{"ha":839,"x_min":81,"x_max":756,"o":"m 422 -10 q 601 30 525 -10 q 716 135 676 69 q 756 274 756 200 q 713 420 756 365 q 610 501 671 475 q 454 554 550 528 q 340 590 382 574 q 272 635 299 607 q 244 708 244 664 q 287 813 244 778 q 399 849 329 849 q 520 810 475 849 q 569 715 565 772 l 744 715 q 645 908 735 838 q 415 978 556 978 q 242 944 317 978 q 125 849 167 911 q 83 703 83 786 q 125 558 83 613 q 226 478 167 504 q 379 428 285 453 q 497 392 454 408 q 567 344 539 375 q 596 265 596 314 q 550 159 596 200 q 422 118 504 118 q 299 160 343 118 q 250 267 256 201 l 81 267 q 125 121 81 183 q 247 24 169 58 q 422 -10 325 -10 m 488 -64 l 344 -64 l 344 -197 l 418 -197 l 418 -226 q 401 -286 418 -267 q 350 -306 385 -306 l 350 -375 q 507 -201 507 -375 q 488 -64 507 -136 "},"ș":{"ha":742,"x_min":63,"x_max":671,"o":"m 379 -12 q 535 17 469 -12 q 636 99 601 47 q 671 217 671 151 q 633 334 671 289 q 543 401 596 379 q 407 446 490 424 q 313 474 346 463 q 257 507 279 486 q 235 558 235 528 q 268 627 235 601 q 364 653 301 653 q 465 620 428 653 q 507 532 503 588 l 665 532 q 580 712 660 646 q 369 778 500 778 q 215 747 281 778 q 114 665 149 717 q 79 550 79 613 q 118 433 79 478 q 210 366 157 388 q 349 321 264 344 q 478 276 436 299 q 519 213 519 254 q 483 140 519 167 q 379 113 446 113 q 273 147 315 113 q 226 235 231 182 l 63 235 q 107 109 65 165 q 219 20 149 53 q 379 -12 290 -12 m 439 -64 l 296 -64 l 296 -197 l 369 -197 l 369 -226 q 353 -286 369 -267 q 301 -306 336 -306 l 301 -375 q 419 -331 379 -375 q 458 -201 458 -287 q 439 -64 458 -144 "},"Ț":{"ha":783,"x_min":54,"x_max":728,"o":"m 728 965 l 54 965 l 54 842 l 313 842 l 313 0 l 471 0 l 471 842 l 728 842 l 728 965 m 460 -64 l 317 -64 l 317 -197 l 390 -197 l 390 -226 q 322 -306 390 -306 l 322 -375 q 478 -201 478 -375 q 460 -64 478 -137 "},"ț":{"ha":517,"x_min":39,"x_max":475,"o":"m 289 636 l 475 636 l 475 765 l 289 765 l 289 956 l 129 956 l 129 765 l 39 765 l 39 636 l 129 636 l 129 213 q 186 50 129 100 q 350 0 243 0 l 475 0 l 475 132 l 378 132 q 309 151 329 132 q 289 213 289 169 l 289 636 m 326 -64 l 183 -64 l 183 -197 l 257 -197 l 257 -226 q 240 -286 257 -267 q 189 -306 224 -306 l 189 -375 q 346 -201 346 -375 q 326 -64 346 -136 "},"ʼ":{"ha":336,"x_min":44,"x_max":301,"o":"m 129 965 l 44 635 l 156 635 l 301 965 l 129 965 "},"ˆ":{"ha":425,"x_min":14,"x_max":411,"o":"m 213 947 l 411 828 l 411 951 l 213 1067 l 14 951 l 14 828 l 213 947 "},"ˇ":{"ha":425,"x_min":14,"x_max":411,"o":"m 411 943 l 411 1067 l 213 947 l 14 1067 l 14 943 l 213 828 l 411 943 "},"ˉ":{"ha":536,"x_min":14,"x_max":522,"o":"m 522 1000 l 14 1000 l 14 882 l 522 882 l 522 1000 "},"˘":{"ha":446,"x_min":14,"x_max":432,"o":"m 432 1038 l 432 1068 l 340 1068 q 314 993 340 1018 q 222 968 288 968 q 131 993 157 968 q 104 1068 104 1018 l 14 1068 l 14 1039 q 69 898 14 951 q 222 844 125 844 q 376 897 319 844 q 432 1038 432 950 "},"˙":{"ha":194,"x_min":14,"x_max":181,"o":"m 97 861 q 156 885 132 861 q 181 944 181 910 q 156 1003 181 979 q 97 1028 132 1028 q 38 1003 63 1028 q 14 944 14 979 q 38 885 14 910 q 97 861 63 861 "},"˚":{"ha":331,"x_min":14,"x_max":317,"o":"m 14 992 q 58 882 14 924 q 165 840 101 840 q 274 882 231 840 q 317 992 317 924 q 274 1103 317 1061 q 165 1144 231 1144 q 58 1103 101 1144 q 14 992 14 1061 m 238 993 q 217 942 238 963 q 165 922 196 922 q 115 942 136 922 q 94 993 94 963 q 115 1044 94 1025 q 165 1064 135 1064 q 217 1044 196 1064 q 238 993 238 1025 "},"˛":{"ha":325,"x_min":14,"x_max":311,"o":"m 290 0 l 249 81 l 190 54 q 56 -38 97 11 q 14 -143 14 -87 q 69 -256 14 -219 q 199 -293 124 -293 q 311 -272 258 -293 l 311 -171 q 219 -190 261 -190 q 164 -173 185 -190 q 143 -126 143 -156 q 161 -78 143 -100 q 222 -35 179 -57 l 290 0 "},"˜":{"ha":494,"x_min":14,"x_max":481,"o":"m 14 844 l 103 844 q 123 889 107 874 q 163 904 139 904 q 192 898 179 904 q 231 876 206 892 q 276 851 256 860 q 324 842 297 842 q 428 883 386 842 q 481 1004 469 924 l 392 1004 q 372 960 388 975 q 332 946 356 946 q 299 953 314 946 q 264 974 285 960 q 217 999 236 990 q 171 1007 197 1007 q 67 966 108 1007 q 14 844 25 925 "},"˝":{"ha":507,"x_min":14,"x_max":493,"o":"m 117 835 l 247 1071 l 110 1071 l 14 835 l 117 835 m 343 835 l 493 1071 l 357 1071 l 240 835 l 343 835 "},"π":{"ha":981,"x_min":43,"x_max":931,"o":"m 931 765 l 43 765 l 43 642 l 149 642 l 149 0 l 307 0 l 307 642 l 667 642 l 667 0 l 824 0 l 824 642 l 931 642 l 931 765 "},"Ẁ":{"ha":1388,"x_min":26,"x_max":1361,"o":"m 1361 965 l 1192 965 l 990 183 l 789 965 l 611 965 l 394 179 l 194 965 l 26 965 l 300 -1 l 478 0 l 693 731 l 896 0 l 1075 0 l 1361 965 m 792 1138 l 485 1307 l 485 1172 l 792 1021 l 792 1138 "},"ẁ":{"ha":1146,"x_min":14,"x_max":1132,"o":"m 1132 765 l 976 765 l 818 153 l 663 765 l 497 765 l 335 150 l 175 765 l 14 765 l 253 0 l 419 0 l 574 565 l 728 0 l 894 0 l 1132 765 m 658 936 l 351 1106 l 351 971 l 658 819 l 658 936 "},"Ẃ":{"ha":1388,"x_min":26,"x_max":1361,"o":"m 1361 965 l 1192 965 l 990 183 l 789 965 l 611 965 l 394 179 l 194 965 l 26 965 l 300 -1 l 478 0 l 693 731 l 896 0 l 1075 0 l 1361 965 m 918 1179 l 918 1314 l 611 1144 l 611 1028 l 918 1179 "},"ẃ":{"ha":1146,"x_min":14,"x_max":1132,"o":"m 1132 765 l 976 765 l 818 153 l 663 765 l 497 765 l 335 150 l 175 765 l 14 765 l 253 0 l 419 0 l 574 565 l 728 0 l 894 0 l 1132 765 m 801 971 l 801 1106 l 494 936 l 494 819 l 801 971 "},"Ẅ":{"ha":1388,"x_min":26,"x_max":1361,"o":"m 1361 965 l 1192 965 l 990 183 l 789 965 l 611 965 l 394 179 l 194 965 l 26 965 l 300 -1 l 478 0 l 693 731 l 896 0 l 1075 0 l 1361 965 m 568 1065 q 627 1090 603 1065 q 651 1149 651 1114 q 627 1208 651 1183 q 568 1232 603 1232 q 509 1208 533 1232 q 485 1149 485 1183 q 509 1090 485 1114 q 568 1065 533 1065 m 807 1065 q 866 1090 842 1065 q 890 1149 890 1114 q 866 1208 890 1183 q 807 1232 842 1232 q 748 1208 772 1232 q 724 1149 724 1183 q 748 1090 724 1114 q 807 1065 772 1065 "},"ẅ":{"ha":1146,"x_min":14,"x_max":1132,"o":"m 1132 765 l 976 765 l 818 153 l 663 765 l 497 765 l 335 150 l 175 765 l 14 765 l 253 0 l 419 0 l 574 565 l 728 0 l 894 0 l 1132 765 m 454 861 q 513 885 489 861 q 538 944 538 910 q 513 1003 538 979 q 454 1028 489 1028 q 395 1003 419 1028 q 371 944 371 979 q 395 885 371 910 q 454 861 419 861 m 693 861 q 752 885 728 861 q 776 944 776 910 q 752 1003 776 979 q 693 1028 728 1028 q 634 1003 658 1028 q 610 944 610 979 q 634 885 610 910 q 693 861 658 861 "},"Ẽ":{"ha":728,"x_min":104,"x_max":638,"o":"m 263 843 l 638 843 l 638 967 l 104 967 l 104 0 l 638 0 l 638 124 l 263 124 l 263 428 l 596 428 l 596 550 l 263 550 l 263 843 m 138 1046 l 226 1046 q 247 1090 231 1075 q 286 1106 263 1106 q 316 1099 303 1106 q 354 1078 329 1093 q 400 1052 379 1061 q 447 1043 421 1043 q 551 1084 510 1043 q 604 1206 593 1125 l 515 1206 q 495 1162 511 1176 q 456 1147 479 1147 q 423 1154 438 1147 q 388 1175 408 1161 q 340 1200 360 1192 q 294 1208 321 1208 q 190 1167 232 1208 q 138 1046 149 1126 "},"ẽ":{"ha":857,"x_min":51,"x_max":806,"o":"m 806 404 q 758 599 806 514 q 626 731 711 683 q 433 778 542 778 q 234 729 321 778 q 99 591 147 681 q 51 383 51 501 q 101 176 51 265 q 237 37 150 86 q 433 -12 324 -12 q 659 55 568 -12 q 785 228 750 122 l 614 228 q 433 121 561 121 q 282 177 343 121 q 214 329 221 233 l 800 329 q 806 404 806 364 m 640 443 l 215 443 q 284 590 225 536 q 426 644 343 644 q 578 590 518 644 q 640 443 639 536 m 203 844 l 292 844 q 312 889 296 874 q 351 904 328 904 q 381 898 368 904 q 419 876 394 892 q 465 851 444 860 q 513 842 486 842 q 617 883 575 842 q 669 1004 658 924 l 581 1004 q 560 960 576 975 q 521 946 544 946 q 488 953 503 946 q 453 974 474 960 q 406 999 425 990 q 360 1007 386 1007 q 256 966 297 1007 q 203 844 214 925 "},"Ỳ":{"ha":840,"x_min":21,"x_max":819,"o":"m 819 965 l 642 965 l 419 494 l 197 965 l 21 965 l 342 350 l 342 0 l 500 0 l 500 350 l 819 965 m 564 1138 l 257 1307 l 257 1172 l 564 1021 l 564 1138 "},"ỳ":{"ha":808,"x_min":14,"x_max":793,"o":"m 190 765 l 14 765 l 315 13 l 160 -360 l 324 -360 l 793 765 l 629 765 l 406 182 l 190 765 m 547 936 l 240 1106 l 240 971 l 547 819 l 547 936 "},"Ỹ":{"ha":840,"x_min":21,"x_max":819,"o":"m 819 965 l 642 965 l 419 494 l 197 965 l 21 965 l 342 350 l 342 0 l 500 0 l 500 350 l 819 965 m 194 1046 l 283 1046 q 303 1090 288 1075 q 343 1106 319 1106 q 373 1099 360 1106 q 411 1078 386 1093 q 457 1052 436 1061 q 504 1043 478 1043 q 608 1084 567 1043 q 661 1206 650 1125 l 572 1206 q 552 1162 568 1176 q 513 1147 536 1147 q 480 1154 494 1147 q 444 1175 465 1161 q 397 1200 417 1192 q 351 1208 378 1208 q 247 1167 289 1208 q 194 1046 206 1126 "},"ỹ":{"ha":808,"x_min":14,"x_max":793,"o":"m 190 765 l 14 765 l 315 13 l 160 -360 l 324 -360 l 793 765 l 629 765 l 406 182 l 190 765 m 178 844 l 267 844 q 287 889 271 874 q 326 904 303 904 q 356 898 343 904 q 394 876 369 892 q 440 851 419 860 q 488 842 461 842 q 592 883 550 842 q 644 1004 633 924 l 556 1004 q 535 960 551 975 q 496 946 519 946 q 463 953 478 946 q 428 974 449 960 q 381 999 400 990 q 335 1007 361 1007 q 231 966 272 1007 q 178 844 189 925 "},"–":{"ha":983,"x_min":121,"x_max":864,"o":"m 864 569 l 121 569 l 121 436 l 864 436 l 864 569 "},"—":{"ha":1283,"x_min":121,"x_max":1163,"o":"m 1163 569 l 121 569 l 121 436 l 1163 436 l 1163 569 "},"‘":{"ha":336,"x_min":35,"x_max":292,"o":"m 207 635 l 292 965 l 181 965 l 35 635 l 207 635 "},"’":{"ha":336,"x_min":44,"x_max":301,"o":"m 129 965 l 44 635 l 156 635 l 301 965 l 129 965 "},"‚":{"ha":281,"x_min":7,"x_max":278,"o":"m 278 190 l 106 190 l 7 -193 l 110 -193 l 278 190 "},"“":{"ha":592,"x_min":35,"x_max":542,"o":"m 207 635 l 292 965 l 181 965 l 35 635 l 207 635 m 457 635 l 542 965 l 431 965 l 285 635 l 457 635 "},"”":{"ha":601,"x_min":60,"x_max":567,"o":"m 394 965 l 310 635 l 421 635 l 567 965 l 394 965 m 144 965 l 60 635 l 171 635 l 317 965 l 144 965 "},"„":{"ha":281,"x_min":7,"x_max":278,"o":"m 278 190 l 106 190 l 7 -193 l 110 -193 l 278 190 m 278 190 l 106 190 l 7 -193 l 110 -193 l 278 190 "},"†":{"ha":811,"x_min":68,"x_max":743,"o":"m 743 642 l 743 765 l 468 751 l 485 1088 l 326 1088 l 343 751 l 68 765 l 68 642 l 343 656 l 326 -364 l 485 -364 l 468 656 l 743 642 "},"‡":{"ha":813,"x_min":69,"x_max":743,"o":"m 468 656 l 743 642 l 743 765 l 468 751 l 485 1088 l 326 1088 l 343 751 l 69 765 l 69 642 l 343 656 l 343 69 l 69 83 l 69 -40 l 343 -26 l 326 -364 l 485 -364 l 468 -26 l 743 -40 l 743 83 l 468 69 l 468 656 "},"•":{"ha":642,"x_min":139,"x_max":503,"o":"m 319 282 q 450 334 397 282 q 503 463 503 386 q 450 592 503 539 q 319 644 397 644 q 192 592 244 644 q 139 463 139 539 q 163 372 139 413 q 228 306 188 331 q 319 282 269 282 "},"…":{"ha":886,"x_min":67,"x_max":828,"o":"m 447 -10 q 518 19 489 -10 q 547 92 547 49 q 518 164 547 135 q 447 193 489 193 q 375 164 404 193 q 346 92 346 135 q 375 19 346 49 q 447 -10 404 -10 m 728 -10 q 799 19 769 -10 q 828 92 828 49 q 799 164 828 135 q 728 193 769 193 q 656 164 685 193 q 626 92 626 135 q 656 19 626 49 q 728 -10 685 -10 m 168 -10 q 239 19 210 -10 q 268 92 268 49 q 239 164 268 135 q 168 193 210 193 q 96 164 125 193 q 67 92 67 135 q 96 19 67 49 q 168 -10 125 -10 "},"‰":{"ha":1475,"x_min":57,"x_max":1418,"o":"m 57 768 q 116 612 57 669 q 268 554 175 554 q 420 612 361 554 q 479 768 479 669 q 420 924 479 867 q 268 981 361 981 q 116 924 175 981 q 57 768 57 867 m 856 967 l 700 967 l 146 0 l 301 0 l 856 967 m 268 885 q 333 856 310 885 q 356 768 356 828 q 333 679 356 708 q 268 650 310 650 q 181 768 181 650 q 268 885 181 885 m 525 200 q 584 44 525 101 q 736 -14 643 -14 q 887 44 828 -14 q 946 200 946 101 q 887 356 946 299 q 736 413 828 413 q 584 356 643 413 q 525 200 525 299 m 996 200 q 1056 44 996 101 q 1207 -14 1115 -14 q 1359 44 1300 -14 q 1418 200 1418 101 q 1359 356 1418 299 q 1207 413 1300 413 q 1056 356 1115 413 q 996 200 996 299 m 735 317 q 799 288 776 317 q 822 200 822 260 q 799 112 822 140 q 735 83 776 83 q 670 112 693 83 q 647 200 647 140 q 670 288 647 260 q 735 317 693 317 m 1207 317 q 1272 288 1249 317 q 1294 200 1294 260 q 1272 112 1294 140 q 1207 83 1249 83 q 1119 200 1119 83 q 1207 317 1119 317 "},"‹":{"ha":413,"x_min":63,"x_max":343,"o":"m 190 167 l 343 167 l 210 410 l 343 653 l 190 653 l 63 410 l 190 167 "},"›":{"ha":413,"x_min":69,"x_max":350,"o":"m 201 410 l 69 167 l 221 167 l 350 410 l 221 653 l 69 653 l 201 410 "},"⁄":{"ha":815,"x_min":71,"x_max":782,"o":"m 782 967 l 625 967 l 71 0 l 228 0 l 782 967 "},"€":{"ha":1114,"x_min":36,"x_max":1076,"o":"m 629 135 q 451 182 528 135 q 333 315 374 229 l 629 315 l 629 424 l 303 424 q 299 485 299 453 q 303 546 299 517 l 629 546 l 629 654 l 333 654 q 451 786 374 739 q 629 833 529 833 q 783 797 717 833 q 886 688 849 760 l 1076 688 q 902 902 1022 826 q 629 978 782 978 q 340 890 467 978 q 164 654 214 801 l 36 654 l 36 546 l 139 546 q 136 485 136 507 q 139 424 136 463 l 36 424 l 36 315 l 164 315 q 340 80 214 168 q 629 -8 467 -8 q 903 67 783 -8 q 1076 281 1022 142 l 886 281 q 783 172 849 208 q 629 135 717 135 "},"₺":{"ha":1181,"x_min":15,"x_max":1011,"o":"m 1011 594 l 849 594 q 768 246 849 364 q 499 128 688 128 q 390 138 436 128 l 390 372 l 611 422 l 611 533 l 390 483 l 390 601 l 618 653 l 618 764 l 390 711 l 390 974 l 228 974 l 228 674 l 15 625 l 15 517 l 228 565 l 228 447 l 21 400 l 21 288 l 228 335 l 228 14 q 499 -21 382 -21 q 890 129 768 -21 q 1011 594 1011 279 "},"₽":{"ha":882,"x_min":36,"x_max":835,"o":"m 318 392 l 493 392 q 689 433 613 392 q 800 539 765 474 q 835 678 835 604 q 797 824 835 758 q 681 927 758 889 q 493 965 604 965 l 160 965 l 160 515 l 36 515 l 36 392 l 160 392 l 160 278 l 36 278 l 36 151 l 160 151 l 160 0 l 318 0 l 318 151 l 594 151 l 594 278 l 318 278 l 318 392 m 318 515 l 318 842 l 493 842 q 628 799 583 842 q 672 678 672 756 q 628 558 672 601 q 493 515 583 515 l 318 515 "},"ℓ":{"ha":367,"x_min":104,"x_max":263,"o":"m 263 1028 l 104 1028 l 104 0 l 263 0 l 263 1028 "},"™":{"ha":1126,"x_min":33,"x_max":1042,"o":"m 33 978 l 33 883 l 143 883 l 140 489 l 265 489 l 264 883 l 374 883 l 374 978 l 33 978 m 1042 978 l 889 978 l 749 635 l 615 978 l 454 978 l 454 489 l 567 489 l 567 826 l 703 489 l 788 489 l 925 819 l 928 489 l 1042 489 l 1042 978 "},"Ω":{"ha":1090,"x_min":53,"x_max":1038,"o":"m 1038 485 q 972 739 1038 626 q 794 915 907 851 q 544 978 681 978 q 296 915 408 978 q 118 739 183 851 q 53 485 53 626 q 97 278 53 372 q 228 124 142 183 l 67 124 l 67 0 l 447 0 l 447 128 q 278 256 343 164 q 214 475 214 347 q 256 665 214 583 q 374 790 299 746 q 544 833 449 833 q 716 790 640 833 q 834 665 792 746 q 876 475 876 583 q 812 256 876 347 q 643 128 747 164 l 643 0 l 1022 0 l 1022 124 l 861 124 q 992 278 947 183 q 1038 485 1038 372 "},"℮":{"ha":1051,"x_min":60,"x_max":992,"o":"m 951 189 l 888 260 q 720 133 803 175 q 538 90 638 90 q 387 118 451 90 q 269 203 322 146 l 269 439 l 992 439 l 992 525 q 936 748 992 644 q 775 915 881 851 q 525 978 669 978 q 274 910 379 978 q 115 724 169 842 q 60 461 60 607 q 122 208 60 314 q 292 46 183 101 q 538 -10 400 -10 q 951 189 767 -10 m 772 779 l 772 538 l 269 538 l 269 765 q 525 879 358 879 q 666 853 603 879 q 772 779 729 828 "},"∂":{"ha":813,"x_min":53,"x_max":760,"o":"m 53 321 q 132 72 53 157 q 336 -12 211 -12 q 549 59 451 -12 q 703 263 646 131 q 760 569 760 394 q 720 810 760 707 q 605 971 681 914 q 422 1028 529 1028 q 289 1007 353 1028 l 289 918 q 399 935 351 935 q 537 872 488 935 q 594 704 586 810 q 524 760 563 742 q 433 778 486 778 q 243 715 331 778 q 104 548 156 653 q 53 321 53 443 m 583 446 q 553 285 583 360 q 469 165 522 210 q 354 121 417 121 q 252 171 290 121 q 214 321 214 221 q 243 485 214 411 q 324 601 272 558 q 439 644 375 644 q 544 593 506 644 q 583 446 583 542 "},"∆":{"ha":967,"x_min":28,"x_max":939,"o":"m 549 967 l 418 967 l 28 122 l 28 0 l 939 0 l 939 122 l 549 967 m 190 122 l 483 786 l 776 122 l 190 122 "},"∏":{"ha":1029,"x_min":43,"x_max":986,"o":"m 986 967 l 43 967 l 43 843 l 149 843 l 149 0 l 307 0 l 307 843 l 722 843 l 722 0 l 879 0 l 879 843 l 986 843 l 986 967 "},"∑":{"ha":667,"x_min":56,"x_max":611,"o":"m 611 844 l 611 967 l 56 967 l 56 783 l 408 446 l 56 107 l 56 -78 l 611 -78 l 611 44 l 189 44 l 554 388 l 554 510 l 190 844 l 611 844 "},"−":{"ha":813,"x_min":121,"x_max":692,"o":"m 692 569 l 121 569 l 121 436 l 692 436 l 692 569 "},"∕":{"ha":714,"x_min":85,"x_max":618,"o":"m 618 1311 l 461 1311 l 85 -243 l 240 -243 l 618 1311 "},"∙":{"ha":339,"x_min":72,"x_max":274,"o":"m 174 364 q 244 393 215 364 q 274 465 274 422 q 244 538 274 508 q 174 567 215 567 q 101 538 131 567 q 72 465 72 508 q 101 393 72 422 q 174 364 131 364 "},"√":{"ha":1151,"x_min":29,"x_max":1136,"o":"m 1136 1221 l 1022 1221 l 426 131 l 261 424 l 29 286 l 76 207 l 172 264 l 356 -60 l 436 -60 l 1136 1221 "},"∞":{"ha":975,"x_min":38,"x_max":938,"o":"m 715 699 q 585 663 644 699 q 489 567 526 626 q 385 663 439 628 q 261 699 332 699 q 149 672 200 699 q 67 597 97 646 q 38 482 38 549 q 100 324 38 382 q 260 267 163 267 q 388 302 329 267 q 483 394 446 338 q 591 301 536 335 q 714 267 646 267 q 826 293 775 267 q 908 368 878 319 q 938 483 938 417 q 874 641 938 583 q 715 699 810 699 m 269 381 q 197 407 225 381 q 169 482 169 433 q 197 558 169 531 q 269 585 225 585 q 340 557 307 585 q 418 474 374 529 q 351 406 390 432 q 269 381 311 381 m 706 381 q 629 407 664 381 q 553 486 594 433 q 622 558 581 532 q 706 585 663 585 q 778 558 750 585 q 806 483 806 532 q 778 408 806 435 q 706 381 750 381 "},"∫":{"ha":375,"x_min":-58,"x_max":442,"o":"m 175 1071 l 49 -89 q 28 -151 44 -132 q -22 -171 11 -171 l -46 -171 l -58 -301 l -29 -301 q 137 -252 78 -301 q 208 -89 196 -203 l 333 1071 q 356 1134 339 1115 q 406 1153 372 1153 l 428 1153 l 442 1285 l 411 1285 q 246 1235 304 1285 q 175 1071 188 1186 "},"≈":{"ha":768,"x_min":50,"x_max":718,"o":"m 50 250 l 164 250 q 197 315 169 292 q 260 338 224 338 q 307 328 285 338 q 360 297 329 318 q 428 260 399 272 q 496 247 457 247 q 640 303 582 247 q 718 476 697 360 l 603 476 q 570 412 597 435 q 508 389 543 389 q 463 399 483 389 q 408 429 443 408 q 340 467 369 454 q 271 479 310 479 q 128 423 185 479 q 50 250 71 367 m 50 558 l 164 558 q 197 623 169 600 q 260 646 224 646 q 307 636 285 646 q 360 606 329 626 q 428 568 399 581 q 496 556 457 556 q 640 612 582 556 q 718 785 697 668 l 603 785 q 570 720 597 743 q 508 697 543 697 q 463 707 483 697 q 408 738 443 717 q 340 775 369 763 q 271 788 310 788 q 128 731 185 788 q 50 558 71 675 "},"≠":{"ha":1044,"x_min":168,"x_max":907,"o":"m 796 729 l 907 857 l 790 857 l 679 729 l 168 729 l 168 589 l 556 589 l 403 414 l 168 414 l 168 274 l 281 274 l 168 146 l 285 146 l 397 274 l 907 274 l 907 414 l 519 414 l 672 589 l 907 589 l 907 729 l 796 729 "},"≤":{"ha":763,"x_min":118,"x_max":646,"o":"m 328 554 l 646 817 l 438 817 l 118 553 l 438 289 l 646 289 l 328 554 m 126 213 l 126 93 l 639 93 l 639 213 l 126 213 "},"≥":{"ha":763,"x_min":118,"x_max":646,"o":"m 118 289 l 325 289 l 646 553 l 325 817 l 118 817 l 435 554 l 118 289 m 124 213 l 124 93 l 636 93 l 636 213 l 124 213 "},"◊":{"ha":774,"x_min":43,"x_max":731,"o":"m 731 488 l 388 831 l 43 488 l 388 143 l 731 488 m 207 488 l 388 668 l 568 488 l 388 306 l 207 488 "},"ﬁ":{"ha":828,"x_min":33,"x_max":746,"o":"m 283 765 l 283 819 q 313 913 283 886 q 414 940 342 940 l 414 1072 q 194 1012 264 1072 q 124 819 124 951 l 124 765 l 33 765 l 33 636 l 124 636 l 124 0 l 283 0 l 283 636 l 565 636 l 565 0 l 724 0 l 724 765 l 283 765 m 644 867 q 717 896 688 867 q 746 968 746 925 q 717 1040 746 1011 q 644 1069 688 1069 q 574 1040 603 1069 q 544 968 544 1011 q 574 896 544 925 q 644 867 603 867 "},"ﬂ":{"ha":828,"x_min":33,"x_max":724,"o":"m 425 636 l 425 765 l 283 765 l 283 819 q 313 913 283 886 q 414 940 342 940 l 414 1072 q 194 1012 264 1072 q 124 819 124 951 l 124 765 l 33 765 l 33 636 l 124 636 l 124 0 l 283 0 l 283 636 l 425 636 m 724 1028 l 565 1028 l 565 0 l 724 0 l 724 1028 "}}}
